Comme-Regular.ufo
<glyph name="exclam" format="1">
  <advance width="314"/>
  <unicode hex="0021"/>
  <outline>
    <contour>
      <point x="153" y="-5" type="curve" smooth="yes"/>
      <point x="189" y="-5"/>
      <point x="205" y="21"/>
      <point x="205" y="49" type="curve" smooth="yes"/>
      <point x="205" y="75"/>
      <point x="189" y="102"/>
      <point x="153" y="102" type="curve" smooth="yes"/>
      <point x="117" y="102"/>
      <point x="101" y="75"/>
      <point x="101" y="49" type="curve" smooth="yes"/>
      <point x="101" y="22"/>
      <point x="117" y="-5"/>
    </contour>
    <contour>
      <point x="137" y="190" type="line"/>
      <point x="169" y="190" type="line"/>
      <point x="192" y="586" type="line"/>
      <point x="192" y="644" type="line"/>
      <point x="112" y="644" type="line"/>
      <point x="112" y="586" type="line"/>
    </contour>
  </outline>
</glyph>
<glyph name="quotedbl" format="1">
  <advance width="308"/>
  <unicode hex="0022"/>
  <outline>
    <contour>
      <point x="206" y="437" type="line"/>
      <point x="246" y="437" type="line"/>
      <point x="263" y="672" type="line"/>
      <point x="179" y="672" type="line"/>
    </contour>
    <contour>
      <point x="75" y="437" type="line"/>
      <point x="113" y="437" type="line"/>
      <point x="130" y="672" type="line"/>
      <point x="47" y="672" type="line"/>
    </contour>
  </outline>
</glyph>
<glyph name="numbersign" format="1">
  <advance width="508"/>
  <unicode hex="0023"/>
  <outline>
    <contour>
      <point x="171" y="237" type="line"/>
      <point x="211" y="434" type="line"/>
      <point x="341" y="434" type="line"/>
      <point x="302" y="237" type="line"/>
    </contour>
    <contour>
      <point x="74" y="-8" type="line"/>
      <point x="122" y="-8" type="line"/>
      <point x="163" y="194" type="line"/>
      <point x="292" y="194" type="line"/>
      <point x="253" y="-8" type="line"/>
      <point x="300" y="-8" type="line"/>
      <point x="340" y="194" type="line"/>
      <point x="439" y="194" type="line"/>
      <point x="446" y="237" type="line"/>
      <point x="349" y="237" type="line"/>
      <point x="389" y="434" type="line"/>
      <point x="481" y="434" type="line"/>
      <point x="488" y="476" type="line"/>
      <point x="397" y="476" type="line"/>
      <point x="441" y="681" type="line"/>
      <point x="394" y="681" type="line"/>
      <point x="350" y="476" type="line"/>
      <point x="220" y="476" type="line"/>
      <point x="263" y="681" type="line"/>
      <point x="214" y="681" type="line"/>
      <point x="170" y="476" type="line"/>
      <point x="82" y="476" type="line"/>
      <point x="76" y="434" type="line"/>
      <point x="162" y="434" type="line"/>
      <point x="122" y="237" type="line"/>
      <point x="34" y="237" type="line"/>
      <point x="29" y="194" type="line"/>
      <point x="114" y="194" type="line"/>
    </contour>
  </outline>
</glyph>
<glyph name="dollar" format="1">
  <advance width="536"/>
  <unicode hex="0024"/>
  <outline>
    <component base="S"/>
    <contour>
      <point x="240" y="19" type="line"/>
      <point x="240" y="-130" type="line"/>
      <point x="293" y="-130" type="line"/>
      <point x="300" y="19" type="line"/>
    </contour>
    <contour>
      <point x="248" y="776" type="line"/>
      <point x="240" y="627" type="line"/>
      <point x="303" y="627" type="line"/>
      <point x="303" y="776" type="line"/>
    </contour>
  </outline>
</glyph>
<glyph name="percent" format="1">
  <advance width="712"/>
  <unicode hex="0025"/>
  <outline>
    <contour>
      <point x="508" y="-2" type="curve" smooth="yes"/>
      <point x="608" y="-2"/>
      <point x="645" y="72"/>
      <point x="645" y="167" type="curve" smooth="yes"/>
      <point x="645" y="264"/>
      <point x="609" y="337"/>
      <point x="508" y="337" type="curve" smooth="yes"/>
      <point x="410" y="337"/>
      <point x="373" y="262"/>
      <point x="373" y="167" type="curve" smooth="yes"/>
      <point x="373" y="72"/>
      <point x="408" y="-2"/>
    </contour>
    <contour>
      <point x="509" y="44" type="curve" smooth="yes"/>
      <point x="441" y="44"/>
      <point x="428" y="97"/>
      <point x="428" y="168" type="curve" smooth="yes"/>
      <point x="428" y="237"/>
      <point x="441" y="290"/>
      <point x="509" y="290" type="curve" smooth="yes"/>
      <point x="576" y="290"/>
      <point x="590" y="240"/>
      <point x="590" y="168" type="curve" smooth="yes"/>
      <point x="590" y="99"/>
      <point x="576" y="44"/>
    </contour>
    <contour>
      <point x="123" y="0" type="line"/>
      <point x="186" y="0" type="line"/>
      <point x="547" y="643" type="line"/>
      <point x="489" y="643" type="line"/>
    </contour>
    <contour>
      <point x="163" y="314" type="curve" smooth="yes"/>
      <point x="263" y="314"/>
      <point x="300" y="388"/>
      <point x="300" y="483" type="curve" smooth="yes"/>
      <point x="300" y="580"/>
      <point x="264" y="652"/>
      <point x="163" y="652" type="curve" smooth="yes"/>
      <point x="65" y="652"/>
      <point x="30" y="578"/>
      <point x="30" y="483" type="curve" smooth="yes"/>
      <point x="30" y="388"/>
      <point x="63" y="314"/>
    </contour>
    <contour>
      <point x="164" y="360" type="curve" smooth="yes"/>
      <point x="96" y="360"/>
      <point x="82" y="412"/>
      <point x="82" y="484" type="curve" smooth="yes"/>
      <point x="82" y="553"/>
      <point x="96" y="606"/>
      <point x="164" y="606" type="curve" smooth="yes"/>
      <point x="231" y="606"/>
      <point x="244" y="556"/>
      <point x="244" y="484" type="curve" smooth="yes"/>
      <point x="244" y="415"/>
      <point x="231" y="360"/>
    </contour>
  </outline>
</glyph>
<glyph name="ampersand" format="1">
  <advance width="623"/>
  <unicode hex="0026"/>
  <outline>
    <contour>
      <point x="264" y="595" type="curve" smooth="yes"/>
      <point x="321" y="595"/>
      <point x="351" y="564"/>
      <point x="351" y="512" type="curve" smooth="yes"/>
      <point x="351" y="445"/>
      <point x="292" y="410"/>
      <point x="230" y="377" type="curve"/>
      <point x="180" y="435"/>
      <point x="166" y="469"/>
      <point x="166" y="510" type="curve" smooth="yes"/>
      <point x="166" y="560"/>
      <point x="208" y="595"/>
    </contour>
    <contour>
      <point x="41" y="173" type="curve" smooth="yes"/>
      <point x="41" y="66"/>
      <point x="119" y="-9"/>
      <point x="242" y="-9" type="curve" smooth="yes"/>
      <point x="328" y="-9"/>
      <point x="393" y="26"/>
      <point x="443" y="75" type="curve"/>
      <point x="528" y="-10" type="line"/>
      <point x="571" y="35" type="line"/>
      <point x="484" y="122" type="line"/>
      <point x="532" y="183"/>
      <point x="564" y="252"/>
      <point x="589" y="302" type="curve"/>
      <point x="540" y="335" type="line"/>
      <point x="502" y="262"/>
      <point x="469" y="207"/>
      <point x="438" y="166" type="curve"/>
      <point x="267" y="336" type="line"/>
      <point x="343" y="376"/>
      <point x="420" y="420"/>
      <point x="420" y="514" type="curve" smooth="yes"/>
      <point x="420" y="604"/>
      <point x="353" y="652"/>
      <point x="264" y="652" type="curve" smooth="yes"/>
      <point x="168" y="652"/>
      <point x="97" y="595"/>
      <point x="97" y="509" type="curve" smooth="yes"/>
      <point x="97" y="454"/>
      <point x="118" y="406"/>
      <point x="174" y="348" type="curve"/>
      <point x="92" y="307"/>
      <point x="41" y="264"/>
    </contour>
    <contour>
      <point x="253" y="54" type="curve" smooth="yes"/>
      <point x="166" y="54"/>
      <point x="115" y="100"/>
      <point x="115" y="176" type="curve" smooth="yes"/>
      <point x="115" y="238"/>
      <point x="152" y="273"/>
      <point x="212" y="305" type="curve"/>
      <point x="399" y="119" type="line"/>
      <point x="351" y="70"/>
      <point x="307" y="54"/>
    </contour>
  </outline>
</glyph>
<glyph name="quotesingle" format="1">
  <advance width="181"/>
  <unicode hex="0027"/>
  <outline>
    <contour>
      <point x="67" y="420" type="line"/>
      <point x="112" y="420" type="line"/>
      <point x="125" y="661" type="line"/>
      <point x="45" y="661" type="line"/>
    </contour>
  </outline>
</glyph>
<glyph name="parenright" format="1">
  <advance width="340"/>
  <unicode hex="0029"/>
  <outline>
    <contour>
      <point x="250" y="298" type="curve" smooth="yes"/>
      <point x="250" y="442"/>
      <point x="210" y="582"/>
      <point x="137" y="699" type="curve"/>
      <point x="72" y="699" type="line"/>
      <point x="72" y="684" type="line"/>
      <point x="148" y="560"/>
      <point x="181" y="433"/>
      <point x="181" y="298" type="curve" smooth="yes"/>
      <point x="181" y="163"/>
      <point x="148" y="36"/>
      <point x="72" y="-89" type="curve"/>
      <point x="72" y="-104" type="line"/>
      <point x="137" y="-104" type="line"/>
      <point x="210" y="13"/>
      <point x="250" y="155"/>
    </contour>
  </outline>
</glyph>
<glyph name="asterisk" format="1">
  <advance width="415"/>
  <unicode hex="002A"/>
  <outline>
    <contour>
      <point x="130" y="258" type="line"/>
      <point x="207" y="407" type="line"/>
      <point x="292" y="258" type="line"/>
      <point x="314" y="272"/>
      <point x="330" y="282"/>
      <point x="352" y="296" type="curve"/>
      <point x="315" y="343"/>
      <point x="265" y="411"/>
      <point x="248" y="433" type="curve"/>
      <point x="399" y="467" type="line"/>
      <point x="380" y="536" type="line"/>
      <point x="230" y="473" type="line"/>
      <point x="247" y="643" type="line"/>
      <point x="173" y="643" type="line"/>
      <point x="187" y="473" type="line"/>
      <point x="40" y="536" type="line"/>
      <point x="20" y="467" type="line"/>
      <point x="170" y="433" type="line"/>
      <point x="68" y="296" type="line"/>
    </contour>
  </outline>
</glyph>
<glyph name="plus" format="1">
  <advance width="501"/>
  <unicode hex="002B"/>
  <outline>
    <contour>
      <point x="209" y="511" type="line"/>
      <point x="209" y="345" type="line"/>
      <point x="51" y="345" type="line"/>
      <point x="51" y="269" type="line"/>
      <point x="209" y="269" type="line"/>
      <point x="209" y="100" type="line"/>
      <point x="287" y="100" type="line"/>
      <point x="287" y="269" type="line"/>
      <point x="444" y="269" type="line"/>
      <point x="444" y="345" type="line"/>
      <point x="287" y="345" type="line"/>
      <point x="287" y="511" type="line"/>
    </contour>
  </outline>
</glyph>
<glyph name="comma" format="1">
  <advance width="276"/>
  <unicode hex="002C"/>
  <outline>
    <contour>
      <point x="85" y="-134" type="curve"/>
      <point x="131" y="-134" type="line"/>
      <point x="184" y="65" type="line"/>
      <point x="184" y="105" type="line"/>
      <point x="103" y="105" type="line"/>
      <point x="103" y="102"/>
      <point x="85" y="-134"/>
    </contour>
  </outline>
</glyph>
<glyph name="hyphen" format="1">
  <advance width="378"/>
  <unicode hex="002D"/>
  <outline>
    <contour>
      <point x="76" y="230" type="line"/>
      <point x="300" y="230" type="line"/>
      <point x="300" y="292" type="line"/>
      <point x="76" y="292" type="line"/>
    </contour>
  </outline>
</glyph>
<glyph name="period" format="1">
  <advance width="278"/>
  <unicode hex="002E"/>
  <outline>
    <contour>
      <point x="148" y="-4" type="curve" smooth="yes"/>
      <point x="182" y="-4"/>
      <point x="197" y="16"/>
      <point x="197" y="53" type="curve" smooth="yes"/>
      <point x="197" y="89"/>
      <point x="182" y="108"/>
      <point x="148" y="108" type="curve" smooth="yes"/>
      <point x="113" y="108"/>
      <point x="99" y="89"/>
      <point x="99" y="53" type="curve" smooth="yes"/>
      <point x="99" y="16"/>
      <point x="113" y="-4"/>
    </contour>
  </outline>
</glyph>
<glyph name="slash" format="1">
  <advance width="425"/>
  <unicode hex="002F"/>
  <outline>
    <contour>
      <point x="56" y="-64" type="line"/>
      <point x="122" y="-64" type="line"/>
      <point x="393" y="686" type="line"/>
      <point x="326" y="686" type="line"/>
    </contour>
  </outline>
</glyph>
<glyph name="zero" format="1">
  <advance width="553"/>
  <unicode hex="0030"/>
  <outline>
    <contour>
      <point x="279" y="-9" type="curve" smooth="yes"/>
      <point x="431" y="-9"/>
      <point x="496" y="115"/>
      <point x="496" y="310" type="curve" smooth="yes"/>
      <point x="496" y="515"/>
      <point x="425" y="649"/>
      <point x="279" y="649" type="curve" smooth="yes"/>
      <point x="133" y="649"/>
      <point x="58" y="515"/>
      <point x="58" y="310" type="curve" smooth="yes"/>
      <point x="58" y="115"/>
      <point x="127" y="-9"/>
    </contour>
    <contour>
      <point x="279" y="59" type="curve" smooth="yes"/>
      <point x="193" y="59"/>
      <point x="140" y="130"/>
      <point x="140" y="312" type="curve" smooth="yes"/>
      <point x="140" y="486"/>
      <point x="193" y="581"/>
      <point x="279" y="581" type="curve" smooth="yes"/>
      <point x="365" y="581"/>
      <point x="414" y="497"/>
      <point x="414" y="312" type="curve" smooth="yes"/>
      <point x="414" y="129"/>
      <point x="365" y="59"/>
    </contour>
  </outline>
</glyph>
<glyph name="one" format="1">
  <advance width="553"/>
  <unicode hex="0031"/>
  <outline>
    <contour>
      <point x="87" y="0" type="line"/>
      <point x="492" y="0" type="line"/>
      <point x="492" y="59" type="line"/>
      <point x="339" y="59" type="line"/>
      <point x="339" y="640" type="line"/>
      <point x="266" y="640" type="line"/>
      <point x="231" y="616"/>
      <point x="131" y="580"/>
      <point x="92" y="571" type="curve"/>
      <point x="92" y="507" type="line"/>
      <point x="126" y="511"/>
      <point x="208" y="538"/>
      <point x="258" y="565" type="curve"/>
      <point x="258" y="59" type="line"/>
      <point x="87" y="59" type="line"/>
    </contour>
  </outline>
</glyph>
<glyph name="two" format="1">
  <advance width="553"/>
  <unicode hex="0032"/>
  <outline>
    <contour>
      <point x="117" y="522" type="line"/>
      <point x="150" y="560"/>
      <point x="207" y="581"/>
      <point x="261" y="581" type="curve" smooth="yes"/>
      <point x="329" y="581"/>
      <point x="391" y="547"/>
      <point x="391" y="464" type="curve" smooth="yes"/>
      <point x="391" y="394"/>
      <point x="364" y="363"/>
      <point x="302" y="303" type="curve" smooth="yes"/>
      <point x="64" y="70" type="line"/>
      <point x="76" y="0" type="line"/>
      <point x="456" y="0" type="line"/>
      <point x="460" y="67" type="line"/>
      <point x="158" y="67" type="line"/>
      <point x="350" y="251" type="line" smooth="yes"/>
      <point x="436" y="334"/>
      <point x="468" y="376"/>
      <point x="468" y="465" type="curve" smooth="yes"/>
      <point x="468" y="587"/>
      <point x="374" y="649"/>
      <point x="263" y="649" type="curve" smooth="yes"/>
      <point x="188" y="649"/>
      <point x="114" y="619"/>
      <point x="70" y="569" type="curve"/>
      <point x="109" y="522" type="line"/>
    </contour>
  </outline>
</glyph>
<glyph name="three" format="1">
  <advance width="547"/>
  <unicode hex="0033"/>
  <outline>
    <contour>
      <point x="339" y="338" type="curve"/>
      <point x="420" y="357"/>
      <point x="458" y="410"/>
      <point x="458" y="482" type="curve" smooth="yes"/>
      <point x="458" y="583"/>
      <point x="390" y="649"/>
      <point x="274" y="649" type="curve" smooth="yes"/>
      <point x="215" y="649"/>
      <point x="118" y="630"/>
      <point x="75" y="540" type="curve"/>
      <point x="121" y="503" type="line"/>
      <point x="130" y="503" type="line"/>
      <point x="165" y="560"/>
      <point x="211" y="581"/>
      <point x="267" y="581" type="curve" smooth="yes"/>
      <point x="274" y="581" type="line" smooth="yes"/>
      <point x="345" y="581"/>
      <point x="380" y="543"/>
      <point x="380" y="482" type="curve" smooth="yes"/>
      <point x="380" y="475" type="line" smooth="yes"/>
      <point x="380" y="381"/>
      <point x="292" y="368"/>
      <point x="221" y="368" type="curve" smooth="yes"/>
      <point x="188" y="368" type="line"/>
      <point x="199" y="302" type="line"/>
      <point x="220" y="302" type="line" smooth="yes"/>
      <point x="333" y="302"/>
      <point x="396" y="273"/>
      <point x="396" y="172" type="curve" smooth="yes"/>
      <point x="396" y="95"/>
      <point x="341" y="58"/>
      <point x="271" y="58" type="curve" smooth="yes"/>
      <point x="227" y="58"/>
      <point x="165" y="73"/>
      <point x="130" y="130" type="curve"/>
      <point x="123" y="130" type="line"/>
      <point x="76" y="93" type="line"/>
      <point x="119" y="17"/>
      <point x="204" y="-9"/>
      <point x="272" y="-9" type="curve" smooth="yes"/>
      <point x="403" y="-9"/>
      <point x="476" y="73"/>
      <point x="476" y="169" type="curve" smooth="yes"/>
      <point x="476" y="256"/>
      <point x="429" y="322"/>
    </contour>
  </outline>
</glyph>
<glyph name="four" format="1">
  <advance width="553"/>
  <unicode hex="0034"/>
  <outline>
    <contour>
      <point x="139" y="227" type="line"/>
      <point x="341" y="543" type="line"/>
      <point x="341" y="227" type="line"/>
    </contour>
    <contour>
      <point x="341" y="0" type="line"/>
      <point x="422" y="0" type="line"/>
      <point x="422" y="164" type="line"/>
      <point x="492" y="164" type="line"/>
      <point x="498" y="228" type="line"/>
      <point x="422" y="228" type="line"/>
      <point x="422" y="640" type="line"/>
      <point x="335" y="640" type="line"/>
      <point x="58" y="228" type="line"/>
      <point x="79" y="164" type="line"/>
      <point x="341" y="164" type="line"/>
    </contour>
  </outline>
</glyph>
<glyph name="five" format="1">
  <advance width="553"/>
  <unicode hex="0035"/>
  <outline>
    <contour>
      <point x="292" y="351" type="curve" smooth="yes"/>
      <point x="371" y="351"/>
      <point x="414" y="280"/>
      <point x="414" y="207" type="curve" smooth="yes"/>
      <point x="414" y="132"/>
      <point x="369" y="59"/>
      <point x="274" y="59" type="curve" smooth="yes"/>
      <point x="209" y="59"/>
      <point x="167" y="83"/>
      <point x="132" y="131" type="curve"/>
      <point x="126" y="131" type="line"/>
      <point x="79" y="86" type="line"/>
      <point x="106" y="42"/>
      <point x="176" y="-9"/>
      <point x="275" y="-9" type="curve" smooth="yes"/>
      <point x="426" y="-9"/>
      <point x="500" y="99"/>
      <point x="500" y="207" type="curve" smooth="yes"/>
      <point x="500" y="310"/>
      <point x="434" y="412"/>
      <point x="305" y="412" type="curve" smooth="yes"/>
      <point x="255" y="412"/>
      <point x="218" y="395"/>
      <point x="187" y="367" type="curve"/>
      <point x="208" y="576" type="line"/>
      <point x="451" y="576" type="line"/>
      <point x="460" y="640" type="line"/>
      <point x="132" y="640" type="line"/>
      <point x="112" y="306" type="line"/>
      <point x="177" y="296" type="line"/>
      <point x="204" y="332"/>
      <point x="246" y="351"/>
    </contour>
  </outline>
</glyph>
<glyph name="six" format="1">
  <advance width="553"/>
  <unicode hex="0036"/>
  <outline>
    <contour>
      <point x="284" y="55" type="curve" smooth="yes"/>
      <point x="198" y="55"/>
      <point x="153" y="119"/>
      <point x="153" y="194" type="curve" smooth="yes"/>
      <point x="153" y="298"/>
      <point x="231" y="331"/>
      <point x="287" y="331" type="curve" smooth="yes"/>
      <point x="370" y="331"/>
      <point x="417" y="273"/>
      <point x="417" y="195" type="curve" smooth="yes"/>
      <point x="417" y="120"/>
      <point x="370" y="55"/>
    </contour>
    <contour>
      <point x="286" y="-9" type="curve" smooth="yes"/>
      <point x="415" y="-9"/>
      <point x="496" y="82"/>
      <point x="496" y="195" type="curve" smooth="yes"/>
      <point x="496" y="314"/>
      <point x="416" y="392"/>
      <point x="315" y="392" type="curve" smooth="yes"/>
      <point x="262" y="392"/>
      <point x="223" y="370"/>
      <point x="195" y="346" type="curve"/>
      <point x="264" y="440"/>
      <point x="334" y="536"/>
      <point x="403" y="630" type="curve"/>
      <point x="403" y="640" type="line"/>
      <point x="318" y="640" type="line"/>
      <point x="168" y="436" type="line" smooth="yes"/>
      <point x="109" y="355"/>
      <point x="75" y="292"/>
      <point x="75" y="198" type="curve" smooth="yes"/>
      <point x="75" y="89"/>
      <point x="152" y="-9"/>
    </contour>
  </outline>
</glyph>
<glyph name="seven" format="1">
  <advance width="553"/>
  <unicode hex="0037"/>
  <outline>
    <contour>
      <point x="151" y="0" type="line"/>
      <point x="233" y="0" type="line"/>
      <point x="472" y="581" type="line"/>
      <point x="472" y="640" type="line"/>
      <point x="75" y="640" type="line"/>
      <point x="83" y="575" type="line"/>
      <point x="387" y="575" type="line"/>
    </contour>
  </outline>
</glyph>
<glyph name="eight" format="1">
  <advance width="553"/>
  <unicode hex="0038"/>
  <outline>
    <contour>
      <point x="277" y="360" type="curve"/>
      <point x="199" y="379"/>
      <point x="158" y="422"/>
      <point x="158" y="490" type="curve" smooth="yes"/>
      <point x="158" y="552"/>
      <point x="206" y="590"/>
      <point x="277" y="590" type="curve" smooth="yes"/>
      <point x="349" y="590"/>
      <point x="395" y="552"/>
      <point x="395" y="490" type="curve" smooth="yes"/>
      <point x="395" y="422"/>
      <point x="356" y="379"/>
    </contour>
    <contour>
      <point x="277" y="53" type="curve" smooth="yes"/>
      <point x="190" y="53"/>
      <point x="143" y="92"/>
      <point x="143" y="167" type="curve" smooth="yes"/>
      <point x="143" y="244"/>
      <point x="201" y="288"/>
      <point x="277" y="306" type="curve"/>
      <point x="353" y="288"/>
      <point x="410" y="243"/>
      <point x="410" y="168" type="curve" smooth="yes"/>
      <point x="410" y="91"/>
      <point x="367" y="53"/>
    </contour>
    <contour>
      <point x="277" y="-9" type="curve" smooth="yes"/>
      <point x="394" y="-9"/>
      <point x="487" y="47"/>
      <point x="487" y="161" type="curve" smooth="yes"/>
      <point x="487" y="245"/>
      <point x="435" y="311"/>
      <point x="357" y="337" type="curve"/>
      <point x="426" y="363"/>
      <point x="473" y="411"/>
      <point x="473" y="490" type="curve" smooth="yes"/>
      <point x="473" y="593"/>
      <point x="391" y="649"/>
      <point x="277" y="649" type="curve" smooth="yes"/>
      <point x="163" y="649"/>
      <point x="79" y="593"/>
      <point x="79" y="490" type="curve" smooth="yes"/>
      <point x="79" y="411"/>
      <point x="130" y="358"/>
      <point x="198" y="336" type="curve"/>
      <point x="115" y="307"/>
      <point x="67" y="251"/>
      <point x="67" y="161" type="curve" smooth="yes"/>
      <point x="67" y="47"/>
      <point x="161" y="-9"/>
    </contour>
  </outline>
</glyph>
<glyph name="nine" format="1">
  <advance width="553"/>
  <unicode hex="0039"/>
  <outline>
    <contour>
      <point x="425" y="447" type="curve" smooth="yes"/>
      <point x="425" y="343"/>
      <point x="343" y="309"/>
      <point x="285" y="309" type="curve" smooth="yes"/>
      <point x="199" y="309"/>
      <point x="156" y="369"/>
      <point x="156" y="446" type="curve" smooth="yes"/>
      <point x="156" y="521"/>
      <point x="206" y="586"/>
      <point x="292" y="586" type="curve" smooth="yes"/>
      <point x="378" y="586"/>
      <point x="425" y="522"/>
    </contour>
    <contour>
      <point x="155" y="0" type="line"/>
      <point x="242" y="0" type="line"/>
      <point x="402" y="206" type="line"/>
      <point x="462" y="283"/>
      <point x="503" y="348"/>
      <point x="503" y="442" type="curve" smooth="yes"/>
      <point x="503" y="551"/>
      <point x="426" y="649"/>
      <point x="291" y="649" type="curve" smooth="yes"/>
      <point x="162" y="649"/>
      <point x="76" y="560"/>
      <point x="76" y="446" type="curve" smooth="yes"/>
      <point x="76" y="327"/>
      <point x="160" y="248"/>
      <point x="264" y="248" type="curve" smooth="yes"/>
      <point x="300" y="248"/>
      <point x="337" y="260"/>
      <point x="368" y="280" type="curve"/>
      <point x="299" y="188"/>
      <point x="226" y="100"/>
      <point x="155" y="10" type="curve"/>
    </contour>
  </outline>
</glyph>
<glyph name="colon" format="1">
  <advance width="288"/>
  <unicode hex="003A"/>
  <outline>
    <contour>
      <point x="143" y="-4" type="curve" smooth="yes"/>
      <point x="180" y="-4"/>
      <point x="197" y="22"/>
      <point x="197" y="51" type="curve" smooth="yes"/>
      <point x="197" y="80"/>
      <point x="180" y="107"/>
      <point x="143" y="107" type="curve" smooth="yes"/>
      <point x="106" y="107"/>
      <point x="88" y="80"/>
      <point x="88" y="51" type="curve" smooth="yes"/>
      <point x="88" y="22"/>
      <point x="106" y="-4"/>
    </contour>
    <contour>
      <point x="143" y="366" type="curve" smooth="yes"/>
      <point x="180" y="366"/>
      <point x="197" y="392"/>
      <point x="197" y="421" type="curve" smooth="yes"/>
      <point x="197" y="450"/>
      <point x="180" y="477"/>
      <point x="143" y="477" type="curve" smooth="yes"/>
      <point x="106" y="477"/>
      <point x="88" y="450"/>
      <point x="88" y="421" type="curve" smooth="yes"/>
      <point x="88" y="392"/>
      <point x="106" y="366"/>
    </contour>
  </outline>
</glyph>
<glyph name="semicolon" format="1">
  <advance width="314"/>
  <unicode hex="003B"/>
  <outline>
    <contour>
      <point x="164" y="365" type="curve" smooth="yes"/>
      <point x="201" y="365"/>
      <point x="218" y="392"/>
      <point x="218" y="421" type="curve" smooth="yes"/>
      <point x="218" y="450"/>
      <point x="201" y="477"/>
      <point x="164" y="477" type="curve" smooth="yes"/>
      <point x="127" y="477"/>
      <point x="109" y="450"/>
      <point x="109" y="421" type="curve" smooth="yes"/>
      <point x="109" y="392"/>
      <point x="127" y="365"/>
    </contour>
    <contour>
      <point x="109" y="-134" type="curve"/>
      <point x="156" y="-134" type="line"/>
      <point x="207" y="65" type="line"/>
      <point x="207" y="105" type="line"/>
      <point x="127" y="105" type="line"/>
      <point x="127" y="102"/>
      <point x="109" y="-134"/>
    </contour>
  </outline>
</glyph>
<glyph name="less" format="1">
  <advance width="486"/>
  <unicode hex="003C"/>
  <outline>
    <contour>
      <point x="444" y="61" type="line"/>
      <point x="444" y="130" type="line"/>
      <point x="122" y="284" type="line"/>
      <point x="444" y="452" type="line"/>
      <point x="444" y="518" type="line"/>
      <point x="34" y="303" type="line"/>
      <point x="34" y="263" type="line"/>
    </contour>
  </outline>
</glyph>
<glyph name="equal" format="1">
  <advance width="469"/>
  <unicode hex="003D"/>
  <outline>
    <contour>
      <point x="59" y="264" type="line"/>
      <point x="59" y="193" type="line"/>
      <point x="440" y="193" type="line"/>
      <point x="440" y="264" type="line"/>
    </contour>
    <contour>
      <point x="59" y="443" type="line"/>
      <point x="59" y="374" type="line"/>
      <point x="440" y="374" type="line"/>
      <point x="440" y="443" type="line"/>
    </contour>
  </outline>
</glyph>
<glyph name="greater" format="1">
  <advance width="486"/>
  <unicode hex="003E"/>
  <outline>
    <contour>
      <point x="41" y="454" type="line"/>
      <point x="359" y="284" type="line"/>
      <point x="40" y="131" type="line"/>
      <point x="40" y="64" type="line"/>
      <point x="450" y="262" type="line"/>
      <point x="450" y="302" type="line"/>
      <point x="41" y="521" type="line"/>
    </contour>
  </outline>
</glyph>
<glyph name="question" format="1">
  <advance width="405"/>
  <unicode hex="003F"/>
  <outline>
    <contour>
      <point x="163" y="-6" type="curve" smooth="yes"/>
      <point x="198" y="-6"/>
      <point x="214" y="18"/>
      <point x="214" y="46" type="curve" smooth="yes"/>
      <point x="214" y="72"/>
      <point x="198" y="97"/>
      <point x="163" y="97" type="curve" smooth="yes"/>
      <point x="127" y="97"/>
      <point x="111" y="72"/>
      <point x="111" y="46" type="curve" smooth="yes"/>
      <point x="111" y="19"/>
      <point x="127" y="-6"/>
    </contour>
    <contour>
      <point x="146" y="189" type="curve"/>
      <point x="182" y="188" type="line"/>
      <point x="230" y="346"/>
      <point x="337" y="367"/>
      <point x="337" y="500" type="curve" smooth="yes"/>
      <point x="337" y="608"/>
      <point x="264" y="652"/>
      <point x="184" y="652" type="curve" smooth="yes"/>
      <point x="129" y="652"/>
      <point x="84" y="634"/>
      <point x="51" y="608" type="curve"/>
      <point x="68" y="548" type="line"/>
      <point x="88" y="562"/>
      <point x="130" y="586"/>
      <point x="175" y="586" type="curve" smooth="yes"/>
      <point x="230" y="586"/>
      <point x="260" y="555"/>
      <point x="260" y="494" type="curve" smooth="yes"/>
      <point x="260" y="400"/>
      <point x="155" y="327"/>
    </contour>
  </outline>
</glyph>
<glyph name="at" format="1">
  <advance width="852"/>
  <unicode hex="0040"/>
  <outline>
    <contour>
      <point x="395" y="148" type="curve" smooth="yes"/>
      <point x="342" y="148"/>
      <point x="320" y="190"/>
      <point x="320" y="255" type="curve" smooth="yes"/>
      <point x="320" y="353"/>
      <point x="376" y="427"/>
      <point x="455" y="427" type="curve" smooth="yes"/>
      <point x="468" y="427"/>
      <point x="496" y="422"/>
      <point x="515" y="418" type="curve"/>
      <point x="496" y="306" type="line"/>
      <point x="482" y="216"/>
      <point x="461" y="148"/>
    </contour>
    <contour>
      <point x="416" y="-86" type="curve" smooth="yes"/>
      <point x="501" y="-86"/>
      <point x="587" y="-64"/>
      <point x="643" y="-25" type="curve"/>
      <point x="624" y="22" type="line"/>
      <point x="565" y="-16"/>
      <point x="490" y="-29"/>
      <point x="417" y="-29" type="curve" smooth="yes"/>
      <point x="234" y="-29"/>
      <point x="132" y="92"/>
      <point x="132" y="268" type="curve" smooth="yes"/>
      <point x="132" y="452"/>
      <point x="252" y="598"/>
      <point x="442" y="598" type="curve" smooth="yes"/>
      <point x="629" y="598"/>
      <point x="721" y="482"/>
      <point x="721" y="335" type="curve" smooth="yes"/>
      <point x="721" y="214"/>
      <point x="666" y="152"/>
      <point x="616" y="152" type="curve" smooth="yes"/>
      <point x="584" y="152"/>
      <point x="560" y="178"/>
      <point x="560" y="214" type="curve" smooth="yes"/>
      <point x="560" y="270"/>
      <point x="576" y="352"/>
      <point x="589" y="443" type="curve"/>
      <point x="551" y="462"/>
      <point x="492" y="476"/>
      <point x="448" y="476" type="curve" smooth="yes"/>
      <point x="322" y="476"/>
      <point x="255" y="363"/>
      <point x="255" y="252" type="curve" smooth="yes"/>
      <point x="255" y="164"/>
      <point x="302" y="94"/>
      <point x="388" y="94" type="curve" smooth="yes"/>
      <point x="449" y="94"/>
      <point x="489" y="142"/>
      <point x="511" y="192" type="curve"/>
      <point x="525" y="134"/>
      <point x="587" y="122"/>
      <point x="616" y="97" type="curve"/>
      <point x="692" y="97"/>
      <point x="781" y="176"/>
      <point x="781" y="331" type="curve" smooth="yes"/>
      <point x="781" y="528"/>
      <point x="636" y="653"/>
      <point x="446" y="653" type="curve" smooth="yes"/>
      <point x="226" y="653"/>
      <point x="65" y="490"/>
      <point x="65" y="270" type="curve" smooth="yes"/>
      <point x="65" y="49"/>
      <point x="209" y="-86"/>
    </contour>
  </outline>
</glyph>
<glyph name="A" format="1">
  <advance width="622"/>
  <unicode hex="0041"/>
  <outline>
    <contour>
      <point x="310" y="640" type="move" name="top"/>
    </contour>
    <contour>
      <point x="311" y="0" type="move" name="bot"/>
    </contour>
    <contour>
      <point x="267" y="640" type="line"/>
      <point x="28" y="0" type="line"/>
      <point x="112" y="0" type="line"/>
      <point x="185" y="199" type="line"/>
      <point x="437" y="199" type="line"/>
      <point x="511" y="0" type="line"/>
      <point x="596" y="0" type="line"/>
      <point x="355" y="640" type="line"/>
    </contour>
    <contour>
      <point x="205" y="258" type="line"/>
      <point x="311" y="557" type="line"/>
      <point x="418" y="258" type="line"/>
    </contour>
  </outline>
</glyph>
<glyph name="B" format="1">
  <advance width="603"/>
  <unicode hex="0042"/>
  <outline>
    <contour>
      <point x="289" y="640" type="move" name="top"/>
    </contour>
    <contour>
      <point x="245" y="-4" type="curve" smooth="yes"/>
      <point x="460" y="-4"/>
      <point x="545" y="53"/>
      <point x="545" y="190" type="curve" smooth="yes"/>
      <point x="545" y="269"/>
      <point x="508" y="325"/>
      <point x="414" y="347" type="curve"/>
      <point x="495" y="373"/>
      <point x="523" y="424"/>
      <point x="523" y="482" type="curve" smooth="yes"/>
      <point x="523" y="552"/>
      <point x="508" y="644"/>
      <point x="274" y="644" type="curve" smooth="yes"/>
      <point x="224" y="644"/>
      <point x="162" y="639"/>
      <point x="89" y="630" type="curve"/>
      <point x="89" y="4" type="line"/>
      <point x="147" y="0"/>
      <point x="199" y="-4"/>
    </contour>
    <contour>
      <point x="175" y="578" type="line"/>
      <point x="214" y="582"/>
      <point x="247" y="583"/>
      <point x="277" y="583" type="curve" smooth="yes"/>
      <point x="404" y="583"/>
      <point x="445" y="548"/>
      <point x="445" y="477" type="curve" smooth="yes"/>
      <point x="445" y="391"/>
      <point x="374" y="374"/>
      <point x="293" y="374" type="curve" smooth="yes"/>
      <point x="175" y="374" type="line"/>
    </contour>
    <contour>
      <point x="175" y="315" type="line"/>
      <point x="289" y="315" type="line" smooth="yes"/>
      <point x="409" y="315"/>
      <point x="461" y="279"/>
      <point x="461" y="187" type="curve" smooth="yes"/>
      <point x="461" y="116"/>
      <point x="446" y="59"/>
      <point x="259" y="59" type="curve" smooth="yes"/>
      <point x="234" y="59"/>
      <point x="206" y="61"/>
      <point x="175" y="63" type="curve"/>
    </contour>
  </outline>
</glyph>
<glyph name="C" format="1">
  <advance width="629"/>
  <unicode hex="0043"/>
  <outline>
    <contour>
      <point x="340" y="640" type="move" name="top"/>
    </contour>
    <contour>
      <point x="347" y="0" type="move" name="bot"/>
    </contour>
    <contour>
      <point x="590" y="482" type="line"/>
      <point x="567" y="594"/>
      <point x="458" y="650"/>
      <point x="352" y="650" type="curve" smooth="yes"/>
      <point x="181" y="650"/>
      <point x="67" y="529"/>
      <point x="67" y="320" type="curve" smooth="yes"/>
      <point x="67" y="111"/>
      <point x="181" y="-9"/>
      <point x="352" y="-9" type="curve" smooth="yes"/>
      <point x="459" y="-9"/>
      <point x="568" y="46"/>
      <point x="591" y="158" type="curve"/>
      <point x="529" y="181" type="line"/>
      <point x="523" y="181" type="line"/>
      <point x="507" y="111"/>
      <point x="437" y="58"/>
      <point x="357" y="58" type="curve" smooth="yes"/>
      <point x="235" y="58"/>
      <point x="154" y="145"/>
      <point x="154" y="320" type="curve" smooth="yes"/>
      <point x="154" y="495"/>
      <point x="234" y="581"/>
      <point x="357" y="581" type="curve" smooth="yes"/>
      <point x="437" y="581"/>
      <point x="505" y="531"/>
      <point x="521" y="460" type="curve"/>
      <point x="527" y="460" type="line"/>
    </contour>
  </outline>
</glyph>
<glyph name="D" format="1">
  <advance width="658"/>
  <unicode hex="0044"/>
  <outline>
    <contour>
      <point x="326" y="640" type="move" name="top"/>
    </contour>
    <contour>
      <point x="342" y="0" type="move" name="bot"/>
    </contour>
    <contour>
      <point x="89" y="4" type="line"/>
      <point x="138" y="-2"/>
      <point x="184" y="-4"/>
      <point x="224" y="-4" type="curve" smooth="yes"/>
      <point x="500" y="-4"/>
      <point x="592" y="131"/>
      <point x="592" y="328" type="curve" smooth="yes"/>
      <point x="592" y="517"/>
      <point x="529" y="643"/>
      <point x="256" y="643" type="curve" smooth="yes"/>
      <point x="207" y="643"/>
      <point x="151" y="638"/>
      <point x="89" y="630" type="curve"/>
    </contour>
    <contour>
      <point x="175" y="59" type="curve"/>
      <point x="175" y="577" type="line"/>
      <point x="207" y="581"/>
      <point x="236" y="582"/>
      <point x="263" y="582" type="curve" smooth="yes"/>
      <point x="463" y="582"/>
      <point x="507" y="483"/>
      <point x="507" y="325" type="curve" smooth="yes"/>
      <point x="507" y="168"/>
      <point x="456" y="56"/>
      <point x="246" y="56" type="curve" smooth="yes"/>
      <point x="224" y="56"/>
      <point x="200" y="56"/>
    </contour>
  </outline>
</glyph>
<glyph name="E" format="1">
  <advance width="575"/>
  <unicode hex="0045"/>
  <outline>
    <contour>
      <point x="324" y="640" type="move" name="top"/>
    </contour>
    <contour>
      <point x="311" y="0" type="move" name="bot"/>
    </contour>
    <contour>
      <point x="89" y="640" type="line"/>
      <point x="89" y="0" type="line"/>
      <point x="512" y="0" type="line"/>
      <point x="518" y="65" type="line"/>
      <point x="175" y="65" type="line"/>
      <point x="175" y="299" type="line"/>
      <point x="482" y="299" type="line"/>
      <point x="482" y="364" type="line"/>
      <point x="175" y="364" type="line"/>
      <point x="175" y="576" type="line"/>
      <point x="508" y="576" type="line"/>
      <point x="510" y="640" type="line"/>
    </contour>
  </outline>
</glyph>
<glyph name="F" format="1">
  <advance width="528"/>
  <unicode hex="0046"/>
  <outline>
    <contour>
      <point x="324" y="640" type="move" name="top"/>
    </contour>
    <contour>
      <point x="89" y="640" type="line"/>
      <point x="89" y="0" type="line"/>
      <point x="175" y="0" type="line"/>
      <point x="175" y="290" type="line"/>
      <point x="461" y="290" type="line"/>
      <point x="461" y="352" type="line"/>
      <point x="175" y="352" type="line"/>
      <point x="175" y="574" type="line"/>
      <point x="509" y="574" type="line"/>
      <point x="514" y="640" type="line"/>
    </contour>
  </outline>
</glyph>
<glyph name="G" format="1">
  <advance width="648"/>
  <unicode hex="0047"/>
  <outline>
    <contour>
      <point x="351" y="640" type="move" name="top"/>
    </contour>
    <contour>
      <point x="354" y="0" type="move" name="bot"/>
    </contour>
    <contour>
      <point x="361" y="-9" type="curve" smooth="yes"/>
      <point x="449" y="-9"/>
      <point x="520" y="6"/>
      <point x="585" y="32" type="curve"/>
      <point x="585" y="338" type="line"/>
      <point x="368" y="338" type="line"/>
      <point x="364" y="281" type="line"/>
      <point x="508" y="272" type="line"/>
      <point x="508" y="76" type="line"/>
      <point x="477" y="67"/>
      <point x="434" y="58"/>
      <point x="376" y="58" type="curve" smooth="yes"/>
      <point x="214" y="58"/>
      <point x="154" y="161"/>
      <point x="154" y="324" type="curve" smooth="yes"/>
      <point x="154" y="479"/>
      <point x="229" y="581"/>
      <point x="375" y="581" type="curve" smooth="yes"/>
      <point x="455" y="581"/>
      <point x="509" y="548"/>
      <point x="537" y="517" type="curve"/>
      <point x="544" y="517" type="line"/>
      <point x="587" y="563" type="line"/>
      <point x="549" y="612"/>
      <point x="471" y="649"/>
      <point x="373" y="649" type="curve" smooth="yes"/>
      <point x="180" y="649"/>
      <point x="67" y="522"/>
      <point x="67" y="323" type="curve" smooth="yes"/>
      <point x="67" y="126"/>
      <point x="164" y="-9"/>
    </contour>
  </outline>
</glyph>
<glyph name="H" format="1">
  <advance width="676"/>
  <unicode hex="0048"/>
  <outline>
    <contour>
      <point x="345" y="640" type="move" name="top"/>
    </contour>
    <contour>
      <point x="501" y="296" type="line"/>
      <point x="501" y="0" type="line"/>
      <point x="587" y="0" type="line"/>
      <point x="587" y="640" type="line"/>
      <point x="501" y="640" type="line"/>
      <point x="501" y="363" type="line"/>
      <point x="176" y="363" type="line"/>
      <point x="176" y="640" type="line"/>
      <point x="91" y="640" type="line"/>
      <point x="91" y="0" type="line"/>
      <point x="176" y="0" type="line"/>
      <point x="176" y="296" type="line"/>
    </contour>
  </outline>
</glyph>
<glyph name="I" format="1">
  <advance width="427"/>
  <unicode hex="0049"/>
  <outline>
    <contour>
      <point x="212" y="640" type="move" name="top"/>
    </contour>
    <contour>
      <point x="84" y="640" type="line"/>
      <point x="84" y="588" type="line"/>
      <point x="169" y="588" type="line"/>
      <point x="169" y="52" type="line"/>
      <point x="84" y="52" type="line"/>
      <point x="84" y="0" type="line"/>
      <point x="339" y="0" type="line"/>
      <point x="339" y="52" type="line"/>
      <point x="255" y="52" type="line"/>
      <point x="255" y="588" type="line"/>
      <point x="339" y="588" type="line"/>
      <point x="339" y="640" type="line"/>
    </contour>
  </outline>
</glyph>
<glyph name="J" format="1">
  <advance width="350"/>
  <unicode hex="004A"/>
  <outline>
    <contour>
      <point x="208" y="640" type="move" name="top"/>
    </contour>
    <contour>
      <point x="163" y="640" type="line"/>
      <point x="163" y="14" type="line" smooth="yes"/>
      <point x="163" y="-63"/>
      <point x="160" y="-75"/>
      <point x="114" y="-94" type="curve" smooth="yes"/>
      <point x="60" y="-117" type="line"/>
      <point x="86" y="-181" type="line"/>
      <point x="126" y="-167" type="line"/>
      <point x="229" y="-129"/>
      <point x="248" y="-107"/>
      <point x="248" y="13" type="curve" smooth="yes"/>
      <point x="248" y="640" type="line"/>
    </contour>
  </outline>
</glyph>
<glyph name="K" format="1">
  <advance width="579"/>
  <unicode hex="004B"/>
  <outline>
    <contour>
      <point x="302" y="640" type="move" name="top"/>
    </contour>
    <contour>
      <point x="304" y="0" type="move" name="bot"/>
    </contour>
    <contour>
      <point x="569" y="640" type="line"/>
      <point x="475" y="640" type="line"/>
      <point x="175" y="335" type="line"/>
      <point x="175" y="640" type="line"/>
      <point x="89" y="640" type="line"/>
      <point x="89" y="0" type="line"/>
      <point x="175" y="0" type="line"/>
      <point x="175" y="254" type="line"/>
      <point x="244" y="321" type="line"/>
      <point x="490" y="0" type="line"/>
      <point x="585" y="0" type="line"/>
      <point x="585" y="8" type="line"/>
      <point x="307" y="368" type="line"/>
      <point x="569" y="631" type="line"/>
    </contour>
  </outline>
</glyph>
<glyph name="L" format="1">
  <advance width="484"/>
  <unicode hex="004C"/>
  <outline>
    <contour>
      <point x="194" y="640" type="move" name="top"/>
    </contour>
    <contour>
      <point x="279" y="0" type="move" name="bot"/>
    </contour>
    <contour>
      <point x="89" y="640" type="line"/>
      <point x="89" y="0" type="line"/>
      <point x="482" y="0" type="line"/>
      <point x="484" y="64" type="line"/>
      <point x="175" y="64" type="line"/>
      <point x="175" y="640" type="line"/>
    </contour>
  </outline>
</glyph>
<glyph name="M" format="1">
  <advance width="797"/>
  <unicode hex="004D"/>
  <outline>
    <contour>
      <point x="405" y="640" type="move" name="top"/>
    </contour>
    <contour>
      <point x="80" y="0" type="line"/>
      <point x="161" y="0" type="line"/>
      <point x="161" y="211" type="line"/>
      <point x="165" y="528" type="line"/>
      <point x="364" y="76" type="line"/>
      <point x="433" y="76" type="line"/>
      <point x="634" y="525" type="line"/>
      <point x="637" y="212" type="line"/>
      <point x="637" y="0" type="line"/>
      <point x="717" y="0" type="line"/>
      <point x="717" y="213" type="line"/>
      <point x="706" y="640" type="line"/>
      <point x="608" y="640" type="line"/>
      <point x="400" y="174" type="line"/>
      <point x="193" y="640" type="line"/>
      <point x="91" y="640" type="line"/>
      <point x="80" y="213" type="line"/>
    </contour>
  </outline>
</glyph>
<glyph name="N" format="1">
  <advance width="669"/>
  <unicode hex="004E"/>
  <outline>
    <contour>
      <point x="346" y="640" type="move" name="top"/>
    </contour>
    <contour>
      <point x="340" y="0" type="move" name="bot"/>
    </contour>
    <contour>
      <point x="504" y="640" type="line"/>
      <point x="504" y="293" type="line"/>
      <point x="508" y="110" type="line"/>
      <point x="175" y="640" type="line"/>
      <point x="89" y="640" type="line"/>
      <point x="89" y="0" type="line"/>
      <point x="167" y="0" type="line"/>
      <point x="167" y="325" type="line"/>
      <point x="160" y="525" type="line"/>
      <point x="491" y="0" type="line"/>
      <point x="580" y="0" type="line"/>
      <point x="580" y="640" type="line"/>
    </contour>
  </outline>
</glyph>
<glyph name="O" format="1">
  <advance width="711"/>
  <unicode hex="004F"/>
  <outline>
    <contour>
      <point x="357" y="640" type="move" name="top"/>
    </contour>
    <contour>
      <point x="557" y="317" type="curve" smooth="yes"/>
      <point x="557" y="163"/>
      <point x="504" y="58"/>
      <point x="356" y="58" type="curve" smooth="yes"/>
      <point x="208" y="58"/>
      <point x="156" y="163"/>
      <point x="156" y="317" type="curve" smooth="yes"/>
      <point x="156" y="477"/>
      <point x="213" y="581"/>
      <point x="357" y="581" type="curve" smooth="yes"/>
      <point x="501" y="581"/>
      <point x="557" y="476"/>
    </contour>
    <contour>
      <point x="68" y="317" type="curve" smooth="yes"/>
      <point x="68" y="117"/>
      <point x="160" y="-9"/>
      <point x="357" y="-9" type="curve" smooth="yes"/>
      <point x="551" y="-9"/>
      <point x="644" y="120"/>
      <point x="644" y="316" type="curve" smooth="yes"/>
      <point x="644" y="520"/>
      <point x="546" y="649"/>
      <point x="357" y="649" type="curve" smooth="yes"/>
      <point x="163" y="649"/>
      <point x="68" y="521"/>
    </contour>
  </outline>
</glyph>
<glyph name="P" format="1">
  <advance width="574"/>
  <unicode hex="0050"/>
  <outline>
    <contour>
      <point x="304" y="640" type="move" name="top"/>
    </contour>
    <contour>
      <point x="89" y="630" type="curve"/>
      <point x="89" y="0" type="line"/>
      <point x="175" y="0" type="line"/>
      <point x="175" y="280" type="line"/>
      <point x="209" y="277"/>
      <point x="240" y="275"/>
      <point x="268" y="275" type="curve" smooth="yes"/>
      <point x="484" y="275"/>
      <point x="533" y="356"/>
      <point x="533" y="467" type="curve" smooth="yes"/>
      <point x="533" y="584"/>
      <point x="468" y="643"/>
      <point x="274" y="643" type="curve" smooth="yes"/>
      <point x="222" y="643"/>
      <point x="161" y="638"/>
    </contour>
    <contour>
      <point x="175" y="340" type="curve"/>
      <point x="175" y="577" type="line"/>
      <point x="215" y="581"/>
      <point x="250" y="582"/>
      <point x="280" y="582" type="curve" smooth="yes"/>
      <point x="424" y="582"/>
      <point x="454" y="540"/>
      <point x="454" y="465" type="curve" smooth="yes"/>
      <point x="454" y="385"/>
      <point x="426" y="336"/>
      <point x="268" y="336" type="curve" smooth="yes"/>
      <point x="241" y="336"/>
      <point x="211" y="337"/>
    </contour>
  </outline>
</glyph>
<glyph name="Q" format="1">
  <advance width="701"/>
  <unicode hex="0051"/>
  <outline>
    <component base="O"/>
    <contour>
      <point x="362" y="17" type="line"/>
      <point x="363" y="13"/>
      <point x="506" y="-189"/>
      <point x="512" y="-194" type="curve"/>
      <point x="567" y="-154" type="line"/>
      <point x="561" y="-149"/>
      <point x="439" y="24"/>
      <point x="435" y="29" type="curve"/>
    </contour>
  </outline>
</glyph>
<glyph name="R" format="1">
  <advance width="594"/>
  <unicode hex="0052"/>
  <outline>
    <contour>
      <point x="313" y="640" type="move" name="top"/>
    </contour>
    <contour>
      <point x="317" y="0" type="move" name="bot"/>
    </contour>
    <contour>
      <point x="545" y="471" type="curve" smooth="yes"/>
      <point x="545" y="593"/>
      <point x="477" y="644"/>
      <point x="292" y="644" type="curve" smooth="yes"/>
      <point x="236" y="644"/>
      <point x="170" y="639"/>
      <point x="91" y="630" type="curve"/>
      <point x="91" y="0" type="line"/>
      <point x="176" y="0" type="line"/>
      <point x="176" y="291" type="line"/>
      <point x="323" y="292" type="line"/>
      <point x="471" y="0" type="line"/>
      <point x="562" y="0" type="line"/>
      <point x="562" y="9" type="line"/>
      <point x="409" y="301" type="line"/>
      <point x="495" y="323"/>
      <point x="545" y="375"/>
    </contour>
    <contour>
      <point x="292" y="582" type="curve" smooth="yes"/>
      <point x="436" y="582"/>
      <point x="467" y="545"/>
      <point x="467" y="469" type="curve" smooth="yes"/>
      <point x="467" y="384"/>
      <point x="432" y="350"/>
      <point x="288" y="350" type="curve" smooth="yes"/>
      <point x="176" y="350" type="line"/>
      <point x="176" y="577" type="line"/>
      <point x="221" y="581"/>
      <point x="260" y="582"/>
    </contour>
  </outline>
</glyph>
<glyph name="S" format="1">
  <advance width="536"/>
  <unicode hex="0053"/>
  <outline>
    <contour>
      <point x="273" y="648" type="move" name="top"/>
    </contour>
    <contour>
      <point x="274" y="0" type="move" name="bot"/>
    </contour>
    <contour>
      <point x="403" y="169" type="curve" smooth="yes"/>
      <point x="403" y="89"/>
      <point x="342" y="58"/>
      <point x="263" y="58" type="curve" smooth="yes"/>
      <point x="205" y="58"/>
      <point x="143" y="81"/>
      <point x="102" y="121" type="curve"/>
      <point x="96" y="121" type="line"/>
      <point x="50" y="75" type="line"/>
      <point x="86" y="31"/>
      <point x="161" y="-9"/>
      <point x="263" y="-9" type="curve" smooth="yes"/>
      <point x="370" y="-9"/>
      <point x="484" y="35"/>
      <point x="484" y="168" type="curve" smooth="yes"/>
      <point x="484" y="281"/>
      <point x="423" y="315"/>
      <point x="319" y="356" type="curve"/>
      <point x="229" y="392" type="line"/>
      <point x="159" y="421"/>
      <point x="137" y="436"/>
      <point x="137" y="486" type="curve" smooth="yes"/>
      <point x="137" y="560"/>
      <point x="197" y="581"/>
      <point x="269" y="581" type="curve" smooth="yes"/>
      <point x="334" y="581"/>
      <point x="390" y="560"/>
      <point x="423" y="521" type="curve"/>
      <point x="429" y="521" type="line"/>
      <point x="475" y="566" type="line"/>
      <point x="431" y="617"/>
      <point x="358" y="649"/>
      <point x="273" y="649" type="curve" smooth="yes"/>
      <point x="159" y="649"/>
      <point x="51" y="612"/>
      <point x="51" y="476" type="curve" smooth="yes"/>
      <point x="51" y="386"/>
      <point x="102" y="358"/>
      <point x="191" y="322" type="curve" smooth="yes"/>
      <point x="281" y="285" type="line" smooth="yes"/>
      <point x="375" y="246"/>
      <point x="403" y="229"/>
    </contour>
  </outline>
</glyph>
<glyph name="T" format="1">
  <advance width="504"/>
  <unicode hex="0054"/>
  <outline>
    <contour>
      <point x="254" y="640" type="move" name="top"/>
    </contour>
    <contour>
      <point x="255" y="0" type="move" name="bot"/>
    </contour>
    <contour>
      <point x="3" y="640" type="line"/>
      <point x="3" y="576" type="line"/>
      <point x="209" y="576" type="line"/>
      <point x="209" y="0" type="line"/>
      <point x="295" y="0" type="line"/>
      <point x="295" y="576" type="line"/>
      <point x="502" y="576" type="line"/>
      <point x="502" y="640" type="line"/>
    </contour>
  </outline>
</glyph>
<glyph name="U" format="1">
  <advance width="639"/>
  <unicode hex="0055"/>
  <outline>
    <contour>
      <point x="323" y="640" type="move" name="top"/>
    </contour>
    <contour>
      <point x="318" y="0" type="move" name="bot"/>
    </contour>
    <contour>
      <point x="477" y="640" type="line"/>
      <point x="477" y="240" type="line" smooth="yes"/>
      <point x="477" y="121"/>
      <point x="431" y="59"/>
      <point x="319" y="59" type="curve" smooth="yes"/>
      <point x="204" y="59"/>
      <point x="160" y="121"/>
      <point x="160" y="240" type="curve" smooth="yes"/>
      <point x="160" y="640" type="line"/>
      <point x="75" y="640" type="line"/>
      <point x="75" y="238" type="line" smooth="yes"/>
      <point x="75" y="91"/>
      <point x="148" y="-9"/>
      <point x="319" y="-9" type="curve" smooth="yes"/>
      <point x="488" y="-9"/>
      <point x="562" y="94"/>
      <point x="562" y="237" type="curve" smooth="yes"/>
      <point x="562" y="640" type="line"/>
    </contour>
  </outline>
</glyph>
<glyph name="V" format="1">
  <advance width="633"/>
  <unicode hex="0056"/>
  <outline>
    <contour>
      <point x="274" y="0" type="line"/>
      <point x="353" y="0" type="line"/>
      <point x="600" y="640" type="line"/>
      <point x="508" y="640" type="line"/>
      <point x="443" y="459"/>
      <point x="377" y="280"/>
      <point x="314" y="97" type="curve"/>
      <point x="252" y="281"/>
      <point x="186" y="459"/>
      <point x="121" y="640" type="curve"/>
      <point x="34" y="640" type="line"/>
    </contour>
  </outline>
</glyph>
<glyph name="W" format="1">
  <advance width="869"/>
  <unicode hex="0057"/>
  <outline>
    <contour>
      <point x="440" y="640" type="move" name="top"/>
    </contour>
    <contour>
      <point x="437" y="0" type="move" name="bot"/>
    </contour>
    <contour>
      <point x="439" y="524" type="line"/>
      <point x="588" y="0" type="line"/>
      <point x="670" y="0" type="line"/>
      <point x="836" y="640" type="line"/>
      <point x="753" y="640" type="line"/>
      <point x="627" y="108" type="line"/>
      <point x="479" y="627" type="line"/>
      <point x="399" y="627" type="line"/>
      <point x="248" y="113" type="line"/>
      <point x="111" y="640" type="line"/>
      <point x="34" y="640" type="line"/>
      <point x="204" y="0" type="line"/>
      <point x="284" y="0" type="line"/>
    </contour>
  </outline>
</glyph>
<glyph name="X" format="1">
  <advance width="567"/>
  <unicode hex="0058"/>
  <outline>
    <contour>
      <point x="329" y="320" type="line"/>
      <point x="540" y="640" type="line"/>
      <point x="448" y="640" type="line"/>
      <point x="285" y="388" type="line"/>
      <point x="117" y="640" type="line"/>
      <point x="22" y="640" type="line"/>
      <point x="232" y="324" type="line"/>
      <point x="20" y="0" type="line"/>
      <point x="108" y="0" type="line"/>
      <point x="278" y="256" type="line"/>
      <point x="447" y="0" type="line"/>
      <point x="544" y="0" type="line"/>
    </contour>
  </outline>
</glyph>
<glyph name="Y" format="1">
  <advance width="599"/>
  <unicode hex="0059"/>
  <outline>
    <contour>
      <point x="300" y="640" type="move" name="top"/>
    </contour>
    <contour>
      <point x="343" y="226" type="line"/>
      <point x="566" y="640" type="line"/>
      <point x="481" y="640" type="line"/>
      <point x="300" y="301" type="line"/>
      <point x="114" y="640" type="line"/>
      <point x="33" y="640" type="line"/>
      <point x="258" y="227" type="line"/>
      <point x="258" y="0" type="line"/>
      <point x="343" y="0" type="line"/>
    </contour>
  </outline>
</glyph>
<glyph name="Z" format="1">
  <advance width="522"/>
  <unicode hex="005A"/>
  <outline>
    <contour>
      <point x="292" y="640" type="move" name="top"/>
    </contour>
    <contour>
      <point x="285" y="0" type="move" name="bot"/>
    </contour>
    <contour>
      <point x="40" y="0" type="line"/>
      <point x="494" y="0" type="line"/>
      <point x="497" y="64" type="line"/>
      <point x="138" y="64" type="line"/>
      <point x="493" y="581" type="line"/>
      <point x="490" y="640" type="line"/>
      <point x="54" y="640" type="line"/>
      <point x="55" y="576" type="line"/>
      <point x="398" y="576" type="line"/>
      <point x="40" y="58" type="line"/>
    </contour>
  </outline>
</glyph>
<glyph name="bracketleft" format="1">
  <advance width="360"/>
  <unicode hex="005B"/>
  <outline>
    <contour>
      <point x="95" y="-112" type="line"/>
      <point x="299" y="-112" type="line"/>
      <point x="299" y="-56" type="line"/>
      <point x="176" y="-56" type="line"/>
      <point x="176" y="592" type="line"/>
      <point x="299" y="592" type="line"/>
      <point x="299" y="649" type="line"/>
      <point x="95" y="649" type="line"/>
    </contour>
  </outline>
</glyph>
<glyph name="backslash" format="1">
  <advance width="411"/>
  <unicode hex="005C"/>
  <outline>
    <contour>
      <point x="294" y="-7" type="line"/>
      <point x="360" y="-7" type="line"/>
      <point x="111" y="686" type="line"/>
      <point x="44" y="686" type="line"/>
    </contour>
  </outline>
</glyph>
<glyph name="bracketright" format="1">
  <advance width="423"/>
  <unicode hex="005D"/>
  <outline>
    <contour>
      <point x="127" y="-112" type="line"/>
      <point x="329" y="-112" type="line"/>
      <point x="329" y="649" type="line"/>
      <point x="127" y="649" type="line"/>
      <point x="127" y="592" type="line"/>
      <point x="249" y="592" type="line"/>
      <point x="249" y="-56" type="line"/>
      <point x="127" y="-56" type="line"/>
    </contour>
  </outline>
</glyph>
<glyph name="asciicircum" format="1">
  <advance width="568"/>
  <unicode hex="005E"/>
  <outline>
    <contour>
      <point x="266" y="640" type="line"/>
      <point x="40" y="130" type="line"/>
      <point x="119" y="130" type="line"/>
      <point x="284" y="514" type="line"/>
      <point x="450" y="130" type="line"/>
      <point x="529" y="130" type="line"/>
      <point x="302" y="640" type="line"/>
    </contour>
  </outline>
</glyph>
<glyph name="underscore" format="1">
  <advance width="397"/>
  <unicode hex="005F"/>
  <outline>
    <contour>
      <point x="0" y="-121" type="line"/>
      <point x="420" y="-121" type="line"/>
      <point x="420" y="-61" type="line"/>
      <point x="0" y="-61" type="line"/>
    </contour>
  </outline>
</glyph>
<glyph name="grave" format="1">
  <advance width="407"/>
  <unicode hex="0060"/>
  <outline>
    <contour>
      <point x="208" y="469" type="move" name="_top"/>
    </contour>
    <contour>
      <point x="178" y="531" type="line"/>
      <point x="230" y="531" type="line"/>
      <point x="145" y="697" type="line"/>
      <point x="42" y="697" type="line"/>
    </contour>
  </outline>
</glyph>
<glyph name="a" format="1">
  <advance width="491"/>
  <unicode hex="0061"/>
  <outline>
    <contour>
      <point x="247" y="476" type="move" name="top"/>
    </contour>
    <contour>
      <point x="219" y="0" type="move" name="bot"/>
    </contour>
    <contour>
      <point x="215" y="48" type="curve" smooth="yes"/>
      <point x="165" y="48"/>
      <point x="126" y="70"/>
      <point x="126" y="129" type="curve" smooth="yes"/>
      <point x="126" y="184"/>
      <point x="157" y="212"/>
      <point x="254" y="212" type="curve" smooth="yes"/>
      <point x="346" y="211" type="line"/>
      <point x="346" y="112" type="line"/>
      <point x="316" y="74"/>
      <point x="271" y="48"/>
    </contour>
    <contour>
      <point x="50" y="130" type="curve" smooth="yes"/>
      <point x="50" y="37"/>
      <point x="112" y="-9"/>
      <point x="203" y="-9" type="curve" smooth="yes"/>
      <point x="268" y="-9"/>
      <point x="316" y="13"/>
      <point x="354" y="58" type="curve"/>
      <point x="359" y="0" type="line"/>
      <point x="426" y="0" type="line"/>
      <point x="426" y="310" type="line" smooth="yes"/>
      <point x="426" y="439"/>
      <point x="351" y="486"/>
      <point x="244" y="486" type="curve" smooth="yes"/>
      <point x="181" y="486"/>
      <point x="115" y="472"/>
      <point x="67" y="441" type="curve"/>
      <point x="90" y="381" type="line"/>
      <point x="135" y="412"/>
      <point x="197" y="426"/>
      <point x="242" y="426" type="curve" smooth="yes"/>
      <point x="311" y="426"/>
      <point x="346" y="393"/>
      <point x="346" y="317" type="curve" smooth="yes"/>
      <point x="346" y="262" type="line"/>
      <point x="244" y="263" type="line"/>
      <point x="239" y="263" type="line" smooth="yes"/>
      <point x="108" y="263"/>
      <point x="50" y="215"/>
    </contour>
  </outline>
</glyph>
<glyph name="b" format="1">
  <advance width="535"/>
  <unicode hex="0062"/>
  <outline>
    <contour>
      <point x="292" y="475" type="move" name="top"/>
    </contour>
    <contour>
      <point x="277" y="50" type="curve" smooth="yes"/>
      <point x="225" y="50"/>
      <point x="179" y="70"/>
      <point x="150" y="110" type="curve"/>
      <point x="150" y="246" type="line" smooth="yes"/>
      <point x="150" y="356"/>
      <point x="191" y="427"/>
      <point x="285" y="427" type="curve" smooth="yes"/>
      <point x="374" y="427"/>
      <point x="402" y="348"/>
      <point x="402" y="238" type="curve" smooth="yes"/>
      <point x="402" y="123"/>
      <point x="364" y="50"/>
    </contour>
    <contour>
      <point x="297" y="486" type="curve" smooth="yes"/>
      <point x="242" y="486"/>
      <point x="182" y="466"/>
      <point x="150" y="388" type="curve"/>
      <point x="154" y="488" type="line"/>
      <point x="154" y="686" type="line"/>
      <point x="74" y="677" type="line"/>
      <point x="74" y="0" type="line"/>
      <point x="139" y="0" type="line"/>
      <point x="144" y="50" type="line"/>
      <point x="173" y="16"/>
      <point x="220" y="-9"/>
      <point x="282" y="-9" type="curve" smooth="yes"/>
      <point x="412" y="-9"/>
      <point x="484" y="90"/>
      <point x="484" y="238" type="curve" smooth="yes"/>
      <point x="484" y="382"/>
      <point x="427" y="486"/>
    </contour>
  </outline>
</glyph>
<glyph name="c" format="1">
  <advance width="478"/>
  <unicode hex="0063"/>
  <outline>
    <contour>
      <point x="274" y="476" type="move" name="top"/>
    </contour>
    <contour>
      <point x="266" y="0" type="move" name="bot"/>
    </contour>
    <contour>
      <point x="383" y="120" type="line"/>
      <point x="361" y="80"/>
      <point x="331" y="51"/>
      <point x="272" y="51" type="curve" smooth="yes"/>
      <point x="271" y="51" type="line" smooth="yes"/>
      <point x="180" y="51"/>
      <point x="134" y="121"/>
      <point x="134" y="238" type="curve" smooth="yes"/>
      <point x="134" y="356"/>
      <point x="181" y="426"/>
      <point x="272" y="426" type="curve" smooth="yes"/>
      <point x="331" y="426"/>
      <point x="362" y="396"/>
      <point x="384" y="356" type="curve"/>
      <point x="390" y="356" type="line"/>
      <point x="439" y="385" type="line"/>
      <point x="418" y="434"/>
      <point x="372" y="486"/>
      <point x="268" y="486" type="curve" smooth="yes"/>
      <point x="136" y="486"/>
      <point x="52" y="389"/>
      <point x="52" y="238" type="curve" smooth="yes"/>
      <point x="52" y="87"/>
      <point x="136" y="-9"/>
      <point x="268" y="-9" type="curve" smooth="yes"/>
      <point x="372" y="-9"/>
      <point x="419" y="44"/>
      <point x="439" y="93" type="curve"/>
      <point x="390" y="120" type="line"/>
    </contour>
  </outline>
</glyph>
<glyph name="d" format="1">
  <advance width="540"/>
  <unicode hex="0064"/>
  <outline>
    <contour>
      <point x="237" y="475" type="move" name="top"/>
    </contour>
    <contour>
      <point x="501" y="527" type="move" name="caron.alt"/>
    </contour>
    <contour>
      <point x="265" y="50" type="curve" smooth="yes"/>
      <point x="176" y="50"/>
      <point x="134" y="120"/>
      <point x="134" y="240" type="curve" smooth="yes"/>
      <point x="134" y="357"/>
      <point x="178" y="427"/>
      <point x="265" y="427" type="curve" smooth="yes"/>
      <point x="316" y="427"/>
      <point x="361" y="408"/>
      <point x="385" y="372" type="curve"/>
      <point x="385" y="101" type="line"/>
      <point x="357" y="67"/>
      <point x="315" y="50"/>
    </contour>
    <contour>
      <point x="256" y="-9" type="curve" smooth="yes"/>
      <point x="304" y="-9"/>
      <point x="357" y="12"/>
      <point x="392" y="52" type="curve"/>
      <point x="396" y="0" type="line"/>
      <point x="465" y="0" type="line"/>
      <point x="465" y="686" type="line"/>
      <point x="382" y="677" type="line"/>
      <point x="382" y="507" type="line"/>
      <point x="385" y="436" type="line"/>
      <point x="358" y="465"/>
      <point x="318" y="485"/>
      <point x="263" y="485" type="curve" smooth="yes"/>
      <point x="259" y="485" type="line"/>
      <point x="256" y="485" type="line" smooth="yes"/>
      <point x="128" y="485"/>
      <point x="52" y="387"/>
      <point x="52" y="239" type="curve" smooth="yes"/>
      <point x="52" y="92"/>
      <point x="123" y="-9"/>
    </contour>
  </outline>
</glyph>
<glyph name="e" format="1">
  <advance width="502"/>
  <unicode hex="0065"/>
  <outline>
    <contour>
      <point x="274" y="475" type="move" name="top"/>
    </contour>
    <contour>
      <point x="277" y="0" type="move" name="bot"/>
    </contour>
    <contour>
      <point x="136" y="275" type="line"/>
      <point x="144" y="369"/>
      <point x="198" y="427"/>
      <point x="274" y="427" type="curve" smooth="yes"/>
      <point x="350" y="427"/>
      <point x="387" y="370"/>
      <point x="388" y="275" type="curve"/>
    </contour>
    <contour>
      <point x="452" y="224" type="line"/>
      <point x="452" y="225"/>
      <point x="456" y="259"/>
      <point x="456" y="273" type="curve" smooth="yes"/>
      <point x="456" y="404"/>
      <point x="387" y="486"/>
      <point x="271" y="486" type="curve" smooth="yes"/>
      <point x="151" y="486"/>
      <point x="53" y="395"/>
      <point x="53" y="237" type="curve" smooth="yes"/>
      <point x="53" y="85"/>
      <point x="152" y="-9"/>
      <point x="281" y="-9" type="curve" smooth="yes"/>
      <point x="348" y="-9"/>
      <point x="404" y="11"/>
      <point x="443" y="38" type="curve"/>
      <point x="425" y="91" type="line"/>
      <point x="418" y="91" type="line"/>
      <point x="379" y="69"/>
      <point x="346" y="50"/>
      <point x="291" y="50" type="curve" smooth="yes"/>
      <point x="205" y="50"/>
      <point x="141" y="102"/>
      <point x="134" y="224" type="curve"/>
    </contour>
  </outline>
</glyph>
<glyph name="f" format="1">
  <advance width="333"/>
  <unicode hex="0066"/>
  <outline>
    <contour>
      <point x="171" y="640" type="move" name="top"/>
    </contour>
    <contour>
      <point x="193" y="475" type="line"/>
      <point x="193" y="510" type="line" smooth="yes"/>
      <point x="193" y="589"/>
      <point x="208" y="608"/>
      <point x="270" y="608" type="curve" smooth="yes"/>
      <point x="285" y="608"/>
      <point x="313" y="605"/>
      <point x="316" y="605" type="curve"/>
      <point x="321" y="659" type="line"/>
      <point x="320" y="659"/>
      <point x="291" y="667"/>
      <point x="255" y="667" type="curve" smooth="yes"/>
      <point x="248" y="667" type="line" smooth="yes"/>
      <point x="162" y="667"/>
      <point x="112" y="640"/>
      <point x="112" y="510" type="curve" smooth="yes"/>
      <point x="112" y="474" type="line"/>
      <point x="32" y="468" type="line"/>
      <point x="30" y="427" type="line"/>
      <point x="112" y="427" type="line"/>
      <point x="112" y="0" type="line"/>
      <point x="193" y="0" type="line"/>
      <point x="193" y="427" type="line"/>
      <point x="313" y="427" type="line"/>
      <point x="313" y="475" type="line"/>
    </contour>
  </outline>
</glyph>
<glyph name="g" format="1">
  <advance width="529"/>
  <unicode hex="0067"/>
  <outline>
    <contour>
      <point x="265" y="475" type="move" name="top"/>
    </contour>
    <contour>
      <point x="263" y="50" type="curve" smooth="yes"/>
      <point x="173" y="50"/>
      <point x="131" y="121"/>
      <point x="131" y="240" type="curve" smooth="yes"/>
      <point x="131" y="356"/>
      <point x="176" y="427"/>
      <point x="262" y="427" type="curve" smooth="yes"/>
      <point x="313" y="427"/>
      <point x="353" y="407"/>
      <point x="382" y="367" type="curve"/>
      <point x="382" y="102" type="line"/>
      <point x="357" y="68"/>
      <point x="313" y="50"/>
    </contour>
    <contour>
      <point x="256" y="-8" type="curve" smooth="yes"/>
      <point x="298" y="-8"/>
      <point x="348" y="2"/>
      <point x="384" y="40" type="curve"/>
      <point x="384" y="4" type="line"/>
      <point x="384" y="2" type="line" smooth="yes"/>
      <point x="384" y="-115"/>
      <point x="334" y="-151"/>
      <point x="245" y="-151" type="curve" smooth="yes"/>
      <point x="205" y="-151"/>
      <point x="155" y="-142"/>
      <point x="118" y="-127" type="curve"/>
      <point x="108" y="-127" type="line"/>
      <point x="101" y="-189" type="line"/>
      <point x="139" y="-203"/>
      <point x="192" y="-214"/>
      <point x="246" y="-214" type="curve" smooth="yes"/>
      <point x="401" y="-214"/>
      <point x="460" y="-137"/>
      <point x="460" y="22" type="curve" smooth="yes"/>
      <point x="460" y="475" type="line"/>
      <point x="392" y="475" type="line"/>
      <point x="388" y="428" type="line"/>
      <point x="361" y="461"/>
      <point x="317" y="486"/>
      <point x="257" y="486" type="curve" smooth="yes"/>
      <point x="130" y="486"/>
      <point x="50" y="390"/>
      <point x="50" y="240" type="curve" smooth="yes"/>
      <point x="50" y="87"/>
      <point x="126" y="-8"/>
    </contour>
  </outline>
</glyph>
<glyph name="h" format="1">
  <advance width="533"/>
  <unicode hex="0068"/>
  <outline>
    <contour>
      <point x="292" y="614" type="move" name="top"/>
    </contour>
    <contour>
      <point x="74" y="0" type="line"/>
      <point x="153" y="0" type="line"/>
      <point x="153" y="262" type="line" smooth="yes"/>
      <point x="153" y="345"/>
      <point x="187" y="427"/>
      <point x="292" y="427" type="curve" smooth="yes"/>
      <point x="360" y="427"/>
      <point x="385" y="382"/>
      <point x="385" y="291" type="curve" smooth="yes"/>
      <point x="385" y="0" type="line"/>
      <point x="466" y="0" type="line"/>
      <point x="466" y="294" type="line" smooth="yes"/>
      <point x="466" y="416"/>
      <point x="411" y="486"/>
      <point x="308" y="486" type="curve" smooth="yes"/>
      <point x="241" y="486"/>
      <point x="182" y="462"/>
      <point x="150" y="387" type="curve"/>
      <point x="153" y="504" type="line"/>
      <point x="153" y="686" type="line"/>
      <point x="74" y="677" type="line"/>
    </contour>
  </outline>
</glyph>
<glyph name="i" format="1">
  <advance width="261"/>
  <unicode hex="0069"/>
  <outline>
    <contour>
      <point x="195" y="629" type="curve" smooth="yes"/>
      <point x="195" y="663"/>
      <point x="174" y="684"/>
      <point x="137" y="684" type="curve" smooth="yes"/>
      <point x="100" y="684"/>
      <point x="79" y="663"/>
      <point x="79" y="629" type="curve" smooth="yes"/>
      <point x="79" y="594"/>
      <point x="100" y="572"/>
      <point x="137" y="572" type="curve" smooth="yes"/>
      <point x="174" y="572"/>
      <point x="195" y="594"/>
    </contour>
    <contour>
      <point x="96" y="475" type="line"/>
      <point x="96" y="0" type="line"/>
      <point x="176" y="0" type="line"/>
      <point x="176" y="475" type="line"/>
    </contour>
  </outline>
</glyph>
<glyph name="j" format="1">
  <advance width="257"/>
  <unicode hex="006A"/>
  <outline>
    <contour>
      <point x="198" y="629" type="curve" smooth="yes"/>
      <point x="198" y="663"/>
      <point x="177" y="684"/>
      <point x="140" y="684" type="curve" smooth="yes"/>
      <point x="103" y="684"/>
      <point x="82" y="663"/>
      <point x="82" y="629" type="curve" smooth="yes"/>
      <point x="82" y="594"/>
      <point x="103" y="572"/>
      <point x="140" y="572" type="curve" smooth="yes"/>
      <point x="177" y="572"/>
      <point x="198" y="594"/>
    </contour>
    <contour>
      <point x="105" y="475" type="line"/>
      <point x="105" y="8" type="line" smooth="yes"/>
      <point x="105" y="-74"/>
      <point x="104" y="-89"/>
      <point x="37" y="-104" type="curve" smooth="yes"/>
      <point x="8" y="-112" type="line"/>
      <point x="21" y="-174" type="line"/>
      <point x="49" y="-169" type="line"/>
      <point x="147" y="-154"/>
      <point x="185" y="-120"/>
      <point x="185" y="-5" type="curve" smooth="yes"/>
      <point x="185" y="475" type="line"/>
    </contour>
  </outline>
</glyph>
<glyph name="k" format="1">
  <advance width="482"/>
  <unicode hex="006B"/>
  <outline>
    <contour>
      <point x="262" y="0" type="move" name="bot"/>
    </contour>
    <contour>
      <point x="74" y="0" type="line"/>
      <point x="153" y="0" type="line"/>
      <point x="153" y="176" type="line"/>
      <point x="206" y="221" type="line"/>
      <point x="387" y="0" type="line"/>
      <point x="472" y="0" type="line"/>
      <point x="472" y="11" type="line"/>
      <point x="263" y="260" type="line"/>
      <point x="458" y="465" type="line"/>
      <point x="458" y="475" type="line"/>
      <point x="368" y="475" type="line"/>
      <point x="150" y="243" type="line"/>
      <point x="153" y="337" type="line"/>
      <point x="153" y="686" type="line"/>
      <point x="74" y="677" type="line"/>
    </contour>
  </outline>
</glyph>
<glyph name="l" format="1">
  <advance width="281"/>
  <unicode hex="006C"/>
  <outline>
    <contour>
      <point x="155" y="660" type="move" name="top"/>
    </contour>
    <contour>
      <point x="210" y="-4" type="line"/>
      <point x="241" y="-4" type="line"/>
      <point x="248" y="55" type="line"/>
      <point x="220" y="56" type="line"/>
      <point x="167" y="60"/>
      <point x="158" y="66"/>
      <point x="158" y="137" type="curve" smooth="yes"/>
      <point x="158" y="686" type="line"/>
      <point x="78" y="677" type="line"/>
      <point x="78" y="136" type="line" smooth="yes"/>
      <point x="78" y="20"/>
      <point x="123" y="-4"/>
      <point x="208" y="-4" type="curve" smooth="yes"/>
    </contour>
  </outline>
</glyph>
<glyph name="m" format="1">
  <advance width="806"/>
  <unicode hex="006D"/>
  <outline>
    <contour>
      <point x="421" y="475" type="move" name="top"/>
    </contour>
    <contour>
      <point x="446" y="262" type="line" smooth="yes"/>
      <point x="446" y="367"/>
      <point x="513" y="427"/>
      <point x="572" y="427" type="curve" smooth="yes"/>
      <point x="647" y="427"/>
      <point x="660" y="352"/>
      <point x="660" y="283" type="curve" smooth="yes"/>
      <point x="660" y="0" type="line"/>
      <point x="740" y="0" type="line"/>
      <point x="740" y="306" type="line" smooth="yes"/>
      <point x="740" y="423"/>
      <point x="685" y="486"/>
      <point x="588" y="486" type="curve" smooth="yes"/>
      <point x="520" y="486"/>
      <point x="463" y="450"/>
      <point x="431" y="374" type="curve"/>
      <point x="413" y="443"/>
      <point x="365" y="486"/>
      <point x="292" y="486" type="curve" smooth="yes"/>
      <point x="230" y="486"/>
      <point x="178" y="455"/>
      <point x="148" y="382" type="curve"/>
      <point x="139" y="475" type="line"/>
      <point x="72" y="475" type="line"/>
      <point x="72" y="0" type="line"/>
      <point x="152" y="0" type="line"/>
      <point x="152" y="281" type="line"/>
      <point x="163" y="365"/>
      <point x="204" y="427"/>
      <point x="276" y="427" type="curve" smooth="yes"/>
      <point x="340" y="427"/>
      <point x="366" y="378"/>
      <point x="366" y="268" type="curve" smooth="yes"/>
      <point x="366" y="0" type="line"/>
      <point x="446" y="0" type="line"/>
    </contour>
  </outline>
</glyph>
<glyph name="n" format="1">
  <advance width="530"/>
  <unicode hex="006E"/>
  <outline>
    <contour>
      <point x="306" y="475" type="move" name="top"/>
    </contour>
    <contour>
      <point x="266" y="0" type="move" name="bot"/>
    </contour>
    <contour>
      <point x="72" y="0" type="line"/>
      <point x="152" y="0" type="line"/>
      <point x="152" y="269" type="line" smooth="yes"/>
      <point x="152" y="355"/>
      <point x="193" y="427"/>
      <point x="291" y="427" type="curve" smooth="yes"/>
      <point x="363" y="427"/>
      <point x="383" y="372"/>
      <point x="383" y="292" type="curve" smooth="yes"/>
      <point x="383" y="0" type="line"/>
      <point x="464" y="0" type="line"/>
      <point x="464" y="286" type="line" smooth="yes"/>
      <point x="464" y="415"/>
      <point x="414" y="486"/>
      <point x="307" y="486" type="curve" smooth="yes"/>
      <point x="230" y="486"/>
      <point x="176" y="452"/>
      <point x="147" y="382" type="curve"/>
      <point x="139" y="475" type="line"/>
      <point x="72" y="475" type="line"/>
    </contour>
  </outline>
</glyph>
<glyph name="o" format="1">
  <advance width="533"/>
  <unicode hex="006F"/>
  <outline>
    <contour>
      <point x="267" y="475" type="move" name="top"/>
    </contour>
    <contour>
      <point x="267" y="-9" type="curve" smooth="yes"/>
      <point x="405" y="-9"/>
      <point x="482" y="90"/>
      <point x="482" y="238" type="curve" smooth="yes"/>
      <point x="482" y="388"/>
      <point x="407" y="486"/>
      <point x="267" y="486" type="curve" smooth="yes"/>
      <point x="127" y="486"/>
      <point x="52" y="388"/>
      <point x="52" y="238" type="curve" smooth="yes"/>
      <point x="52" y="90"/>
      <point x="128" y="-9"/>
    </contour>
    <contour>
      <point x="267" y="50" type="curve" smooth="yes"/>
      <point x="173" y="50"/>
      <point x="134" y="130"/>
      <point x="134" y="238" type="curve" smooth="yes"/>
      <point x="134" y="349"/>
      <point x="174" y="427"/>
      <point x="267" y="427" type="curve" smooth="yes"/>
      <point x="360" y="427"/>
      <point x="400" y="349"/>
      <point x="400" y="238" type="curve" smooth="yes"/>
      <point x="400" y="130"/>
      <point x="360" y="50"/>
    </contour>
  </outline>
</glyph>
<glyph name="p" format="1">
  <advance width="536"/>
  <unicode hex="0070"/>
  <outline>
    <contour>
      <point x="294" y="475" type="move" name="top"/>
    </contour>
    <contour>
      <point x="277" y="50" type="curve" smooth="yes"/>
      <point x="226" y="50"/>
      <point x="180" y="70"/>
      <point x="151" y="110" type="curve"/>
      <point x="151" y="253" type="line"/>
      <point x="152" y="357"/>
      <point x="191" y="427"/>
      <point x="285" y="427" type="curve" smooth="yes"/>
      <point x="374" y="427"/>
      <point x="403" y="348"/>
      <point x="403" y="238" type="curve" smooth="yes"/>
      <point x="403" y="121"/>
      <point x="364" y="50"/>
    </contour>
    <contour>
      <point x="75" y="-202" type="line"/>
      <point x="154" y="-202" type="line"/>
      <point x="154" y="-30" type="line"/>
      <point x="152" y="39" type="line"/>
      <point x="182" y="9"/>
      <point x="226" y="-9"/>
      <point x="284" y="-9" type="curve" smooth="yes"/>
      <point x="409" y="-9"/>
      <point x="485" y="93"/>
      <point x="485" y="238" type="curve" smooth="yes"/>
      <point x="485" y="386"/>
      <point x="426" y="486"/>
      <point x="297" y="486" type="curve" smooth="yes"/>
      <point x="226" y="486"/>
      <point x="172" y="449"/>
      <point x="149" y="377" type="curve"/>
      <point x="141" y="475" type="line"/>
      <point x="75" y="475" type="line"/>
    </contour>
  </outline>
</glyph>
<glyph name="q" format="1">
  <advance width="533"/>
  <unicode hex="0071"/>
  <outline>
    <contour>
      <point x="265" y="50" type="curve" smooth="yes"/>
      <point x="176" y="50"/>
      <point x="134" y="118"/>
      <point x="134" y="239" type="curve" smooth="yes"/>
      <point x="134" y="355"/>
      <point x="177" y="427"/>
      <point x="264" y="427" type="curve" smooth="yes"/>
      <point x="315" y="427"/>
      <point x="356" y="406"/>
      <point x="385" y="366" type="curve"/>
      <point x="385" y="103" type="line"/>
      <point x="360" y="69"/>
      <point x="316" y="50"/>
    </contour>
    <contour>
      <point x="258" y="-9" type="curve" smooth="yes"/>
      <point x="298" y="-9"/>
      <point x="348" y="2"/>
      <point x="384" y="39" type="curve"/>
      <point x="382" y="-10" type="line"/>
      <point x="382" y="-202" type="line"/>
      <point x="463" y="-202" type="line"/>
      <point x="463" y="475" type="line"/>
      <point x="395" y="475" type="line"/>
      <point x="392" y="423" type="line"/>
      <point x="365" y="459"/>
      <point x="320" y="486"/>
      <point x="259" y="486" type="curve" smooth="yes"/>
      <point x="129" y="486"/>
      <point x="52" y="387"/>
      <point x="52" y="239" type="curve" smooth="yes"/>
      <point x="52" y="91"/>
      <point x="124" y="-9"/>
    </contour>
  </outline>
</glyph>
<glyph name="r" format="1">
  <advance width="343"/>
  <unicode hex="0072"/>
  <outline>
    <contour>
      <point x="204" y="475" type="move" name="top"/>
    </contour>
    <contour>
      <point x="130" y="0" type="move" name="bot"/>
    </contour>
    <contour>
      <point x="76" y="0" type="line"/>
      <point x="155" y="0" type="line"/>
      <point x="155" y="270" type="line" smooth="yes"/>
      <point x="155" y="351"/>
      <point x="201" y="416"/>
      <point x="296" y="416" type="curve" smooth="yes"/>
      <point x="297" y="416" type="line"/>
      <point x="314" y="416" type="line"/>
      <point x="320" y="479" type="line"/>
      <point x="308" y="481"/>
      <point x="298" y="482"/>
      <point x="285" y="482" type="curve" smooth="yes"/>
      <point x="231" y="482"/>
      <point x="180" y="454"/>
      <point x="148" y="376" type="curve"/>
      <point x="140" y="475" type="line"/>
      <point x="76" y="475" type="line"/>
    </contour>
  </outline>
</glyph>
<glyph name="s" format="1">
  <advance width="431"/>
  <unicode hex="0073"/>
  <outline>
    <contour>
      <point x="223" y="476" type="move" name="top"/>
    </contour>
    <contour>
      <point x="210" y="0" type="move" name="bot"/>
    </contour>
    <contour>
      <point x="318" y="135" type="curve" smooth="yes"/>
      <point x="318" y="77"/>
      <point x="283" y="50"/>
      <point x="222" y="50" type="curve" smooth="yes"/>
      <point x="178" y="50"/>
      <point x="124" y="63"/>
      <point x="86" y="107" type="curve"/>
      <point x="79" y="107" type="line"/>
      <point x="38" y="67" type="line"/>
      <point x="77" y="17"/>
      <point x="146" y="-9"/>
      <point x="222" y="-9" type="curve" smooth="yes"/>
      <point x="315" y="-9"/>
      <point x="391" y="34"/>
      <point x="391" y="138" type="curve" smooth="yes"/>
      <point x="391" y="191"/>
      <point x="373" y="236"/>
      <point x="260" y="273" type="curve"/>
      <point x="207" y="289" type="line" smooth="yes"/>
      <point x="142" y="310"/>
      <point x="130" y="325"/>
      <point x="130" y="357" type="curve" smooth="yes"/>
      <point x="130" y="399"/>
      <point x="157" y="426"/>
      <point x="224" y="426" type="curve" smooth="yes"/>
      <point x="275" y="426"/>
      <point x="312" y="407"/>
      <point x="334" y="381" type="curve"/>
      <point x="338" y="381" type="line"/>
      <point x="382" y="417" type="line"/>
      <point x="354" y="457"/>
      <point x="299" y="486"/>
      <point x="223" y="486" type="curve" smooth="yes"/>
      <point x="117" y="486"/>
      <point x="51" y="437"/>
      <point x="51" y="358" type="curve" smooth="yes"/>
      <point x="51" y="301"/>
      <point x="66" y="262"/>
      <point x="181" y="226" type="curve" smooth="yes"/>
      <point x="235" y="209" type="line" smooth="yes"/>
      <point x="308" y="187"/>
      <point x="318" y="166"/>
    </contour>
  </outline>
</glyph>
<glyph name="t" format="1">
  <advance width="351"/>
  <unicode hex="0074"/>
  <outline>
    <contour>
      <point x="147" y="606" type="move" name="top"/>
    </contour>
    <contour>
      <point x="209" y="0" type="move" name="bot"/>
    </contour>
    <contour>
      <point x="257" y="-4" type="curve" smooth="yes"/>
      <point x="302" y="-4" type="line"/>
      <point x="305" y="53" type="line"/>
      <point x="257" y="55" type="line" smooth="yes"/>
      <point x="186" y="58"/>
      <point x="182" y="72"/>
      <point x="182" y="147" type="curve" smooth="yes"/>
      <point x="182" y="427" type="line"/>
      <point x="308" y="427" type="line"/>
      <point x="308" y="475" type="line"/>
      <point x="182" y="475" type="line"/>
      <point x="182" y="608" type="line"/>
      <point x="115" y="604" type="line"/>
      <point x="104" y="475" type="line"/>
      <point x="29" y="471" type="line"/>
      <point x="26" y="427" type="line"/>
      <point x="102" y="427" type="line"/>
      <point x="102" y="147" type="line" smooth="yes"/>
      <point x="102" y="34"/>
      <point x="122" y="-4"/>
    </contour>
  </outline>
</glyph>
<glyph name="u" format="1">
  <advance width="532"/>
  <unicode hex="0075"/>
  <outline>
    <contour>
      <point x="274" y="476" type="move" name="top"/>
    </contour>
    <contour>
      <point x="250" y="0" type="move" name="bot"/>
    </contour>
    <contour>
      <point x="381" y="113" type="line"/>
      <point x="363" y="90"/>
      <point x="324" y="50"/>
      <point x="249" y="50" type="curve" smooth="yes"/>
      <point x="174" y="50"/>
      <point x="148" y="97"/>
      <point x="148" y="179" type="curve" smooth="yes"/>
      <point x="148" y="475" type="line"/>
      <point x="68" y="475" type="line"/>
      <point x="68" y="177" type="line" smooth="yes"/>
      <point x="68" y="53"/>
      <point x="126" y="-9"/>
      <point x="238" y="-9" type="curve" smooth="yes"/>
      <point x="308" y="-9"/>
      <point x="355" y="19"/>
      <point x="387" y="59" type="curve"/>
      <point x="392" y="0" type="line"/>
      <point x="460" y="0" type="line"/>
      <point x="460" y="475" type="line"/>
      <point x="381" y="475" type="line"/>
    </contour>
  </outline>
</glyph>
<glyph name="v" format="1">
  <advance width="474"/>
  <unicode hex="0076"/>
  <outline>
    <contour>
      <point x="199" y="0" type="line"/>
      <point x="281" y="0" type="line"/>
      <point x="450" y="475" type="line"/>
      <point x="370" y="475" type="line"/>
      <point x="328" y="347"/>
      <point x="284" y="222"/>
      <point x="241" y="94" type="curve"/>
      <point x="196" y="220"/>
      <point x="152" y="347"/>
      <point x="109" y="475" type="curve"/>
      <point x="27" y="475" type="line"/>
    </contour>
  </outline>
</glyph>
<glyph name="w" format="1">
  <advance width="662"/>
  <unicode hex="0077"/>
  <outline>
    <contour>
      <point x="334" y="475" type="move" name="top"/>
    </contour>
    <contour>
      <point x="334" y="399" type="line"/>
      <point x="456" y="0" type="line"/>
      <point x="528" y="0" type="line"/>
      <point x="652" y="475" type="line"/>
      <point x="580" y="475" type="line"/>
      <point x="490" y="104" type="line"/>
      <point x="374" y="475" type="line"/>
      <point x="291" y="475" type="line"/>
      <point x="181" y="104" type="line"/>
      <point x="86" y="475" type="line"/>
      <point x="11" y="475" type="line"/>
      <point x="140" y="0" type="line"/>
      <point x="212" y="0" type="line"/>
    </contour>
  </outline>
</glyph>
<glyph name="x" format="1">
  <advance width="464"/>
  <unicode hex="0078"/>
  <outline>
    <contour>
      <point x="278" y="242" type="line"/>
      <point x="438" y="475" type="line"/>
      <point x="358" y="475" type="line"/>
      <point x="239" y="299" type="line"/>
      <point x="122" y="475" type="line"/>
      <point x="32" y="475" type="line"/>
      <point x="190" y="241" type="line"/>
      <point x="22" y="0" type="line"/>
      <point x="104" y="0" type="line"/>
      <point x="228" y="184" type="line"/>
      <point x="352" y="0" type="line"/>
      <point x="440" y="0" type="line"/>
    </contour>
  </outline>
</glyph>
<glyph name="y" format="1">
  <advance width="496"/>
  <unicode hex="0079"/>
  <outline>
    <contour>
      <point x="256" y="475" type="move" name="top"/>
    </contour>
    <contour>
      <point x="476" y="475" type="line"/>
      <point x="399" y="475" type="line"/>
      <point x="255" y="107" type="line"/>
      <point x="101" y="475" type="line"/>
      <point x="17" y="475" type="line"/>
      <point x="215" y="19" type="line"/>
      <point x="145" y="-165" type="line"/>
      <point x="213" y="-182" type="line"/>
    </contour>
  </outline>
</glyph>
<glyph name="z" format="1">
  <advance width="444"/>
  <unicode hex="007A"/>
  <outline>
    <contour>
      <point x="225" y="475" type="move" name="top"/>
    </contour>
    <contour>
      <point x="212" y="0" type="move" name="bot"/>
    </contour>
    <contour>
      <point x="53" y="475" type="line"/>
      <point x="56" y="418" type="line"/>
      <point x="307" y="418" type="line"/>
      <point x="44" y="51" type="line"/>
      <point x="44" y="0" type="line"/>
      <point x="395" y="0" type="line"/>
      <point x="392" y="59" type="line"/>
      <point x="133" y="59" type="line"/>
      <point x="391" y="421" type="line"/>
      <point x="391" y="475" type="line"/>
    </contour>
  </outline>
</glyph>
<glyph name="braceleft" format="1">
  <advance width="378"/>
  <unicode hex="007B"/>
  <outline>
    <contour>
      <point x="322" y="-115" type="curve"/>
      <point x="322" y="-58" type="line"/>
      <point x="256" y="-58"/>
      <point x="252" y="-47"/>
      <point x="252" y="42" type="curve" smooth="yes"/>
      <point x="252" y="148" type="line" smooth="yes"/>
      <point x="252" y="224"/>
      <point x="234" y="257"/>
      <point x="166" y="269" type="curve"/>
      <point x="234" y="281"/>
      <point x="252" y="315"/>
      <point x="252" y="390" type="curve" smooth="yes"/>
      <point x="252" y="496" type="line" smooth="yes"/>
      <point x="252" y="584"/>
      <point x="256" y="598"/>
      <point x="322" y="598" type="curve"/>
      <point x="322" y="653" type="line"/>
      <point x="192" y="653"/>
      <point x="172" y="631"/>
      <point x="172" y="504" type="curve" smooth="yes"/>
      <point x="172" y="426" type="line" smooth="yes"/>
      <point x="172" y="332"/>
      <point x="172" y="302"/>
      <point x="85" y="302" type="curve"/>
      <point x="85" y="237" type="line"/>
      <point x="173" y="237"/>
      <point x="172" y="206"/>
      <point x="172" y="112" type="curve" smooth="yes"/>
      <point x="172" y="34" type="line" smooth="yes"/>
      <point x="172" y="-93"/>
      <point x="192" y="-115"/>
    </contour>
  </outline>
</glyph>
<glyph name="braceright" format="1">
  <advance width="378"/>
  <unicode hex="007D"/>
  <outline>
    <contour>
      <point x="56" y="-115" type="line"/>
      <point x="186" y="-115"/>
      <point x="206" y="-93"/>
      <point x="206" y="34" type="curve" smooth="yes"/>
      <point x="206" y="112" type="line" smooth="yes"/>
      <point x="206" y="206"/>
      <point x="206" y="237"/>
      <point x="294" y="237" type="curve"/>
      <point x="294" y="302" type="line"/>
      <point x="207" y="302"/>
      <point x="206" y="332"/>
      <point x="206" y="426" type="curve" smooth="yes"/>
      <point x="206" y="504" type="line" smooth="yes"/>
      <point x="206" y="631"/>
      <point x="186" y="653"/>
      <point x="56" y="653" type="curve"/>
      <point x="56" y="598" type="line"/>
      <point x="122" y="598"/>
      <point x="126" y="584"/>
      <point x="126" y="496" type="curve" smooth="yes"/>
      <point x="126" y="390" type="line" smooth="yes"/>
      <point x="126" y="315"/>
      <point x="144" y="281"/>
      <point x="212" y="269" type="curve"/>
      <point x="144" y="257"/>
      <point x="126" y="224"/>
      <point x="126" y="148" type="curve" smooth="yes"/>
      <point x="126" y="42" type="line" smooth="yes"/>
      <point x="126" y="-47"/>
      <point x="122" y="-58"/>
      <point x="56" y="-58" type="curve"/>
    </contour>
  </outline>
</glyph>
<glyph name="asciitilde" format="1">
  <advance width="523"/>
  <unicode hex="007E"/>
  <outline>
    <contour>
      <point x="157" y="285" type="curve" smooth="yes"/>
      <point x="210" y="285"/>
      <point x="303" y="221"/>
      <point x="363" y="221" type="curve" smooth="yes"/>
      <point x="418" y="221"/>
      <point x="453" y="256"/>
      <point x="475" y="309" type="curve"/>
      <point x="453" y="351" type="line"/>
      <point x="434" y="313"/>
      <point x="400" y="282"/>
      <point x="364" y="282" type="curve" smooth="yes"/>
      <point x="338" y="282"/>
      <point x="304" y="299"/>
      <point x="263" y="317" type="curve" smooth="yes"/>
      <point x="220" y="336"/>
      <point x="193" y="346"/>
      <point x="158" y="346" type="curve" smooth="yes"/>
      <point x="101" y="346"/>
      <point x="63" y="309"/>
      <point x="43" y="260" type="curve"/>
      <point x="63" y="215" type="line"/>
      <point x="83" y="253"/>
      <point x="118" y="285"/>
    </contour>
  </outline>
</glyph>
<glyph name="cent" format="1">
  <advance width="472"/>
  <unicode hex="00A2"/>
  <outline>
    <component base="c"/>
    <contour>
      <point x="237" y="15" type="line"/>
      <point x="237" y="-136" type="line"/>
      <point x="288" y="-136" type="line"/>
      <point x="296" y="15" type="line"/>
    </contour>
    <contour>
      <point x="242" y="610" type="line"/>
      <point x="237" y="466" type="line"/>
      <point x="291" y="466" type="line"/>
      <point x="292" y="610" type="line"/>
    </contour>
  </outline>
</glyph>
<glyph name="sterling" format="1">
  <advance width="502"/>
  <unicode hex="00A3"/>
  <outline>
    <contour>
      <point x="193" y="420" type="line" smooth="yes"/>
      <point x="193" y="530"/>
      <point x="230" y="583"/>
      <point x="303" y="583" type="curve" smooth="yes"/>
      <point x="352" y="583"/>
      <point x="379" y="562"/>
      <point x="410" y="538" type="curve"/>
      <point x="418" y="538" type="line"/>
      <point x="447" y="591" type="line"/>
      <point x="418" y="619"/>
      <point x="371" y="652"/>
      <point x="293" y="652" type="curve" smooth="yes"/>
      <point x="147" y="652"/>
      <point x="108" y="539"/>
      <point x="108" y="420" type="curve" smooth="yes"/>
      <point x="108" y="356" type="line"/>
      <point x="32" y="356" type="line"/>
      <point x="32" y="300" type="line"/>
      <point x="108" y="300" type="line"/>
      <point x="108" y="63" type="line"/>
      <point x="32" y="55" type="line"/>
      <point x="38" y="0" type="line"/>
      <point x="446" y="0" type="line"/>
      <point x="451" y="64" type="line"/>
      <point x="193" y="64" type="line"/>
      <point x="193" y="300" type="line"/>
      <point x="358" y="300" type="line"/>
      <point x="358" y="356" type="line"/>
      <point x="193" y="356" type="line"/>
    </contour>
  </outline>
</glyph>
<glyph name="currency" format="1">
  <advance width="508"/>
  <unicode hex="00A4"/>
  <outline>
    <contour>
      <point x="385" y="317" type="curve" smooth="yes"/>
      <point x="385" y="242"/>
      <point x="334" y="178"/>
      <point x="253" y="178" type="curve" smooth="yes"/>
      <point x="173" y="178"/>
      <point x="121" y="242"/>
      <point x="121" y="317" type="curve" smooth="yes"/>
      <point x="121" y="392"/>
      <point x="173" y="456"/>
      <point x="253" y="456" type="curve" smooth="yes"/>
      <point x="333" y="456"/>
      <point x="385" y="392"/>
    </contour>
    <contour>
      <point x="366" y="458" type="line"/>
      <point x="334" y="484"/>
      <point x="295" y="500"/>
      <point x="253" y="500" type="curve" smooth="yes"/>
      <point x="211" y="500"/>
      <point x="172" y="485"/>
      <point x="140" y="459" type="curve"/>
      <point x="61" y="535" type="line"/>
      <point x="32" y="505" type="line"/>
      <point x="111" y="427" type="line"/>
      <point x="88" y="395"/>
      <point x="76" y="357"/>
      <point x="76" y="317" type="curve" smooth="yes"/>
      <point x="76" y="277"/>
      <point x="89" y="240"/>
      <point x="111" y="208" type="curve"/>
      <point x="32" y="130" type="line"/>
      <point x="61" y="99" type="line"/>
      <point x="140" y="176" type="line"/>
      <point x="172" y="150"/>
      <point x="210" y="135"/>
      <point x="253" y="135" type="curve" smooth="yes"/>
      <point x="296" y="135"/>
      <point x="334" y="151"/>
      <point x="366" y="176" type="curve"/>
      <point x="446" y="99" type="line"/>
      <point x="473" y="130" type="line"/>
      <point x="395" y="208" type="line"/>
      <point x="417" y="240"/>
      <point x="430" y="277"/>
      <point x="430" y="317" type="curve" smooth="yes"/>
      <point x="430" y="356"/>
      <point x="418" y="394"/>
      <point x="395" y="427" type="curve"/>
      <point x="474" y="504" type="line"/>
      <point x="446" y="535" type="line"/>
    </contour>
  </outline>
</glyph>
<glyph name="yen" format="1">
  <advance width="599"/>
  <unicode hex="00A5"/>
  <outline>
    <component base="Y"/>
    <contour>
      <point x="113" y="224" type="line"/>
      <point x="475" y="224" type="line"/>
      <point x="475" y="273" type="line"/>
      <point x="113" y="273" type="line"/>
    </contour>
    <contour>
      <point x="113" y="112" type="line"/>
      <point x="475" y="112" type="line"/>
      <point x="475" y="161" type="line"/>
      <point x="113" y="161" type="line"/>
    </contour>
  </outline>
</glyph>
<glyph name="brokenbar" format="1">
  <advance width="290"/>
  <unicode hex="00A6"/>
  <outline>
    <contour>
      <point x="117" y="690" type="line"/>
      <point x="117" y="360" type="line"/>
      <point x="176" y="360" type="line"/>
      <point x="176" y="690" type="line"/>
    </contour>
    <contour>
      <point x="117" y="233" type="line"/>
      <point x="117" y="-99" type="line"/>
      <point x="176" y="-99" type="line"/>
      <point x="176" y="233" type="line"/>
    </contour>
  </outline>
</glyph>
<glyph name="section" format="1">
  <advance width="471"/>
  <unicode hex="00A7"/>
  <outline>
    <contour>
      <point x="303" y="252" type="curve"/>
      <point x="291" y="257"/>
      <point x="276" y="263"/>
      <point x="218" y="281" type="curve" smooth="yes"/>
      <point x="158" y="301"/>
      <point x="143" y="312"/>
      <point x="143" y="349" type="curve" smooth="yes"/>
      <point x="143" y="374"/>
      <point x="151" y="391"/>
      <point x="171" y="403" type="curve"/>
      <point x="175" y="401"/>
      <point x="183" y="399"/>
      <point x="236" y="381" type="curve" smooth="yes"/>
      <point x="303" y="359"/>
      <point x="321" y="336"/>
      <point x="321" y="304" type="curve" smooth="yes"/>
      <point x="321" y="282"/>
      <point x="315" y="265"/>
    </contour>
    <contour>
      <point x="227" y="-9" type="curve" smooth="yes"/>
      <point x="314" y="-9"/>
      <point x="388" y="30"/>
      <point x="388" y="129" type="curve" smooth="yes"/>
      <point x="388" y="168"/>
      <point x="379" y="196"/>
      <point x="356" y="219" type="curve"/>
      <point x="375" y="241"/>
      <point x="388" y="269"/>
      <point x="388" y="307" type="curve" smooth="yes"/>
      <point x="388" y="375"/>
      <point x="365" y="413"/>
      <point x="264" y="445" type="curve" smooth="yes"/>
      <point x="159" y="479"/>
      <point x="146" y="490"/>
      <point x="146" y="526" type="curve" smooth="yes"/>
      <point x="146" y="566"/>
      <point x="168" y="592"/>
      <point x="236" y="592" type="curve" smooth="yes"/>
      <point x="284" y="592"/>
      <point x="327" y="576"/>
      <point x="353" y="562" type="curve"/>
      <point x="371" y="618" type="line"/>
      <point x="331" y="639"/>
      <point x="283" y="652"/>
      <point x="228" y="652" type="curve" smooth="yes"/>
      <point x="130" y="652"/>
      <point x="73" y="601"/>
      <point x="73" y="523" type="curve" smooth="yes"/>
      <point x="73" y="487"/>
      <point x="82" y="457"/>
      <point x="112" y="434" type="curve"/>
      <point x="87" y="412"/>
      <point x="74" y="381"/>
      <point x="74" y="345" type="curve" smooth="yes"/>
      <point x="74" y="288"/>
      <point x="97" y="251"/>
      <point x="184" y="222" type="curve" smooth="yes"/>
      <point x="301" y="184"/>
      <point x="319" y="162"/>
      <point x="319" y="128" type="curve" smooth="yes"/>
      <point x="319" y="78"/>
      <point x="287" y="50"/>
      <point x="234" y="50" type="curve" smooth="yes"/>
      <point x="230" y="50" type="line" smooth="yes"/>
      <point x="180" y="50"/>
      <point x="133" y="67"/>
      <point x="83" y="91" type="curve"/>
      <point x="83" y="26" type="line"/>
      <point x="127" y="4"/>
      <point x="179" y="-9"/>
    </contour>
  </outline>
</glyph>
<glyph name="dieresis" format="1">
  <advance width="410"/>
  <unicode hex="00A8"/>
  <outline>
    <contour>
      <point x="204" y="475" type="move" name="_top"/>
    </contour>
    <contour>
      <point x="296" y="567" type="curve" smooth="yes"/>
      <point x="328" y="567"/>
      <point x="343" y="588"/>
      <point x="343" y="615" type="curve" smooth="yes"/>
      <point x="343" y="641"/>
      <point x="328" y="662"/>
      <point x="296" y="662" type="curve" smooth="yes"/>
      <point x="263" y="662"/>
      <point x="248" y="641"/>
      <point x="248" y="615" type="curve" smooth="yes"/>
      <point x="248" y="588"/>
      <point x="264" y="567"/>
    </contour>
    <contour>
      <point x="105" y="567" type="curve" smooth="yes"/>
      <point x="137" y="567"/>
      <point x="151" y="588"/>
      <point x="151" y="615" type="curve" smooth="yes"/>
      <point x="151" y="641"/>
      <point x="137" y="662"/>
      <point x="105" y="662" type="curve" smooth="yes"/>
      <point x="72" y="662"/>
      <point x="58" y="641"/>
      <point x="58" y="615" type="curve" smooth="yes"/>
      <point x="58" y="588"/>
      <point x="73" y="567"/>
    </contour>
  </outline>
</glyph>
<glyph name="copyright" format="1">
  <advance width="751"/>
  <unicode hex="00A9"/>
  <outline>
    <contour>
      <point x="337" y="-10" type="curve" smooth="yes"/>
      <point x="507" y="-10"/>
      <point x="674" y="107"/>
      <point x="674" y="320" type="curve" smooth="yes"/>
      <point x="674" y="535"/>
      <point x="506" y="650"/>
      <point x="337" y="650" type="curve" smooth="yes"/>
      <point x="169" y="650"/>
      <point x="4" y="535"/>
      <point x="4" y="320" type="curve" smooth="yes"/>
      <point x="4" y="107"/>
      <point x="169" y="-10"/>
    </contour>
    <contour>
      <point x="337" y="30" type="curve" smooth="yes"/>
      <point x="190" y="30"/>
      <point x="50" y="133"/>
      <point x="50" y="320" type="curve" smooth="yes"/>
      <point x="50" y="507"/>
      <point x="190" y="609"/>
      <point x="337" y="609" type="curve" smooth="yes"/>
      <point x="485" y="609"/>
      <point x="625" y="507"/>
      <point x="625" y="320" type="curve" smooth="yes"/>
      <point x="625" y="134"/>
      <point x="485" y="30"/>
    </contour>
    <contour>
      <point x="345" y="104" type="curve" smooth="yes"/>
      <point x="389" y="104"/>
      <point x="432" y="117"/>
      <point x="470" y="140" type="curve"/>
      <point x="454" y="178" type="line"/>
      <point x="416" y="156"/>
      <point x="382" y="148"/>
      <point x="347" y="148" type="curve" smooth="yes"/>
      <point x="261" y="148"/>
      <point x="192" y="212"/>
      <point x="192" y="320" type="curve" smooth="yes"/>
      <point x="192" y="421"/>
      <point x="260" y="490"/>
      <point x="344" y="490" type="curve" smooth="yes"/>
      <point x="376" y="490"/>
      <point x="417" y="478"/>
      <point x="449" y="456" type="curve"/>
      <point x="469" y="496" type="line"/>
      <point x="430" y="521"/>
      <point x="387" y="535"/>
      <point x="342" y="535" type="curve" smooth="yes"/>
      <point x="230" y="535"/>
      <point x="135" y="444"/>
      <point x="135" y="319" type="curve" smooth="yes"/>
      <point x="135" y="190"/>
      <point x="233" y="104"/>
    </contour>
  </outline>
</glyph>
<glyph name="guillemotleft" format="1">
  <advance width="438"/>
  <unicode hex="00AB"/>
  <outline>
    <contour>
      <point x="320" y="64" type="line"/>
      <point x="391" y="64" type="line"/>
      <point x="270" y="244" type="line"/>
      <point x="393" y="421" type="line"/>
      <point x="321" y="421" type="line"/>
      <point x="194" y="242" type="line"/>
    </contour>
    <contour>
      <point x="162" y="64" type="line"/>
      <point x="232" y="64" type="line"/>
      <point x="112" y="244" type="line"/>
      <point x="236" y="421" type="line"/>
      <point x="164" y="421" type="line"/>
      <point x="36" y="242" type="line"/>
    </contour>
  </outline>
</glyph>
<glyph name="logicalnot" format="1">
  <advance width="546"/>
  <unicode hex="00AC"/>
  <outline>
    <contour>
      <point x="46" y="356" type="line"/>
      <point x="46" y="295" type="line"/>
      <point x="411" y="295" type="line"/>
      <point x="411" y="112" type="line"/>
      <point x="468" y="112" type="line"/>
      <point x="468" y="356" type="line"/>
    </contour>
  </outline>
</glyph>
<glyph name="uni00AD" format="1">
  <advance width="386"/>
  <unicode hex="00AD"/>
  <outline>
    <contour>
      <point x="46" y="217" type="line"/>
      <point x="340" y="217" type="line"/>
      <point x="340" y="280" type="line"/>
      <point x="46" y="280" type="line"/>
    </contour>
  </outline>
</glyph>
<glyph name="registered" format="1">
  <advance width="812"/>
  <unicode hex="00AE"/>
  <outline>
    <contour>
      <point x="403" y="-10" type="curve" smooth="yes"/>
      <point x="569" y="-10"/>
      <point x="732" y="106"/>
      <point x="732" y="320" type="curve" smooth="yes"/>
      <point x="732" y="534"/>
      <point x="569" y="650"/>
      <point x="403" y="650" type="curve" smooth="yes"/>
      <point x="238" y="650"/>
      <point x="76" y="534"/>
      <point x="76" y="320" type="curve" smooth="yes"/>
      <point x="76" y="106"/>
      <point x="238" y="-10"/>
    </contour>
    <contour>
      <point x="403" y="30" type="curve" smooth="yes"/>
      <point x="259" y="30"/>
      <point x="124" y="133"/>
      <point x="124" y="320" type="curve" smooth="yes"/>
      <point x="124" y="507"/>
      <point x="259" y="610"/>
      <point x="403" y="610" type="curve" smooth="yes"/>
      <point x="547" y="610"/>
      <point x="685" y="506"/>
      <point x="685" y="320" type="curve" smooth="yes"/>
      <point x="685" y="133"/>
      <point x="547" y="30"/>
    </contour>
    <contour>
      <point x="328" y="359" type="line"/>
      <point x="328" y="486" type="line"/>
      <point x="404" y="486" type="line" smooth="yes"/>
      <point x="474" y="486"/>
      <point x="500" y="479"/>
      <point x="500" y="424" type="curve" smooth="yes"/>
      <point x="500" y="377"/>
      <point x="479" y="359"/>
      <point x="418" y="359" type="curve" smooth="yes"/>
    </contour>
    <contour>
      <point x="276" y="130" type="line"/>
      <point x="327" y="130" type="line"/>
      <point x="327" y="317" type="line"/>
      <point x="415" y="317" type="line"/>
      <point x="419" y="313"/>
      <point x="508" y="130"/>
      <point x="508" y="130" type="curve"/>
      <point x="564" y="130" type="line"/>
      <point x="564" y="130"/>
      <point x="472" y="313"/>
      <point x="466" y="322" type="curve"/>
      <point x="524" y="329"/>
      <point x="550" y="369"/>
      <point x="550" y="427" type="curve" smooth="yes"/>
      <point x="550" y="500"/>
      <point x="512" y="530"/>
      <point x="412" y="530" type="curve" smooth="yes"/>
      <point x="276" y="530" type="line"/>
    </contour>
  </outline>
</glyph>
<glyph name="macron" format="1">
  <advance width="502"/>
  <unicode hex="00AF"/>
  <outline>
    <contour>
      <point x="251" y="469" type="move" name="_top"/>
    </contour>
    <contour>
      <point x="116" y="583" type="line"/>
      <point x="374" y="583" type="line"/>
      <point x="374" y="627" type="line"/>
      <point x="116" y="627" type="line"/>
    </contour>
  </outline>
</glyph>
<glyph name="degree" format="1">
  <advance width="384"/>
  <unicode hex="00B0"/>
  <outline>
    <contour>
      <point x="188" y="392" type="curve" smooth="yes"/>
      <point x="262" y="392"/>
      <point x="321" y="448"/>
      <point x="321" y="522" type="curve" smooth="yes"/>
      <point x="321" y="598"/>
      <point x="260" y="650"/>
      <point x="188" y="650" type="curve" smooth="yes"/>
      <point x="117" y="650"/>
      <point x="57" y="598"/>
      <point x="57" y="522" type="curve" smooth="yes"/>
      <point x="57" y="446"/>
      <point x="117" y="392"/>
    </contour>
    <contour>
      <point x="188" y="436" type="curve" smooth="yes"/>
      <point x="143" y="436"/>
      <point x="107" y="470"/>
      <point x="107" y="521" type="curve" smooth="yes"/>
      <point x="107" y="571"/>
      <point x="144" y="606"/>
      <point x="189" y="606" type="curve" smooth="yes"/>
      <point x="234" y="606"/>
      <point x="272" y="571"/>
      <point x="272" y="521" type="curve" smooth="yes"/>
      <point x="272" y="470"/>
      <point x="234" y="436"/>
    </contour>
  </outline>
</glyph>
<glyph name="plusminus" format="1">
  <advance width="498"/>
  <unicode hex="00B1"/>
  <outline>
    <contour>
      <point x="46" y="56" type="line"/>
      <point x="46" y="0" type="line"/>
      <point x="454" y="0" type="line"/>
      <point x="454" y="56" type="line"/>
    </contour>
    <contour>
      <point x="217" y="495" type="line"/>
      <point x="217" y="327" type="line"/>
      <point x="55" y="327" type="line"/>
      <point x="55" y="270" type="line"/>
      <point x="217" y="270" type="line"/>
      <point x="217" y="97" type="line"/>
      <point x="277" y="97" type="line"/>
      <point x="277" y="270" type="line"/>
      <point x="436" y="270" type="line"/>
      <point x="436" y="327" type="line"/>
      <point x="276" y="327" type="line"/>
      <point x="276" y="495" type="line"/>
    </contour>
  </outline>
</glyph>
<glyph name="uni00B2" format="1">
  <advance width="344"/>
  <unicode hex="00B2"/>
  <outline>
    <contour>
      <point x="67" y="284" type="line"/>
      <point x="292" y="284" type="line"/>
      <point x="297" y="331" type="line"/>
      <point x="148" y="331" type="line"/>
      <point x="196" y="377"/>
      <point x="199" y="378"/>
      <point x="234" y="413" type="curve" smooth="yes"/>
      <point x="274" y="454"/>
      <point x="297" y="494"/>
      <point x="297" y="544" type="curve" smooth="yes"/>
      <point x="297" y="619"/>
      <point x="240" y="660"/>
      <point x="179" y="660" type="curve" smooth="yes"/>
      <point x="121" y="660"/>
      <point x="80" y="639"/>
      <point x="50" y="600" type="curve"/>
      <point x="76" y="562" type="line"/>
      <point x="99" y="592"/>
      <point x="134" y="609"/>
      <point x="176" y="609" type="curve" smooth="yes"/>
      <point x="214" y="609"/>
      <point x="241" y="583"/>
      <point x="241" y="543" type="curve" smooth="yes"/>
      <point x="241" y="518"/>
      <point x="221" y="486"/>
      <point x="192" y="452" type="curve" smooth="yes"/>
      <point x="136" y="390"/>
      <point x="113" y="377"/>
      <point x="67" y="331" type="curve"/>
    </contour>
  </outline>
</glyph>
<glyph name="uni00B3" format="1">
  <advance width="384"/>
  <unicode hex="00B3"/>
  <outline>
    <contour>
      <point x="192" y="276" type="curve" smooth="yes"/>
      <point x="260" y="276"/>
      <point x="320" y="311"/>
      <point x="320" y="384" type="curve" smooth="yes"/>
      <point x="320" y="432"/>
      <point x="290" y="466"/>
      <point x="249" y="476" type="curve"/>
      <point x="291" y="486"/>
      <point x="316" y="519"/>
      <point x="316" y="562" type="curve" smooth="yes"/>
      <point x="316" y="631"/>
      <point x="261" y="658"/>
      <point x="200" y="658" type="curve" smooth="yes"/>
      <point x="152" y="658"/>
      <point x="106" y="643"/>
      <point x="76" y="617" type="curve"/>
      <point x="97" y="581" type="line"/>
      <point x="121" y="601"/>
      <point x="154" y="614"/>
      <point x="193" y="614" type="curve" smooth="yes"/>
      <point x="233" y="614"/>
      <point x="264" y="596"/>
      <point x="264" y="557" type="curve" smooth="yes"/>
      <point x="264" y="521"/>
      <point x="243" y="497"/>
      <point x="188" y="497" type="curve" smooth="yes"/>
      <point x="138" y="497" type="line"/>
      <point x="138" y="454" type="line"/>
      <point x="187" y="454" type="line"/>
      <point x="189" y="454" type="line" smooth="yes"/>
      <point x="241" y="454"/>
      <point x="269" y="426"/>
      <point x="269" y="386" type="curve" smooth="yes"/>
      <point x="269" y="343"/>
      <point x="234" y="321"/>
      <point x="191" y="321" type="curve" smooth="yes"/>
      <point x="151" y="321"/>
      <point x="117" y="336"/>
      <point x="96" y="356" type="curve"/>
      <point x="74" y="314" type="line"/>
      <point x="103" y="290"/>
      <point x="147" y="276"/>
    </contour>
  </outline>
</glyph>
<glyph name="acute" format="1">
  <advance width="321"/>
  <unicode hex="00B4"/>
  <outline>
    <contour>
      <point x="156" y="475" type="move" name="_top"/>
    </contour>
    <contour>
      <point x="129" y="531" type="line"/>
      <point x="181" y="531" type="line"/>
      <point x="312" y="697" type="line"/>
      <point x="214" y="697" type="line"/>
    </contour>
  </outline>
</glyph>
<glyph name="paragraph" format="1">
  <advance width="503"/>
  <unicode hex="00B6"/>
  <outline>
    <contour>
      <point x="284" y="585" type="line"/>
      <point x="345" y="585" type="line"/>
      <point x="345" y="-90" type="line"/>
      <point x="401" y="-90" type="line"/>
      <point x="401" y="640" type="line"/>
      <point x="245" y="640" type="line" smooth="yes"/>
      <point x="101" y="640"/>
      <point x="58" y="563"/>
      <point x="58" y="488" type="curve" smooth="yes"/>
      <point x="58" y="411"/>
      <point x="104" y="336"/>
      <point x="227" y="336" type="curve"/>
      <point x="227" y="-90" type="line"/>
      <point x="284" y="-90" type="line"/>
    </contour>
  </outline>
</glyph>
<glyph name="periodcentered" format="1">
  <advance width="284"/>
  <unicode hex="00B7"/>
  <outline>
    <contour>
      <point x="147" y="223" type="curve" smooth="yes"/>
      <point x="177" y="223"/>
      <point x="198" y="243"/>
      <point x="198" y="274" type="curve" smooth="yes"/>
      <point x="198" y="304"/>
      <point x="177" y="324"/>
      <point x="147" y="324" type="curve" smooth="yes"/>
      <point x="117" y="324"/>
      <point x="95" y="304"/>
      <point x="95" y="274" type="curve" smooth="yes"/>
      <point x="95" y="243"/>
      <point x="117" y="223"/>
    </contour>
  </outline>
</glyph>
<glyph name="cedilla" format="1">
  <advance width="300"/>
  <unicode hex="00B8"/>
  <outline>
    <contour>
      <point x="176" y="4" type="move" name="_bot"/>
    </contour>
    <contour>
      <point x="156" y="-176" type="curve" smooth="yes"/>
      <point x="219" y="-176"/>
      <point x="266" y="-143"/>
      <point x="266" y="-89" type="curve" smooth="yes"/>
      <point x="266" y="-41"/>
      <point x="233" y="-18"/>
      <point x="192" y="-18" type="curve" smooth="yes"/>
      <point x="178" y="-18"/>
      <point x="162" y="-20"/>
      <point x="146" y="-26" type="curve"/>
      <point x="146" y="-50" type="line"/>
      <point x="155" y="-48"/>
      <point x="163" y="-47"/>
      <point x="170" y="-47" type="curve" smooth="yes"/>
      <point x="208" y="-47"/>
      <point x="218" y="-67"/>
      <point x="218" y="-86" type="curve" smooth="yes"/>
      <point x="218" y="-119"/>
      <point x="189" y="-137"/>
      <point x="153" y="-137" type="curve" smooth="yes"/>
      <point x="136" y="-137"/>
      <point x="118" y="-133"/>
      <point x="100" y="-125" type="curve"/>
      <point x="86" y="-162" type="line"/>
      <point x="108" y="-172"/>
      <point x="132" y="-176"/>
    </contour>
  </outline>
</glyph>
<glyph name="uni00B9" format="1">
  <advance width="387"/>
  <unicode hex="00B9"/>
  <outline>
    <contour>
      <point x="115" y="276" type="line"/>
      <point x="325" y="276" type="line"/>
      <point x="325" y="326" type="line"/>
      <point x="252" y="326" type="line"/>
      <point x="252" y="653" type="line"/>
      <point x="203" y="653" type="line"/>
      <point x="187" y="639"/>
      <point x="135" y="616"/>
      <point x="112" y="607" type="curve"/>
      <point x="112" y="557" type="line"/>
      <point x="126" y="560"/>
      <point x="173" y="580"/>
      <point x="190" y="590" type="curve"/>
      <point x="190" y="326" type="line"/>
      <point x="115" y="326" type="line"/>
    </contour>
  </outline>
</glyph>
<glyph name="ordmasculine" format="1">
  <advance width="423"/>
  <unicode hex="00BA"/>
  <outline>
    <contour>
      <point x="300" y="481" type="curve" smooth="yes"/>
      <point x="300" y="407"/>
      <point x="271" y="364"/>
      <point x="211" y="364" type="curve" smooth="yes"/>
      <point x="154" y="364"/>
      <point x="125" y="407"/>
      <point x="125" y="482" type="curve" smooth="yes"/>
      <point x="125" y="558"/>
      <point x="154" y="602"/>
      <point x="211" y="602" type="curve" smooth="yes"/>
      <point x="269" y="602"/>
      <point x="300" y="557"/>
    </contour>
    <contour>
      <point x="62" y="482" type="curve" smooth="yes"/>
      <point x="62" y="386"/>
      <point x="115" y="313"/>
      <point x="211" y="313" type="curve" smooth="yes"/>
      <point x="303" y="313"/>
      <point x="360" y="388"/>
      <point x="360" y="482" type="curve" smooth="yes"/>
      <point x="360" y="581"/>
      <point x="310" y="652"/>
      <point x="211" y="652" type="curve" smooth="yes"/>
      <point x="115" y="652"/>
      <point x="62" y="580"/>
    </contour>
  </outline>
</glyph>
<glyph name="guillemotright" format="1">
  <advance width="438"/>
  <unicode hex="00BB"/>
  <outline>
    <contour>
      <point x="267" y="64" type="line"/>
      <point x="394" y="243" type="line"/>
      <point x="266" y="421" type="line"/>
      <point x="194" y="421" type="line"/>
      <point x="318" y="244" type="line"/>
      <point x="197" y="64" type="line"/>
    </contour>
    <contour>
      <point x="110" y="64" type="line"/>
      <point x="236" y="243" type="line"/>
      <point x="109" y="421" type="line"/>
      <point x="38" y="421" type="line"/>
      <point x="160" y="244" type="line"/>
      <point x="40" y="64" type="line"/>
    </contour>
  </outline>
</glyph>
<glyph name="onequarter" format="1">
  <advance width="764"/>
  <unicode hex="00BC"/>
  <outline>
    <contour>
      <point x="500" y="131" type="line"/>
      <point x="612" y="302" type="line"/>
      <point x="612" y="131" type="line"/>
    </contour>
    <contour>
      <point x="166" y="0" type="line"/>
      <point x="227" y="0" type="line"/>
      <point x="629" y="650" type="line"/>
      <point x="568" y="650" type="line"/>
    </contour>
    <contour>
      <point x="613" y="0" type="line"/>
      <point x="670" y="0" type="line"/>
      <point x="670" y="84" type="line"/>
      <point x="723" y="84" type="line"/>
      <point x="720" y="131" type="line"/>
      <point x="670" y="131" type="line"/>
      <point x="670" y="377" type="line"/>
      <point x="608" y="377" type="line"/>
      <point x="436" y="127" type="line"/>
      <point x="436" y="84" type="line"/>
      <point x="613" y="84" type="line"/>
    </contour>
    <contour>
      <point x="58" y="261" type="line"/>
      <point x="248" y="261" type="line"/>
      <point x="248" y="312" type="line"/>
      <point x="187" y="312" type="line"/>
      <point x="187" y="650" type="line"/>
      <point x="136" y="650" type="line"/>
      <point x="118" y="634"/>
      <point x="68" y="610"/>
      <point x="54" y="604" type="curve"/>
      <point x="54" y="552" type="line"/>
      <point x="66" y="557"/>
      <point x="108" y="574"/>
      <point x="124" y="584" type="curve"/>
      <point x="124" y="312" type="line"/>
      <point x="58" y="312" type="line"/>
    </contour>
  </outline>
</glyph>
<glyph name="onehalf" format="1">
  <advance width="777"/>
  <unicode hex="00BD"/>
  <outline>
    <contour>
      <point x="166" y="0" type="line"/>
      <point x="226" y="0" type="line"/>
      <point x="628" y="650" type="line"/>
      <point x="568" y="650" type="line"/>
    </contour>
    <contour>
      <point x="60" y="261" type="line"/>
      <point x="250" y="261" type="line"/>
      <point x="250" y="311" type="line"/>
      <point x="189" y="311" type="line"/>
      <point x="189" y="650" type="line"/>
      <point x="139" y="650" type="line"/>
      <point x="121" y="634"/>
      <point x="70" y="610"/>
      <point x="56" y="604" type="curve"/>
      <point x="56" y="553" type="line"/>
      <point x="68" y="557"/>
      <point x="110" y="575"/>
      <point x="126" y="585" type="curve"/>
      <point x="126" y="311" type="line"/>
      <point x="60" y="311" type="line"/>
    </contour>
    <contour>
      <point x="507" y="0" type="line"/>
      <point x="732" y="0" type="line"/>
      <point x="734" y="52" type="line"/>
      <point x="579" y="52" type="line"/>
      <point x="656" y="125" type="line" smooth="yes"/>
      <point x="712" y="177"/>
      <point x="738" y="211"/>
      <point x="738" y="270" type="curve" smooth="yes"/>
      <point x="738" y="342"/>
      <point x="682" y="383"/>
      <point x="612" y="383" type="curve" smooth="yes"/>
      <point x="560" y="383"/>
      <point x="511" y="356"/>
      <point x="488" y="315" type="curve"/>
      <point x="521" y="279" type="line"/>
      <point x="546" y="313"/>
      <point x="577" y="328"/>
      <point x="611" y="328" type="curve" smooth="yes"/>
      <point x="647" y="328"/>
      <point x="677" y="307"/>
      <point x="677" y="266" type="curve" smooth="yes"/>
      <point x="677" y="235"/>
      <point x="664" y="211"/>
      <point x="616" y="161" type="curve" smooth="yes"/>
      <point x="506" y="50" type="line"/>
    </contour>
  </outline>
</glyph>
<glyph name="threequarters" format="1">
  <advance width="768"/>
  <unicode hex="00BE"/>
  <outline>
    <contour>
      <point x="518" y="131" type="line"/>
      <point x="632" y="302" type="line"/>
      <point x="632" y="131" type="line"/>
    </contour>
    <contour>
      <point x="188" y="0" type="line"/>
      <point x="250" y="0" type="line"/>
      <point x="652" y="650" type="line"/>
      <point x="591" y="650" type="line"/>
    </contour>
    <contour>
      <point x="632" y="0" type="line"/>
      <point x="689" y="0" type="line"/>
      <point x="689" y="84" type="line"/>
      <point x="742" y="84" type="line"/>
      <point x="740" y="131" type="line"/>
      <point x="690" y="131" type="line"/>
      <point x="690" y="377" type="line"/>
      <point x="627" y="377" type="line"/>
      <point x="455" y="127" type="line"/>
      <point x="455" y="84" type="line"/>
      <point x="632" y="84" type="line"/>
    </contour>
    <contour>
      <point x="157" y="260" type="curve" smooth="yes"/>
      <point x="222" y="260"/>
      <point x="282" y="297"/>
      <point x="282" y="375" type="curve" smooth="yes"/>
      <point x="282" y="417"/>
      <point x="256" y="453"/>
      <point x="211" y="467" type="curve"/>
      <point x="257" y="478"/>
      <point x="274" y="522"/>
      <point x="274" y="554" type="curve" smooth="yes"/>
      <point x="274" y="620"/>
      <point x="219" y="649"/>
      <point x="160" y="649" type="curve" smooth="yes"/>
      <point x="122" y="649"/>
      <point x="83" y="636"/>
      <point x="53" y="613" type="curve"/>
      <point x="75" y="572" type="line"/>
      <point x="105" y="590"/>
      <point x="134" y="598"/>
      <point x="157" y="598" type="curve" smooth="yes"/>
      <point x="191" y="598"/>
      <point x="214" y="579"/>
      <point x="214" y="544" type="curve" smooth="yes"/>
      <point x="214" y="509"/>
      <point x="188" y="488"/>
      <point x="146" y="488" type="curve" smooth="yes"/>
      <point x="104" y="488" type="line"/>
      <point x="104" y="437" type="line"/>
      <point x="147" y="437" type="line"/>
      <point x="198" y="437"/>
      <point x="223" y="416"/>
      <point x="223" y="374" type="curve" smooth="yes"/>
      <point x="223" y="330"/>
      <point x="194" y="312"/>
      <point x="157" y="312" type="curve" smooth="yes"/>
      <point x="131" y="312"/>
      <point x="100" y="322"/>
      <point x="74" y="338" type="curve"/>
      <point x="53" y="293" type="line"/>
      <point x="83" y="271"/>
      <point x="121" y="260"/>
    </contour>
  </outline>
</glyph>
<glyph name="AE" format="1">
  <advance width="705"/>
  <unicode hex="00C6"/>
  <outline>
    <contour>
      <point x="343" y="262" type="line"/>
      <point x="185" y="262" type="line"/>
      <point x="343" y="567" type="line"/>
    </contour>
    <contour>
      <point x="300" y="640" type="line"/>
      <point x="-41" y="0" type="line"/>
      <point x="49" y="0" type="line"/>
      <point x="156" y="203" type="line"/>
      <point x="343" y="203" type="line"/>
      <point x="343" y="0" type="line"/>
      <point x="682" y="0" type="line"/>
      <point x="688" y="65" type="line"/>
      <point x="422" y="65" type="line"/>
      <point x="422" y="302" type="line"/>
      <point x="652" y="302" type="line"/>
      <point x="652" y="366" type="line"/>
      <point x="422" y="366" type="line"/>
      <point x="422" y="576" type="line"/>
      <point x="678" y="576" type="line"/>
      <point x="680" y="640" type="line"/>
    </contour>
  </outline>
</glyph>
<glyph name="multiply" format="1">
  <advance width="436"/>
  <unicode hex="00D7"/>
  <outline>
    <contour>
      <point x="50" y="423" type="line"/>
      <point x="175" y="287" type="line"/>
      <point x="46" y="148" type="line"/>
      <point x="88" y="104" type="line"/>
      <point x="217" y="242" type="line"/>
      <point x="345" y="104" type="line"/>
      <point x="385" y="149" type="line"/>
      <point x="385" y="149"/>
      <point x="271" y="275"/>
      <point x="259" y="287" type="curve"/>
      <point x="384" y="421" type="line"/>
      <point x="340" y="466" type="line"/>
      <point x="217" y="332" type="line"/>
      <point x="92" y="467" type="line"/>
    </contour>
  </outline>
</glyph>
<glyph name="Oslash" format="1">
  <advance width="711"/>
  <unicode hex="00D8"/>
  <outline>
    <contour>
      <point x="357" y="640" type="move" name="top"/>
    </contour>
    <contour>
      <point x="356" y="58" type="curve" smooth="yes"/>
      <point x="334" y="58"/>
      <point x="315" y="62"/>
      <point x="297" y="66" type="curve"/>
      <point x="479" y="544" type="line"/>
      <point x="535" y="500"/>
      <point x="557" y="420"/>
      <point x="557" y="317" type="curve" smooth="yes"/>
      <point x="557" y="163"/>
      <point x="504" y="58"/>
    </contour>
    <contour>
      <point x="253" y="84" type="line"/>
      <point x="183" y="123"/>
      <point x="156" y="207"/>
      <point x="156" y="317" type="curve" smooth="yes"/>
      <point x="156" y="477"/>
      <point x="213" y="581"/>
      <point x="357" y="581" type="curve" smooth="yes"/>
      <point x="387" y="581"/>
      <point x="414" y="576"/>
      <point x="436" y="568" type="curve"/>
    </contour>
    <contour>
      <point x="230" y="-111" type="line"/>
      <point x="272" y="0" type="line"/>
      <point x="298" y="-6"/>
      <point x="325" y="-9"/>
      <point x="357" y="-9" type="curve" smooth="yes"/>
      <point x="551" y="-9"/>
      <point x="644" y="120"/>
      <point x="644" y="316" type="curve" smooth="yes"/>
      <point x="644" y="457"/>
      <point x="598" y="563"/>
      <point x="506" y="614" type="curve"/>
      <point x="548" y="725" type="line"/>
      <point x="501" y="743" type="line"/>
      <point x="460" y="634" type="line"/>
      <point x="429" y="645"/>
      <point x="395" y="649"/>
      <point x="357" y="649" type="curve" smooth="yes"/>
      <point x="163" y="649"/>
      <point x="68" y="521"/>
      <point x="68" y="317" type="curve" smooth="yes"/>
      <point x="68" y="169"/>
      <point x="120" y="60"/>
      <point x="227" y="15" type="curve"/>
      <point x="185" y="-94" type="line"/>
    </contour>
  </outline>
</glyph>
<glyph name="Thorn" format="1">
  <advance width="533"/>
  <unicode hex="00DE"/>
  <outline>
    <contour>
      <point x="84" y="0" type="line"/>
      <point x="169" y="0" type="line"/>
      <point x="169" y="197" type="line"/>
      <point x="249" y="197" type="line" smooth="yes"/>
      <point x="405" y="197"/>
      <point x="461" y="255"/>
      <point x="461" y="367" type="curve" smooth="yes"/>
      <point x="461" y="482"/>
      <point x="378" y="518"/>
      <point x="248" y="518" type="curve" smooth="yes"/>
      <point x="169" y="518" type="line"/>
      <point x="169" y="656" type="line"/>
      <point x="84" y="656" type="line"/>
    </contour>
    <contour>
      <point x="169" y="457" type="line"/>
      <point x="249" y="457" type="line" smooth="yes"/>
      <point x="333" y="457"/>
      <point x="376" y="438"/>
      <point x="376" y="365" type="curve" smooth="yes"/>
      <point x="376" y="285"/>
      <point x="345" y="259"/>
      <point x="246" y="259" type="curve" smooth="yes"/>
      <point x="169" y="259" type="line"/>
    </contour>
  </outline>
</glyph>
<glyph name="germandbls" format="1">
  <advance width="563"/>
  <unicode hex="00DF"/>
  <outline>
    <contour>
      <point x="374" y="-9" type="curve" smooth="yes"/>
      <point x="465" y="-9"/>
      <point x="518" y="44"/>
      <point x="518" y="130" type="curve" smooth="yes"/>
      <point x="518" y="261"/>
      <point x="347" y="309"/>
      <point x="347" y="359" type="curve" smooth="yes"/>
      <point x="347" y="398"/>
      <point x="439" y="447"/>
      <point x="439" y="542" type="curve" smooth="yes"/>
      <point x="439" y="628"/>
      <point x="373" y="682"/>
      <point x="273" y="682" type="curve" smooth="yes"/>
      <point x="142" y="682"/>
      <point x="73" y="604"/>
      <point x="73" y="474" type="curve" smooth="yes"/>
      <point x="73" y="0" type="line"/>
      <point x="152" y="0" type="line"/>
      <point x="152" y="474" type="line" smooth="yes"/>
      <point x="152" y="578"/>
      <point x="195" y="619"/>
      <point x="275" y="619" type="curve" smooth="yes"/>
      <point x="333" y="619"/>
      <point x="364" y="589"/>
      <point x="364" y="542" type="curve" smooth="yes"/>
      <point x="364" y="452"/>
      <point x="275" y="427"/>
      <point x="275" y="353" type="curve" smooth="yes"/>
      <point x="275" y="266"/>
      <point x="439" y="224"/>
      <point x="439" y="130" type="curve" smooth="yes"/>
      <point x="439" y="90"/>
      <point x="417" y="55"/>
      <point x="363" y="55" type="curve" smooth="yes"/>
      <point x="316" y="55"/>
      <point x="267" y="71"/>
      <point x="244" y="84" type="curve"/>
      <point x="224" y="25" type="line"/>
      <point x="260" y="7"/>
      <point x="320" y="-9"/>
    </contour>
  </outline>
</glyph>
<glyph name="ae" format="1">
  <advance width="728"/>
  <unicode hex="00E6"/>
  <outline>
    <contour>
      <point x="400" y="475" type="move" name="top"/>
    </contour>
    <contour>
      <point x="535" y="426" type="curve" smooth="yes"/>
      <point x="603" y="426"/>
      <point x="626" y="384"/>
      <point x="626" y="333" type="curve" smooth="yes"/>
      <point x="626" y="296"/>
      <point x="612" y="263"/>
      <point x="487" y="263" type="curve" smooth="yes"/>
      <point x="463" y="263"/>
      <point x="434" y="263"/>
      <point x="400" y="266" type="curve"/>
      <point x="406" y="373"/>
      <point x="455" y="426"/>
    </contour>
    <contour>
      <point x="324" y="157" type="line" smooth="yes"/>
      <point x="321" y="87"/>
      <point x="268" y="48"/>
      <point x="193" y="48" type="curve" smooth="yes"/>
      <point x="153" y="48"/>
      <point x="103" y="68"/>
      <point x="103" y="130" type="curve" smooth="yes"/>
      <point x="103" y="184"/>
      <point x="125" y="224"/>
      <point x="221" y="224" type="curve" smooth="yes"/>
      <point x="240" y="224"/>
      <point x="290" y="222"/>
      <point x="324" y="218" type="curve" smooth="yes"/>
    </contour>
    <contour>
      <point x="698" y="340" type="curve" smooth="yes"/>
      <point x="698" y="420"/>
      <point x="641" y="484"/>
      <point x="533" y="484" type="curve" smooth="yes"/>
      <point x="465" y="484"/>
      <point x="409" y="459"/>
      <point x="374" y="395" type="curve"/>
      <point x="354" y="461"/>
      <point x="298" y="484"/>
      <point x="221" y="484" type="curve" smooth="yes"/>
      <point x="146" y="484"/>
      <point x="92" y="466"/>
      <point x="36" y="428" type="curve"/>
      <point x="67" y="376" type="line"/>
      <point x="122" y="412"/>
      <point x="179" y="424"/>
      <point x="223" y="424" type="curve" smooth="yes"/>
      <point x="292" y="424"/>
      <point x="324" y="395"/>
      <point x="324" y="315" type="curve" smooth="yes"/>
      <point x="324" y="269" type="line"/>
      <point x="288" y="273"/>
      <point x="233" y="275"/>
      <point x="212" y="275" type="curve" smooth="yes"/>
      <point x="76" y="275"/>
      <point x="27" y="216"/>
      <point x="27" y="130" type="curve" smooth="yes"/>
      <point x="27" y="41"/>
      <point x="84" y="-5"/>
      <point x="169" y="-9" type="curve"/>
      <point x="245" y="-9"/>
      <point x="324" y="15"/>
      <point x="363" y="90" type="curve"/>
      <point x="396" y="25"/>
      <point x="458" y="-9"/>
      <point x="539" y="-9" type="curve" smooth="yes"/>
      <point x="606" y="-9"/>
      <point x="662" y="11"/>
      <point x="702" y="38" type="curve"/>
      <point x="679" y="91" type="line"/>
      <point x="640" y="69"/>
      <point x="605" y="50"/>
      <point x="549" y="50" type="curve" smooth="yes"/>
      <point x="466" y="50"/>
      <point x="407" y="92"/>
      <point x="399" y="212" type="curve"/>
      <point x="435" y="210"/>
      <point x="469" y="207"/>
      <point x="501" y="207" type="curve" smooth="yes"/>
      <point x="614" y="207"/>
      <point x="698" y="230"/>
    </contour>
  </outline>
</glyph>
<glyph name="eth" format="1">
  <advance width="533"/>
  <unicode hex="00F0"/>
  <outline>
    <contour>
      <point x="413" y="218" type="curve" smooth="yes"/>
      <point x="413" y="117"/>
      <point x="363" y="51"/>
      <point x="266" y="51" type="curve" smooth="yes"/>
      <point x="167" y="51"/>
      <point x="118" y="130"/>
      <point x="118" y="214" type="curve" smooth="yes"/>
      <point x="118" y="304"/>
      <point x="171" y="372"/>
      <point x="263" y="372" type="curve" smooth="yes"/>
      <point x="359" y="372"/>
      <point x="413" y="297"/>
    </contour>
    <contour>
      <point x="98" y="694" type="line"/>
      <point x="192" y="603" type="line"/>
      <point x="96" y="565" type="line"/>
      <point x="118" y="514" type="line"/>
      <point x="230" y="558" type="line"/>
      <point x="304" y="484"/>
      <point x="348" y="426"/>
      <point x="370" y="385" type="curve"/>
      <point x="345" y="404"/>
      <point x="316" y="428"/>
      <point x="256" y="428" type="curve" smooth="yes"/>
      <point x="133" y="428"/>
      <point x="44" y="343"/>
      <point x="44" y="215" type="curve" smooth="yes"/>
      <point x="44" y="96"/>
      <point x="121" y="-9"/>
      <point x="263" y="-9" type="curve" smooth="yes"/>
      <point x="409" y="-9"/>
      <point x="482" y="86"/>
      <point x="482" y="215" type="curve" smooth="yes"/>
      <point x="482" y="275"/>
      <point x="467" y="337"/>
      <point x="445" y="382" type="curve" smooth="yes"/>
      <point x="415" y="439"/>
      <point x="370" y="496"/>
      <point x="290" y="584" type="curve"/>
      <point x="399" y="626" type="line"/>
      <point x="377" y="676" type="line"/>
      <point x="251" y="627" type="line"/>
      <point x="185" y="694" type="line"/>
    </contour>
  </outline>
</glyph>
<glyph name="divide" format="1">
  <advance width="515"/>
  <unicode hex="00F7"/>
  <outline>
    <contour>
      <point x="213" y="484" type="line"/>
      <point x="213" y="392" type="line"/>
      <point x="302" y="392" type="line"/>
      <point x="302" y="484" type="line"/>
    </contour>
    <contour>
      <point x="213" y="108" type="line"/>
      <point x="213" y="14" type="line"/>
      <point x="301" y="14" type="line"/>
      <point x="301" y="108" type="line"/>
    </contour>
    <contour>
      <point x="45" y="285" type="line"/>
      <point x="45" y="222" type="line"/>
      <point x="469" y="222" type="line"/>
      <point x="469" y="285" type="line"/>
    </contour>
  </outline>
</glyph>
<glyph name="oslash" format="1">
  <advance width="529"/>
  <unicode hex="00F8"/>
  <outline>
    <contour>
      <point x="89" y="-58" type="line"/>
      <point x="118" y="-76" type="line"/>
      <point x="456" y="556" type="line"/>
      <point x="422" y="574" type="line"/>
    </contour>
    <component base="o"/>
  </outline>
</glyph>
<glyph name="thorn" format="1">
  <advance width="531"/>
  <unicode hex="00FE"/>
  <outline>
    <component base="b" xOffset="-24"/>
    <contour>
      <point x="52" y="157" type="line"/>
      <point x="52" y="-213" type="line"/>
      <point x="133" y="-213" type="line"/>
      <point x="133" y="157" type="line"/>
    </contour>
  </outline>
</glyph>
<glyph name="Hbar" format="1">
  <advance width="652"/>
  <unicode hex="0126"/>
  <outline>
    <contour>
      <point x="30" y="593" type="line"/>
      <point x="30" y="536" type="line"/>
      <point x="655" y="536" type="line"/>
      <point x="655" y="593" type="line"/>
    </contour>
    <component base="H"/>
  </outline>
</glyph>
<glyph name="dotlessi" format="1">
  <advance width="231"/>
  <unicode hex="0131"/>
  <outline>
    <contour>
      <point x="84" y="501" type="line"/>
      <point x="84" y="0" type="line"/>
      <point x="169" y="0" type="line"/>
      <point x="169" y="501" type="line"/>
    </contour>
    <contour>
      <point x="130" y="501" type="move" name="top"/>
    </contour>
  </outline>
</glyph>
<glyph name="kgreenlandic" format="1">
  <advance width="477"/>
  <unicode hex="0138"/>
  <outline>
    <contour>
      <point x="67" y="0" type="line"/>
      <point x="143" y="0" type="line"/>
      <point x="143" y="173" type="line"/>
      <point x="198" y="220" type="line"/>
      <point x="378" y="0" type="line"/>
      <point x="463" y="0" type="line"/>
      <point x="463" y="10" type="line"/>
      <point x="252" y="259" type="line"/>
      <point x="448" y="465" type="line"/>
      <point x="448" y="475" type="line"/>
      <point x="360" y="475" type="line"/>
      <point x="140" y="239" type="line"/>
      <point x="143" y="337" type="line"/>
      <point x="143" y="475" type="line"/>
      <point x="67" y="475" type="line"/>
    </contour>
  </outline>
</glyph>
<glyph name="Eng" format="1">
  <advance width="666"/>
  <unicode hex="014A"/>
  <outline>
    <component base="N"/>
    <contour>
      <point x="503" y="402" type="line"/>
      <point x="504" y="-1" type="line" smooth="yes"/>
      <point x="504" y="-95"/>
      <point x="482" y="-129"/>
      <point x="321" y="-129" type="curve"/>
      <point x="322" y="-191" type="line"/>
      <point x="505" y="-191"/>
      <point x="580" y="-147"/>
      <point x="580" y="-2" type="curve" smooth="yes"/>
      <point x="580" y="402" type="line"/>
    </contour>
  </outline>
</glyph>
<glyph name="eng" format="1">
  <advance width="525"/>
  <unicode hex="014B"/>
  <outline>
    <component base="n"/>
    <contour>
      <point x="384" y="56" type="line"/>
      <point x="384" y="-4" type="line"/>
      <point x="384" y="-98"/>
      <point x="368" y="-129"/>
      <point x="205" y="-129" type="curve"/>
      <point x="206" y="-191" type="line"/>
      <point x="401" y="-191"/>
      <point x="464" y="-151"/>
      <point x="464" y="-6" type="curve" smooth="yes"/>
      <point x="464" y="56" type="line"/>
    </contour>
  </outline>
</glyph>
<glyph name="OE" format="1">
  <advance width="1034"/>
  <unicode hex="0152"/>
  <outline>
    <contour>
      <point x="550" y="317" type="curve" smooth="yes"/>
      <point x="550" y="163"/>
      <point x="497" y="58"/>
      <point x="348" y="58" type="curve" smooth="yes"/>
      <point x="199" y="58"/>
      <point x="146" y="163"/>
      <point x="146" y="317" type="curve" smooth="yes"/>
      <point x="146" y="477"/>
      <point x="203" y="581"/>
      <point x="348" y="581" type="curve" smooth="yes"/>
      <point x="494" y="581"/>
      <point x="550" y="476"/>
    </contour>
    <contour>
      <point x="61" y="318" type="curve" smooth="yes"/>
      <point x="61" y="118"/>
      <point x="153" y="-9"/>
      <point x="348" y="-9" type="curve" smooth="yes"/>
      <point x="438" y="-9"/>
      <point x="509" y="23"/>
      <point x="550" y="79" type="curve"/>
      <point x="550" y="0" type="line"/>
      <point x="971" y="0" type="line"/>
      <point x="976" y="65" type="line"/>
      <point x="633" y="65" type="line"/>
      <point x="633" y="299" type="line"/>
      <point x="940" y="299" type="line"/>
      <point x="940" y="363" type="line"/>
      <point x="633" y="363" type="line"/>
      <point x="633" y="576" type="line"/>
      <point x="966" y="576" type="line"/>
      <point x="969" y="640" type="line"/>
      <point x="550" y="640" type="line"/>
      <point x="550" y="558" type="line"/>
      <point x="508" y="616"/>
      <point x="437" y="649"/>
      <point x="349" y="649" type="curve" smooth="yes"/>
      <point x="157" y="649"/>
      <point x="61" y="522"/>
    </contour>
  </outline>
</glyph>
<glyph name="oe" format="1">
  <advance width="838"/>
  <unicode hex="0153"/>
  <outline>
    <contour>
      <point x="476" y="275" type="line"/>
      <point x="484" y="369"/>
      <point x="540" y="428"/>
      <point x="616" y="428" type="curve" smooth="yes"/>
      <point x="692" y="428"/>
      <point x="728" y="371"/>
      <point x="730" y="275" type="curve"/>
    </contour>
    <contour>
      <point x="261" y="50" type="curve" smooth="yes"/>
      <point x="167" y="50"/>
      <point x="126" y="130"/>
      <point x="126" y="238" type="curve" smooth="yes"/>
      <point x="126" y="349"/>
      <point x="167" y="427"/>
      <point x="261" y="427" type="curve" smooth="yes"/>
      <point x="355" y="427"/>
      <point x="395" y="349"/>
      <point x="395" y="238" type="curve" smooth="yes"/>
      <point x="395" y="130"/>
      <point x="355" y="50"/>
    </contour>
    <contour>
      <point x="796" y="273" type="line" smooth="yes"/>
      <point x="796" y="404"/>
      <point x="726" y="486"/>
      <point x="612" y="486" type="curve" smooth="yes"/>
      <point x="541" y="486"/>
      <point x="468" y="442"/>
      <point x="438" y="374" type="curve"/>
      <point x="412" y="442"/>
      <point x="343" y="486"/>
      <point x="261" y="486" type="curve" smooth="yes"/>
      <point x="122" y="486"/>
      <point x="47" y="388"/>
      <point x="47" y="238" type="curve" smooth="yes"/>
      <point x="47" y="90"/>
      <point x="124" y="-9"/>
      <point x="261" y="-9" type="curve" smooth="yes"/>
      <point x="342" y="-9"/>
      <point x="415" y="39"/>
      <point x="437" y="107" type="curve"/>
      <point x="466" y="38"/>
      <point x="547" y="-9"/>
      <point x="624" y="-9" type="curve" smooth="yes"/>
      <point x="691" y="-9"/>
      <point x="745" y="12"/>
      <point x="783" y="38" type="curve"/>
      <point x="765" y="91" type="line"/>
      <point x="760" y="91" type="line"/>
      <point x="722" y="69"/>
      <point x="687" y="50"/>
      <point x="632" y="50" type="curve" smooth="yes"/>
      <point x="548" y="50"/>
      <point x="475" y="99"/>
      <point x="474" y="224" type="curve"/>
      <point x="792" y="224" type="line"/>
      <point x="792" y="224"/>
      <point x="796" y="249"/>
      <point x="796" y="263" type="curve" smooth="yes"/>
    </contour>
  </outline>
</glyph>
<glyph name="florin" format="1">
  <advance width="453"/>
  <unicode hex="0192"/>
  <outline>
    <contour>
      <point x="243" y="546" type="curve" smooth="yes"/>
      <point x="229" y="473" type="line"/>
      <point x="156" y="473" type="line"/>
      <point x="148" y="436" type="line"/>
      <point x="223" y="436" type="line"/>
      <point x="132" y="53" type="line"/>
      <point x="116" y="-18"/>
      <point x="124" y="-78"/>
      <point x="49" y="-78" type="curve" smooth="yes"/>
      <point x="37" y="-78"/>
      <point x="23" y="-77"/>
      <point x="7" y="-74" type="curve"/>
      <point x="-2" y="-112" type="line"/>
      <point x="13" y="-116"/>
      <point x="29" y="-119"/>
      <point x="43" y="-119" type="curve" smooth="yes"/>
      <point x="118" y="-119"/>
      <point x="182" y="-59"/>
      <point x="208" y="53" type="curve" smooth="yes"/>
      <point x="298" y="436" type="line"/>
      <point x="396" y="436" type="line"/>
      <point x="403" y="473" type="line"/>
      <point x="306" y="473" type="line"/>
      <point x="321" y="554" type="line" smooth="yes"/>
      <point x="330" y="600"/>
      <point x="342" y="642"/>
      <point x="384" y="642" type="curve" smooth="yes"/>
      <point x="385" y="642" type="line" smooth="yes"/>
      <point x="411" y="642"/>
      <point x="423" y="618"/>
      <point x="424" y="572" type="curve"/>
      <point x="483" y="572" type="line"/>
      <point x="483" y="657"/>
      <point x="438" y="682"/>
      <point x="382" y="682" type="curve" smooth="yes"/>
      <point x="299" y="682"/>
      <point x="258" y="623"/>
    </contour>
  </outline>
</glyph>
<glyph name="uni0237" format="1">
  <advance width="261"/>
  <unicode hex="0237"/>
  <outline>
    <contour>
      <point x="148" y="475" type="move" name="top"/>
    </contour>
    <contour>
      <point x="106" y="475" type="line"/>
      <point x="106" y="8" type="line" smooth="yes"/>
      <point x="106" y="-74"/>
      <point x="105" y="-89"/>
      <point x="38" y="-104" type="curve" smooth="yes"/>
      <point x="9" y="-112" type="line"/>
      <point x="22" y="-174" type="line"/>
      <point x="50" y="-169" type="line"/>
      <point x="148" y="-154"/>
      <point x="186" y="-120"/>
      <point x="186" y="-5" type="curve" smooth="yes"/>
      <point x="186" y="475" type="line"/>
    </contour>
  </outline>
</glyph>
<glyph name="uni0259" format="1">
  <advance width="502"/>
  <unicode hex="0259"/>
  <outline>
    <contour>
      <point x="380" y="202" type="line"/>
      <point x="372" y="108"/>
      <point x="317" y="50"/>
      <point x="241" y="50" type="curve" smooth="yes"/>
      <point x="165" y="50"/>
      <point x="129" y="107"/>
      <point x="128" y="202" type="curve"/>
    </contour>
    <contour>
      <point x="63" y="254" type="line"/>
      <point x="63" y="253"/>
      <point x="59" y="219"/>
      <point x="59" y="205" type="curve" smooth="yes"/>
      <point x="59" y="74"/>
      <point x="129" y="-9"/>
      <point x="245" y="-9" type="curve" smooth="yes"/>
      <point x="365" y="-9"/>
      <point x="463" y="83"/>
      <point x="463" y="241" type="curve" smooth="yes"/>
      <point x="463" y="393"/>
      <point x="364" y="486"/>
      <point x="235" y="486" type="curve" smooth="yes"/>
      <point x="168" y="486"/>
      <point x="112" y="466"/>
      <point x="73" y="439" type="curve"/>
      <point x="91" y="387" type="line"/>
      <point x="96" y="387" type="line"/>
      <point x="135" y="409"/>
      <point x="170" y="427"/>
      <point x="225" y="427" type="curve" smooth="yes"/>
      <point x="311" y="427"/>
      <point x="374" y="376"/>
      <point x="381" y="254" type="curve"/>
    </contour>
  </outline>
</glyph>
<glyph name="afii57929" format="1">
  <advance width="282"/>
  <unicode hex="02BC"/>
  <outline>
    <contour>
      <point x="53" y="535" type="curve"/>
      <point x="118" y="535" type="line"/>
      <point x="118" y="535"/>
      <point x="164" y="697"/>
      <point x="171" y="738" type="curve"/>
      <point x="83" y="738" type="line"/>
      <point x="81" y="717"/>
      <point x="53" y="535"/>
    </contour>
  </outline>
</glyph>
<glyph name="uni02BC" format="1">
  <advance width="282"/>
  <unicode hex="02BC"/>
  <outline>
    <contour>
      <point x="50" y="507" type="curve"/>
      <point x="112" y="507" type="line"/>
      <point x="112" y="507"/>
      <point x="155" y="660"/>
      <point x="162" y="699" type="curve"/>
      <point x="79" y="699" type="line"/>
      <point x="77" y="679"/>
      <point x="50" y="507"/>
    </contour>
  </outline>
</glyph>
<glyph name="circumflex" format="1">
  <advance width="388"/>
  <unicode hex="02C6"/>
  <outline>
    <contour>
      <point x="191" y="475" type="move" name="_top"/>
    </contour>
    <contour>
      <point x="59" y="550" type="line"/>
      <point x="129" y="550" type="line"/>
      <point x="189" y="651" type="line"/>
      <point x="248" y="550" type="line"/>
      <point x="318" y="550" type="line"/>
      <point x="231" y="702" type="line"/>
      <point x="147" y="702" type="line"/>
    </contour>
  </outline>
</glyph>
<glyph name="caron" format="1">
  <advance width="394"/>
  <unicode hex="02C7"/>
  <outline>
    <contour>
      <point x="195" y="475" type="move" name="_top"/>
    </contour>
    <contour>
      <point x="147" y="544" type="line"/>
      <point x="231" y="544" type="line"/>
      <point x="318" y="697" type="line"/>
      <point x="248" y="697" type="line"/>
      <point x="189" y="596" type="line"/>
      <point x="130" y="697" type="line"/>
      <point x="60" y="697" type="line"/>
    </contour>
  </outline>
</glyph>
<glyph name="uni02C9" format="1">
  <advance width="262"/>
  <unicode hex="02C9"/>
  <outline>
    <contour>
      <point x="135" y="469" type="move" name="_top"/>
    </contour>
    <contour>
      <point x="-4" y="579" type="line"/>
      <point x="265" y="579" type="line"/>
      <point x="265" y="636" type="line"/>
      <point x="-4" y="636" type="line"/>
    </contour>
  </outline>
</glyph>
<glyph name="breve" format="1">
  <advance width="383"/>
  <unicode hex="02D8"/>
  <outline>
    <contour>
      <point x="187" y="469" type="move" name="_top"/>
    </contour>
    <contour>
      <point x="186" y="566" type="curve" smooth="yes"/>
      <point x="247" y="566"/>
      <point x="294" y="600"/>
      <point x="294" y="673" type="curve"/>
      <point x="244" y="673" type="line"/>
      <point x="244" y="633"/>
      <point x="214" y="616"/>
      <point x="186" y="616" type="curve" smooth="yes"/>
      <point x="158" y="616"/>
      <point x="130" y="633"/>
      <point x="130" y="673" type="curve"/>
      <point x="78" y="673" type="line"/>
      <point x="78" y="600"/>
      <point x="126" y="566"/>
    </contour>
  </outline>
</glyph>
<glyph name="dotaccent" format="1">
  <advance width="198"/>
  <unicode hex="02D9"/>
  <outline>
    <contour>
      <point x="99" y="475" type="move" name="_top"/>
    </contour>
    <contour>
      <point x="158" y="629" type="curve" smooth="yes"/>
      <point x="158" y="663"/>
      <point x="136" y="684"/>
      <point x="99" y="684" type="curve" smooth="yes"/>
      <point x="62" y="684"/>
      <point x="41" y="663"/>
      <point x="41" y="629" type="curve" smooth="yes"/>
      <point x="41" y="594"/>
      <point x="62" y="572"/>
      <point x="99" y="572" type="curve" smooth="yes"/>
      <point x="136" y="572"/>
      <point x="158" y="594"/>
    </contour>
  </outline>
</glyph>
<glyph name="ring" format="1">
  <advance width="312"/>
  <unicode hex="02DA"/>
  <outline>
    <contour>
      <point x="151" y="469" type="move" name="_top"/>
    </contour>
    <contour>
      <point x="151" y="526" type="curve" smooth="yes"/>
      <point x="201" y="526"/>
      <point x="237" y="563"/>
      <point x="237" y="608" type="curve" smooth="yes"/>
      <point x="237" y="653"/>
      <point x="201" y="690"/>
      <point x="151" y="690" type="curve" smooth="yes"/>
      <point x="101" y="690"/>
      <point x="68" y="653"/>
      <point x="68" y="608" type="curve" smooth="yes"/>
      <point x="68" y="563"/>
      <point x="101" y="526"/>
    </contour>
    <contour>
      <point x="151" y="562" type="curve" smooth="yes"/>
      <point x="126" y="562"/>
      <point x="110" y="583"/>
      <point x="110" y="608" type="curve" smooth="yes"/>
      <point x="110" y="631"/>
      <point x="126" y="653"/>
      <point x="151" y="653" type="curve" smooth="yes"/>
      <point x="176" y="653"/>
      <point x="194" y="631"/>
      <point x="194" y="608" type="curve" smooth="yes"/>
      <point x="194" y="584"/>
      <point x="176" y="562"/>
    </contour>
  </outline>
</glyph>
<glyph name="ogonek" format="1">
  <advance width="336"/>
  <unicode hex="02DB"/>
  <outline>
    <contour>
      <point x="194" y="-186" type="curve" smooth="yes"/>
      <point x="216" y="-186"/>
      <point x="245" y="-179"/>
      <point x="260" y="-172" type="curve"/>
      <point x="258" y="-124" type="line"/>
      <point x="250" y="-128"/>
      <point x="229" y="-135"/>
      <point x="210" y="-135" type="curve" smooth="yes"/>
      <point x="190" y="-135"/>
      <point x="174" y="-124"/>
      <point x="174" y="-100" type="curve" smooth="yes"/>
      <point x="174" y="-67"/>
      <point x="210" y="-18"/>
      <point x="237" y="2" type="curve"/>
      <point x="200" y="2" type="line"/>
      <point x="156" y="-17"/>
      <point x="111" y="-67"/>
      <point x="111" y="-118" type="curve" smooth="yes"/>
      <point x="111" y="-159"/>
      <point x="139" y="-186"/>
    </contour>
  </outline>
</glyph>
<glyph name="tilde" format="1">
  <advance width="434"/>
  <unicode hex="02DC"/>
  <outline>
    <contour>
      <point x="217" y="469" type="move" name="_top"/>
    </contour>
    <contour>
      <point x="76" y="569" type="curve"/>
      <point x="117" y="569" type="line"/>
      <point x="121" y="601"/>
      <point x="132" y="612"/>
      <point x="147" y="612" type="curve" smooth="yes"/>
      <point x="179" y="612"/>
      <point x="231" y="569"/>
      <point x="277" y="569" type="curve" smooth="yes"/>
      <point x="317" y="569"/>
      <point x="344" y="602"/>
      <point x="344" y="662" type="curve"/>
      <point x="302" y="662" type="line"/>
      <point x="298" y="633"/>
      <point x="289" y="624"/>
      <point x="275" y="624" type="curve" smooth="yes"/>
      <point x="248" y="624"/>
      <point x="202" y="662"/>
      <point x="149" y="662" type="curve" smooth="yes"/>
      <point x="103" y="662"/>
      <point x="76" y="629"/>
    </contour>
  </outline>
</glyph>
<glyph name="hungarumlaut" format="1">
  <advance width="356"/>
  <unicode hex="02DD"/>
  <outline>
    <contour>
      <point x="152" y="469" type="move" name="_top"/>
    </contour>
    <contour>
      <point x="191" y="548" type="line"/>
      <point x="238" y="548" type="line"/>
      <point x="338" y="702" type="line"/>
      <point x="256" y="702" type="line"/>
    </contour>
    <contour>
      <point x="69" y="548" type="line"/>
      <point x="118" y="548" type="line"/>
      <point x="200" y="702" type="line"/>
      <point x="127" y="702" type="line"/>
    </contour>
  </outline>
</glyph>
<glyph name="uni0307" format="1">
  <advance width="191"/>
  <unicode hex="0307"/>
  <outline>
    <contour>
      <point x="154" y="638" type="curve" smooth="yes"/>
      <point x="154" y="671"/>
      <point x="134" y="690"/>
      <point x="98" y="690" type="curve" smooth="yes"/>
      <point x="62" y="690"/>
      <point x="42" y="671"/>
      <point x="42" y="638" type="curve" smooth="yes"/>
      <point x="42" y="604"/>
      <point x="62" y="584"/>
      <point x="98" y="584" type="curve" smooth="yes"/>
      <point x="134" y="584"/>
      <point x="154" y="604"/>
    </contour>
  </outline>
</glyph>
<glyph name="uni030F" format="1">
  <advance width="390"/>
  <unicode hex="030F"/>
  <outline>
    <contour>
      <point x="212" y="469" type="move" name="_top"/>
    </contour>
    <contour>
      <point x="246" y="548" type="line"/>
      <point x="295" y="548" type="line"/>
      <point x="238" y="702" type="line"/>
      <point x="164" y="702" type="line"/>
    </contour>
    <contour>
      <point x="125" y="548" type="line"/>
      <point x="173" y="548" type="line"/>
      <point x="107" y="702" type="line"/>
      <point x="26" y="702" type="line"/>
    </contour>
  </outline>
</glyph>
<glyph name="uni0311" format="1">
  <advance width="350"/>
  <unicode hex="0311"/>
  <outline>
    <contour>
      <point x="181" y="469" type="move" name="_top"/>
    </contour>
    <contour>
      <point x="72" y="566" type="curve"/>
      <point x="123" y="566" type="line"/>
      <point x="123" y="606"/>
      <point x="151" y="624"/>
      <point x="179" y="624" type="curve" smooth="yes"/>
      <point x="207" y="624"/>
      <point x="237" y="606"/>
      <point x="237" y="566" type="curve"/>
      <point x="287" y="566" type="line"/>
      <point x="287" y="638"/>
      <point x="239" y="673"/>
      <point x="179" y="673" type="curve" smooth="yes"/>
      <point x="119" y="673"/>
      <point x="72" y="639"/>
    </contour>
  </outline>
</glyph>
<glyph name="uni0312" format="1">
  <advance width="262"/>
  <unicode hex="0312"/>
  <outline>
    <contour>
      <point x="130" y="469" type="move" name="_top"/>
    </contour>
    <contour>
      <point x="87" y="573" type="curve"/>
      <point x="86" y="563" type="line"/>
      <point x="172" y="563" type="line"/>
      <point x="172" y="594"/>
      <point x="186" y="784"/>
      <point x="186" y="784" type="curve"/>
      <point x="133" y="784" type="line"/>
      <point x="133" y="784"/>
      <point x="87" y="591"/>
    </contour>
  </outline>
</glyph>
<glyph name="uni0326" format="1">
  <advance width="268"/>
  <unicode hex="0326"/>
  <outline>
    <contour>
      <point x="145" y="0" type="move" name="_bot"/>
    </contour>
    <contour>
      <point x="86" y="-230" type="curve"/>
      <point x="139" y="-230" type="line"/>
      <point x="139" y="-230"/>
      <point x="183" y="-77"/>
      <point x="183" y="-58" type="curve"/>
      <point x="106" y="-58" type="line"/>
      <point x="106" y="-89"/>
      <point x="86" y="-230"/>
    </contour>
  </outline>
</glyph>
<glyph name="uni0358" format="1">
  <advance width="191"/>
  <unicode hex="0358"/>
  <outline>
    <contour>
      <point x="163" y="673" type="curve" smooth="yes"/>
      <point x="163" y="708"/>
      <point x="141" y="728"/>
      <point x="103" y="728" type="curve" smooth="yes"/>
      <point x="65" y="728"/>
      <point x="44" y="708"/>
      <point x="44" y="673" type="curve" smooth="yes"/>
      <point x="44" y="637"/>
      <point x="65" y="616"/>
      <point x="103" y="616" type="curve" smooth="yes"/>
      <point x="141" y="616"/>
      <point x="163" y="637"/>
    </contour>
  </outline>
</glyph>
<glyph name="uni0394" format="1">
  <advance width="585"/>
  <unicode hex="0394"/>
  <outline>
    <contour>
      <point x="116" y="67" type="line"/>
      <point x="291" y="572" type="line"/>
      <point x="467" y="67" type="line"/>
    </contour>
    <contour>
      <point x="19" y="0" type="line"/>
      <point x="565" y="0" type="line"/>
      <point x="328" y="653" type="line"/>
      <point x="252" y="653" type="line"/>
    </contour>
  </outline>
</glyph>
<glyph name="Sigma" format="1">
  <advance width="467"/>
  <unicode hex="03A3"/>
  <outline>
    <contour>
      <point x="38" y="640" type="line"/>
      <point x="38" y="593" type="line"/>
      <point x="250" y="274" type="line"/>
      <point x="29" y="-42" type="line"/>
      <point x="29" y="-87" type="line"/>
      <point x="455" y="-87" type="line"/>
      <point x="455" y="-16" type="line"/>
      <point x="136" y="-16" type="line"/>
      <point x="344" y="272" type="line"/>
      <point x="145" y="572" type="line"/>
      <point x="436" y="572" type="line"/>
      <point x="436" y="640" type="line"/>
    </contour>
  </outline>
</glyph>
<glyph name="uni03A9" format="1">
  <advance width="703"/>
  <unicode hex="03A9"/>
  <outline>
    <contour>
      <point x="54" y="0" type="line"/>
      <point x="48" y="51" type="line"/>
      <point x="206" y="51" type="line"/>
      <point x="118" y="112"/>
      <point x="54" y="212"/>
      <point x="54" y="339" type="curve" smooth="yes"/>
      <point x="54" y="519"/>
      <point x="183" y="636"/>
      <point x="358" y="636" type="curve" smooth="yes"/>
      <point x="539" y="636"/>
      <point x="653" y="507"/>
      <point x="653" y="338" type="curve" smooth="yes"/>
      <point x="653" y="208"/>
      <point x="576" y="110"/>
      <point x="499" y="51" type="curve"/>
      <point x="655" y="51" type="line"/>
      <point x="650" y="0" type="line"/>
      <point x="428" y="0" type="line"/>
      <point x="427" y="49" type="line"/>
      <point x="518" y="109"/>
      <point x="584" y="208"/>
      <point x="584" y="330" type="curve" smooth="yes"/>
      <point x="584" y="464"/>
      <point x="507" y="580"/>
      <point x="356" y="580" type="curve" smooth="yes"/>
      <point x="218" y="580"/>
      <point x="122" y="480"/>
      <point x="122" y="332" type="curve" smooth="yes"/>
      <point x="122" y="210"/>
      <point x="185" y="109"/>
      <point x="279" y="49" type="curve"/>
      <point x="279" y="0" type="line"/>
    </contour>
  </outline>
</glyph>
<glyph name="uni03BC" format="1">
  <advance width="525"/>
  <unicode hex="03BC"/>
  <outline>
    <contour>
      <point x="381" y="113" type="line"/>
      <point x="363" y="90"/>
      <point x="324" y="50"/>
      <point x="249" y="50" type="curve" smooth="yes"/>
      <point x="174" y="50"/>
      <point x="148" y="97"/>
      <point x="148" y="179" type="curve" smooth="yes"/>
      <point x="148" y="475" type="line"/>
      <point x="68" y="475" type="line"/>
      <point x="68" y="-127" type="line"/>
      <point x="148" y="-127" type="line"/>
      <point x="148" y="10" type="line"/>
      <point x="172" y="-3"/>
      <point x="202" y="-9"/>
      <point x="238" y="-9" type="curve" smooth="yes"/>
      <point x="308" y="-9"/>
      <point x="355" y="19"/>
      <point x="387" y="59" type="curve"/>
      <point x="392" y="0" type="line"/>
      <point x="460" y="0" type="line"/>
      <point x="460" y="475" type="line"/>
      <point x="381" y="475" type="line"/>
    </contour>
  </outline>
</glyph>
<glyph name="pi" format="1">
  <advance width="634"/>
  <unicode hex="03C0"/>
  <outline>
    <contour>
      <point x="502" y="-5" type="curve" smooth="yes"/>
      <point x="537" y="-5"/>
      <point x="566" y="5"/>
      <point x="581" y="20" type="curve"/>
      <point x="581" y="77" type="line"/>
      <point x="568" y="73"/>
      <point x="545" y="62"/>
      <point x="526" y="62" type="curve" smooth="yes"/>
      <point x="491" y="62"/>
      <point x="472" y="103"/>
      <point x="472" y="191" type="curve" smooth="yes"/>
      <point x="472" y="241"/>
      <point x="477" y="315"/>
      <point x="488" y="398" type="curve"/>
      <point x="593" y="398" type="line"/>
      <point x="593" y="475" type="line"/>
      <point x="194" y="475" type="line" smooth="yes"/>
      <point x="87" y="475"/>
      <point x="54" y="435"/>
      <point x="54" y="338" type="curve"/>
      <point x="97" y="338" type="line"/>
      <point x="102" y="372"/>
      <point x="120" y="398"/>
      <point x="156" y="398" type="curve" smooth="yes"/>
      <point x="211" y="398" type="line"/>
      <point x="183" y="175" type="line" smooth="yes"/>
      <point x="170" y="78"/>
      <point x="113" y="50"/>
      <point x="59" y="50" type="curve"/>
      <point x="59" y="2" type="line"/>
      <point x="215" y="2"/>
      <point x="247" y="48"/>
      <point x="251" y="146" type="curve" smooth="yes"/>
      <point x="263" y="398" type="line"/>
      <point x="429" y="398" type="line"/>
      <point x="415" y="296"/>
      <point x="397" y="194"/>
      <point x="397" y="123" type="curve" smooth="yes"/>
      <point x="397" y="42"/>
      <point x="424" y="-5"/>
    </contour>
  </outline>
</glyph>
<glyph name="endash" format="1">
  <advance width="579"/>
  <unicode hex="2013"/>
  <outline>
    <contour>
      <point x="34" y="243" type="line"/>
      <point x="578" y="243" type="line"/>
      <point x="578" y="303" type="line"/>
      <point x="34" y="303" type="line"/>
    </contour>
  </outline>
</glyph>
<glyph name="emdash" format="1">
  <advance width="935"/>
  <unicode hex="2014"/>
  <outline>
    <contour>
      <point x="26" y="226" type="line"/>
      <point x="909" y="226" type="line"/>
      <point x="909" y="289" type="line"/>
      <point x="26" y="289" type="line"/>
    </contour>
  </outline>
</glyph>
<glyph name="quoteleft" format="1">
  <advance width="230"/>
  <unicode hex="2018"/>
  <outline>
    <contour>
      <point x="175" y="661" type="line"/>
      <point x="118" y="661" type="line"/>
      <point x="69" y="448" type="line"/>
      <point x="154" y="448" type="line"/>
    </contour>
  </outline>
</glyph>
<glyph name="quoteright" format="1">
  <advance width="230"/>
  <unicode hex="2019"/>
  <outline>
    <contour>
      <point x="69" y="448" type="line"/>
      <point x="127" y="448" type="line"/>
      <point x="175" y="661" type="line"/>
      <point x="90" y="661" type="line"/>
    </contour>
  </outline>
</glyph>
<glyph name="quotesinglbase" format="1">
  <advance width="201"/>
  <unicode hex="201A"/>
  <outline>
    <contour>
      <point x="43" y="-138" type="line"/>
      <point x="97" y="-138" type="line"/>
      <point x="147" y="71" type="line"/>
      <point x="68" y="71" type="line"/>
    </contour>
  </outline>
</glyph>
<glyph name="quotedblleft" format="1">
  <advance width="397"/>
  <unicode hex="201C"/>
  <outline>
    <contour>
      <point x="225" y="448" type="line"/>
      <point x="310" y="448" type="line"/>
      <point x="330" y="661" type="line"/>
      <point x="273" y="661" type="line"/>
    </contour>
    <contour>
      <point x="69" y="448" type="line"/>
      <point x="154" y="448" type="line"/>
      <point x="175" y="661" type="line"/>
      <point x="118" y="661" type="line"/>
    </contour>
  </outline>
</glyph>
<glyph name="quotedblright" format="1">
  <advance width="397"/>
  <unicode hex="201D"/>
  <outline>
    <contour>
      <point x="69" y="448" type="line"/>
      <point x="127" y="448" type="line"/>
      <point x="175" y="661" type="line"/>
      <point x="90" y="661" type="line"/>
    </contour>
    <contour>
      <point x="225" y="448" type="line"/>
      <point x="282" y="448" type="line"/>
      <point x="330" y="661" type="line"/>
      <point x="245" y="661" type="line"/>
    </contour>
  </outline>
</glyph>
<glyph name="quotedblbase" format="1">
  <advance width="335"/>
  <unicode hex="201E"/>
  <outline>
    <contour>
      <point x="184" y="-138" type="line"/>
      <point x="236" y="-138" type="line"/>
      <point x="284" y="71" type="line"/>
      <point x="205" y="71" type="line"/>
    </contour>
    <contour>
      <point x="48" y="-138" type="line"/>
      <point x="101" y="-138" type="line"/>
      <point x="148" y="71" type="line"/>
      <point x="70" y="71" type="line"/>
    </contour>
  </outline>
</glyph>
<glyph name="dagger" format="1">
  <advance width="465"/>
  <unicode hex="2020"/>
  <outline>
    <contour>
      <point x="202" y="655" type="line"/>
      <point x="202" y="488" type="line"/>
      <point x="76" y="488" type="line"/>
      <point x="76" y="438" type="line"/>
      <point x="202" y="438" type="line"/>
      <point x="202" y="42" type="line"/>
      <point x="259" y="42" type="line"/>
      <point x="259" y="438" type="line"/>
      <point x="389" y="438" type="line"/>
      <point x="389" y="488" type="line"/>
      <point x="259" y="488" type="line"/>
      <point x="259" y="655" type="line"/>
    </contour>
  </outline>
</glyph>
<glyph name="daggerdbl" format="1">
  <advance width="452"/>
  <unicode hex="2021"/>
  <outline>
    <contour>
      <point x="202" y="647" type="line"/>
      <point x="202" y="479" type="line"/>
      <point x="78" y="479" type="line"/>
      <point x="78" y="431" type="line"/>
      <point x="202" y="431" type="line"/>
      <point x="202" y="241" type="line"/>
      <point x="78" y="241" type="line"/>
      <point x="78" y="195" type="line"/>
      <point x="202" y="195" type="line"/>
      <point x="202" y="25" type="line"/>
      <point x="258" y="25" type="line"/>
      <point x="258" y="195" type="line"/>
      <point x="380" y="195" type="line"/>
      <point x="380" y="241" type="line"/>
      <point x="259" y="241" type="line"/>
      <point x="259" y="431" type="line"/>
      <point x="380" y="431" type="line"/>
      <point x="380" y="479" type="line"/>
      <point x="257" y="479" type="line"/>
      <point x="257" y="647" type="line"/>
    </contour>
  </outline>
</glyph>
<glyph name="bullet" format="1">
  <advance width="400"/>
  <unicode hex="2022"/>
  <outline>
    <contour>
      <point x="195" y="179" type="curve" smooth="yes"/>
      <point x="270" y="179"/>
      <point x="338" y="233"/>
      <point x="338" y="326" type="curve" smooth="yes"/>
      <point x="338" y="418"/>
      <point x="272" y="471"/>
      <point x="198" y="471" type="curve" smooth="yes"/>
      <point x="123" y="471"/>
      <point x="57" y="416"/>
      <point x="57" y="323" type="curve" smooth="yes"/>
      <point x="57" y="231"/>
      <point x="121" y="179"/>
    </contour>
  </outline>
</glyph>
<glyph name="perthousand" format="1">
  <advance width="1027"/>
  <unicode hex="2030"/>
  <outline>
    <component base="percent" xOffset="6"/>
    <contour>
      <point x="824" y="-2" type="curve" smooth="yes"/>
      <point x="924" y="-2"/>
      <point x="959" y="72"/>
      <point x="959" y="167" type="curve" smooth="yes"/>
      <point x="959" y="264"/>
      <point x="925" y="337"/>
      <point x="824" y="337" type="curve" smooth="yes"/>
      <point x="726" y="337"/>
      <point x="687" y="262"/>
      <point x="687" y="167" type="curve" smooth="yes"/>
      <point x="687" y="72"/>
      <point x="724" y="-2"/>
    </contour>
    <contour>
      <point x="824" y="44" type="curve" smooth="yes"/>
      <point x="756" y="44"/>
      <point x="742" y="97"/>
      <point x="742" y="168" type="curve" smooth="yes"/>
      <point x="742" y="237"/>
      <point x="756" y="290"/>
      <point x="824" y="290" type="curve" smooth="yes"/>
      <point x="891" y="290"/>
      <point x="904" y="240"/>
      <point x="904" y="168" type="curve" smooth="yes"/>
      <point x="904" y="99"/>
      <point x="891" y="44"/>
    </contour>
  </outline>
</glyph>
<glyph name="guilsinglleft" format="1">
  <advance width="276"/>
  <unicode hex="2039"/>
  <outline>
    <contour>
      <point x="167" y="66" type="line"/>
      <point x="238" y="66" type="line"/>
      <point x="117" y="244" type="line"/>
      <point x="241" y="422" type="line"/>
      <point x="169" y="422" type="line"/>
      <point x="42" y="243" type="line"/>
    </contour>
  </outline>
</glyph>
<glyph name="guilsinglright" format="1">
  <advance width="336"/>
  <unicode hex="203A"/>
  <outline>
    <contour>
      <point x="72" y="70" type="line"/>
      <point x="148" y="70" type="line"/>
      <point x="282" y="265" type="line"/>
      <point x="146" y="463" type="line"/>
      <point x="70" y="463" type="line"/>
      <point x="201" y="265" type="line"/>
    </contour>
  </outline>
</glyph>
<glyph name="fraction" format="1">
  <advance width="458"/>
  <unicode hex="2044"/>
  <outline>
    <contour>
      <point x="56" y="0" type="line"/>
      <point x="122" y="0" type="line"/>
      <point x="409" y="644" type="line"/>
      <point x="341" y="644" type="line"/>
    </contour>
  </outline>
</glyph>
<glyph name="uni2074" format="1">
  <advance width="307"/>
  <unicode hex="2074"/>
  <outline>
    <contour>
      <point x="79" y="409" type="line"/>
      <point x="180" y="582" type="line"/>
      <point x="180" y="409" type="line"/>
    </contour>
    <contour>
      <point x="180" y="273" type="line"/>
      <point x="235" y="273" type="line"/>
      <point x="234" y="364" type="line"/>
      <point x="284" y="364" type="line"/>
      <point x="287" y="409" type="line"/>
      <point x="235" y="409" type="line"/>
      <point x="235" y="654" type="line"/>
      <point x="176" y="654" type="line"/>
      <point x="21" y="411" type="line"/>
      <point x="21" y="364" type="line"/>
      <point x="180" y="364" type="line"/>
    </contour>
  </outline>
</glyph>
<glyph name="Euro" format="1">
  <advance width="611"/>
  <unicode hex="20AC"/>
  <outline>
    <component base="C" xOffset="-33"/>
    <contour>
      <point x="-23" y="232" type="line"/>
      <point x="356" y="232" type="line"/>
      <point x="358" y="283" type="line"/>
      <point x="94" y="283" type="line"/>
      <point x="94" y="359" type="line"/>
      <point x="358" y="359" type="line"/>
      <point x="361" y="409" type="line"/>
      <point x="-18" y="409" type="line"/>
      <point x="-20" y="359" type="line"/>
      <point x="54" y="359" type="line"/>
      <point x="54" y="283" type="line"/>
      <point x="-20" y="283" type="line"/>
    </contour>
  </outline>
</glyph>
<glyph name="uni2113" format="1">
  <advance width="534"/>
  <unicode hex="2113"/>
  <outline>
    <contour>
      <point x="278" y="354" type="line"/>
      <point x="320" y="518" type="line" smooth="yes"/>
      <point x="339" y="594"/>
      <point x="347" y="656"/>
      <point x="398" y="671" type="curve" smooth="yes"/>
      <point x="408" y="674"/>
      <point x="417" y="676"/>
      <point x="425" y="676" type="curve" smooth="yes"/>
      <point x="466" y="676"/>
      <point x="484" y="640"/>
      <point x="484" y="608" type="curve" smooth="yes"/>
      <point x="484" y="533"/>
      <point x="440" y="483"/>
      <point x="370" y="427" type="curve" smooth="yes"/>
    </contour>
    <contour>
      <point x="133" y="116" type="curve" smooth="yes"/>
      <point x="133" y="28"/>
      <point x="179" y="-9"/>
      <point x="247" y="-9" type="curve" smooth="yes"/>
      <point x="347" y="-9"/>
      <point x="413" y="43"/>
      <point x="413" y="43" type="curve"/>
      <point x="402" y="97" type="line"/>
      <point x="357" y="73"/>
      <point x="318" y="58"/>
      <point x="282" y="58" type="curve" smooth="yes"/>
      <point x="244" y="58"/>
      <point x="226" y="79"/>
      <point x="226" y="119" type="curve" smooth="yes"/>
      <point x="226" y="137"/>
      <point x="230" y="159"/>
      <point x="236" y="184" type="curve" smooth="yes"/>
      <point x="259" y="276" type="line"/>
      <point x="388" y="380" type="line" smooth="yes"/>
      <point x="495" y="466"/>
      <point x="537" y="516"/>
      <point x="537" y="609" type="curve" smooth="yes"/>
      <point x="537" y="700"/>
      <point x="473" y="742"/>
      <point x="405" y="742" type="curve" smooth="yes"/>
      <point x="346" y="742"/>
      <point x="283" y="713"/>
      <point x="256" y="614" type="curve" smooth="yes"/>
      <point x="166" y="281" type="line"/>
      <point x="35" y="182" type="line"/>
      <point x="55" y="147" type="line"/>
      <point x="149" y="217" type="line"/>
      <point x="138" y="178"/>
      <point x="133" y="144"/>
    </contour>
  </outline>
</glyph>
<glyph name="trademark" format="1">
  <advance width="966"/>
  <unicode hex="2122"/>
  <outline>
    <contour>
      <point x="172" y="230" type="line"/>
      <point x="236" y="230" type="line"/>
      <point x="236" y="588" type="line"/>
      <point x="374" y="588" type="line"/>
      <point x="374" y="640" type="line"/>
      <point x="36" y="640" type="line"/>
      <point x="36" y="588" type="line"/>
      <point x="172" y="588" type="line"/>
    </contour>
    <contour>
      <point x="428" y="230" type="line"/>
      <point x="486" y="230" type="line"/>
      <point x="488" y="557" type="line"/>
      <point x="621" y="278" type="line"/>
      <point x="667" y="278" type="line"/>
      <point x="800" y="554" type="line"/>
      <point x="804" y="230" type="line"/>
      <point x="860" y="230" type="line"/>
      <point x="852" y="640" type="line"/>
      <point x="788" y="640" type="line"/>
      <point x="644" y="349" type="line"/>
      <point x="503" y="640" type="line"/>
      <point x="436" y="640" type="line"/>
    </contour>
  </outline>
</glyph>
<glyph name="estimated" format="1">
  <advance width="534"/>
  <unicode hex="212E"/>
  <outline>
    <contour>
      <point x="441" y="264" type="curve"/>
      <point x="143" y="264" type="line"/>
      <point x="149" y="378"/>
      <point x="214" y="456"/>
      <point x="290" y="456" type="curve" smooth="yes"/>
      <point x="382" y="456"/>
      <point x="441" y="367"/>
    </contour>
    <contour>
      <point x="45" y="238" type="curve" smooth="yes"/>
      <point x="45" y="98"/>
      <point x="127" y="-9"/>
      <point x="295" y="-9" type="curve" smooth="yes"/>
      <point x="386" y="-9"/>
      <point x="446" y="31"/>
      <point x="489" y="83" type="curve"/>
      <point x="466" y="105" type="line"/>
      <point x="423" y="59"/>
      <point x="374" y="23"/>
      <point x="295" y="23" type="curve" smooth="yes"/>
      <point x="194" y="23"/>
      <point x="142" y="107"/>
      <point x="142" y="229" type="curve"/>
      <point x="492" y="229" type="line"/>
      <point x="492" y="381"/>
      <point x="427" y="483"/>
      <point x="287" y="483" type="curve" smooth="yes"/>
      <point x="146" y="483"/>
      <point x="45" y="378"/>
    </contour>
  </outline>
</glyph>
<glyph name="partialdiff" format="1">
  <advance width="519"/>
  <unicode hex="2202"/>
  <outline>
    <contour>
      <point x="213" y="39" type="curve" smooth="yes"/>
      <point x="177" y="39"/>
      <point x="160" y="71"/>
      <point x="160" y="116" type="curve" smooth="yes"/>
      <point x="160" y="210"/>
      <point x="238" y="359"/>
      <point x="382" y="364" type="curve"/>
      <point x="374" y="238"/>
      <point x="325" y="39"/>
    </contour>
    <contour>
      <point x="207" y="-8" type="curve" smooth="yes"/>
      <point x="357" y="-8"/>
      <point x="460" y="168"/>
      <point x="460" y="399" type="curve" smooth="yes"/>
      <point x="460" y="579"/>
      <point x="358" y="686"/>
      <point x="232" y="686" type="curve" smooth="yes"/>
      <point x="192" y="686"/>
      <point x="147" y="674"/>
      <point x="104" y="651" type="curve"/>
      <point x="122" y="607" type="line"/>
      <point x="154" y="622"/>
      <point x="185" y="629"/>
      <point x="214" y="629" type="curve" smooth="yes"/>
      <point x="309" y="629"/>
      <point x="384" y="553"/>
      <point x="384" y="425" type="curve" smooth="yes"/>
      <point x="384" y="419"/>
      <point x="383" y="411"/>
      <point x="383" y="405" type="curve"/>
      <point x="183" y="404"/>
      <point x="72" y="248"/>
      <point x="72" y="127" type="curve" smooth="yes"/>
      <point x="72" y="52"/>
      <point x="115" y="-8"/>
    </contour>
  </outline>
</glyph>
<glyph name="emptyset" format="1">
  <advance width="737"/>
  <unicode hex="2205"/>
  <outline>
    <contour>
      <point x="50" y="322" type="curve" smooth="yes"/>
      <point x="50" y="506"/>
      <point x="201" y="647"/>
      <point x="365" y="647" type="curve" smooth="yes"/>
      <point x="441" y="647"/>
      <point x="516" y="616"/>
      <point x="573" y="565" type="curve"/>
      <point x="651" y="652" type="line"/>
      <point x="667" y="640" type="line"/>
      <point x="588" y="551" type="line"/>
      <point x="645" y="493"/>
      <point x="682" y="413"/>
      <point x="682" y="322" type="curve" smooth="yes"/>
      <point x="682" y="138"/>
      <point x="529" y="-3"/>
      <point x="365" y="-3" type="curve" smooth="yes"/>
      <point x="290" y="-3"/>
      <point x="219" y="26"/>
      <point x="162" y="76" type="curve"/>
      <point x="77" y="-19" type="line"/>
      <point x="64" y="-6" type="line"/>
      <point x="148" y="89" type="line"/>
      <point x="89" y="147"/>
      <point x="50" y="229"/>
    </contour>
    <contour>
      <point x="175" y="90" type="line"/>
      <point x="228" y="44"/>
      <point x="295" y="16"/>
      <point x="365" y="16" type="curve" smooth="yes"/>
      <point x="519" y="16"/>
      <point x="663" y="150"/>
      <point x="663" y="322" type="curve" smooth="yes"/>
      <point x="663" y="407"/>
      <point x="629" y="482"/>
      <point x="575" y="537" type="curve"/>
    </contour>
    <contour>
      <point x="161" y="103" type="curve"/>
      <point x="561" y="551" type="line"/>
      <point x="507" y="600"/>
      <point x="437" y="628"/>
      <point x="365" y="628" type="curve" smooth="yes"/>
      <point x="211" y="628"/>
      <point x="68" y="494"/>
      <point x="68" y="322" type="curve" smooth="yes"/>
      <point x="68" y="235"/>
      <point x="105" y="158"/>
    </contour>
  </outline>
</glyph>
<glyph name="Delta" format="1">
  <advance width="563"/>
  <unicode hex="2206"/>
  <outline>
    <contour>
      <point x="295" y="526" type="line"/>
      <point x="449" y="76" type="line"/>
      <point x="115" y="76" type="line"/>
      <point x="266" y="526" type="line"/>
      <point x="281" y="578" type="line"/>
    </contour>
    <contour>
      <point x="241" y="678" type="line"/>
      <point x="29" y="38" type="line"/>
      <point x="29" y="0" type="line"/>
      <point x="536" y="0" type="line"/>
      <point x="536" y="38" type="line"/>
      <point x="323" y="678" type="line"/>
    </contour>
  </outline>
</glyph>
<glyph name="product" format="1">
  <advance width="675"/>
  <unicode hex="220F"/>
  <outline>
    <contour>
      <point x="92" y="696" type="line"/>
      <point x="92" y="0" type="line"/>
      <point x="173" y="0" type="line"/>
      <point x="173" y="626" type="line"/>
      <point x="541" y="626" type="line"/>
      <point x="541" y="0" type="line"/>
      <point x="623" y="0" type="line"/>
      <point x="623" y="696" type="line"/>
    </contour>
  </outline>
</glyph>
<glyph name="minus" format="1">
  <advance width="513"/>
  <unicode hex="2212"/>
  <outline>
    <contour>
      <point x="46" y="292" type="line"/>
      <point x="46" y="230" type="line"/>
      <point x="470" y="230" type="line"/>
      <point x="470" y="292" type="line"/>
    </contour>
  </outline>
</glyph>
<glyph name="radical" format="1">
  <advance width="508"/>
  <unicode hex="221A"/>
  <outline>
    <contour>
      <point x="438" y="750" type="line"/>
      <point x="384" y="525"/>
      <point x="317" y="251"/>
      <point x="264" y="26" type="curve"/>
      <point x="225" y="153"/>
      <point x="178" y="272"/>
      <point x="136" y="395" type="curve"/>
      <point x="22" y="368" type="line"/>
      <point x="28" y="315" type="line"/>
      <point x="94" y="328" type="line"/>
      <point x="237" y="-72" type="line"/>
      <point x="302" y="-72" type="line"/>
      <point x="494" y="750" type="line"/>
    </contour>
  </outline>
</glyph>
<glyph name="infinity" format="1">
  <advance width="729"/>
  <unicode hex="221E"/>
  <outline>
    <contour>
      <point x="639" y="290" type="curve" smooth="yes"/>
      <point x="639" y="222"/>
      <point x="609" y="168"/>
      <point x="543" y="168" type="curve" smooth="yes"/>
      <point x="490" y="168"/>
      <point x="451" y="206"/>
      <point x="399" y="278" type="curve"/>
      <point x="437" y="335"/>
      <point x="483" y="388"/>
      <point x="541" y="388" type="curve" smooth="yes"/>
      <point x="599" y="388"/>
      <point x="639" y="343"/>
    </contour>
    <contour>
      <point x="330" y="277" type="curve"/>
      <point x="290" y="218"/>
      <point x="241" y="168"/>
      <point x="186" y="168" type="curve" smooth="yes"/>
      <point x="124" y="168"/>
      <point x="83" y="222"/>
      <point x="83" y="278" type="curve" smooth="yes"/>
      <point x="83" y="337"/>
      <point x="122" y="388"/>
      <point x="184" y="388" type="curve" smooth="yes"/>
      <point x="243" y="388"/>
      <point x="290" y="340"/>
    </contour>
    <contour>
      <point x="364" y="325" type="curve"/>
      <point x="311" y="397"/>
      <point x="258" y="445"/>
      <point x="184" y="445" type="curve" smooth="yes"/>
      <point x="99" y="445"/>
      <point x="32" y="375"/>
      <point x="32" y="287" type="curve" smooth="yes"/>
      <point x="32" y="191"/>
      <point x="88" y="109"/>
      <point x="185" y="109" type="curve" smooth="yes"/>
      <point x="257" y="109"/>
      <point x="313" y="159"/>
      <point x="364" y="229" type="curve"/>
      <point x="422" y="149"/>
      <point x="477" y="109"/>
      <point x="542" y="109" type="curve" smooth="yes"/>
      <point x="628" y="109"/>
      <point x="695" y="179"/>
      <point x="695" y="280" type="curve" smooth="yes"/>
      <point x="695" y="376"/>
      <point x="640" y="445"/>
      <point x="543" y="445" type="curve" smooth="yes"/>
      <point x="468" y="445"/>
      <point x="414" y="395"/>
    </contour>
  </outline>
</glyph>
<glyph name="integral" format="1">
  <advance width="426"/>
  <unicode hex="222B"/>
  <outline>
    <contour>
      <point x="224" y="508" type="curve" smooth="yes"/>
      <point x="224" y="-18" type="line" smooth="yes"/>
      <point x="224" y="-91"/>
      <point x="213" y="-136"/>
      <point x="156" y="-136" type="curve" smooth="yes"/>
      <point x="144" y="-136"/>
      <point x="129" y="-134"/>
      <point x="113" y="-130" type="curve"/>
      <point x="113" y="-178" type="line"/>
      <point x="132" y="-182"/>
      <point x="150" y="-184"/>
      <point x="165" y="-184" type="curve" smooth="yes"/>
      <point x="247" y="-184"/>
      <point x="282" y="-124"/>
      <point x="282" y="-14" type="curve" smooth="yes"/>
      <point x="282" y="512" type="line" smooth="yes"/>
      <point x="282" y="582"/>
      <point x="293" y="626"/>
      <point x="344" y="626" type="curve" smooth="yes"/>
      <point x="356" y="626"/>
      <point x="369" y="622"/>
      <point x="384" y="618" type="curve"/>
      <point x="384" y="664" type="line"/>
      <point x="363" y="668"/>
      <point x="345" y="671"/>
      <point x="330" y="671" type="curve" smooth="yes"/>
      <point x="253" y="671"/>
      <point x="224" y="616"/>
    </contour>
  </outline>
</glyph>
<glyph name="approxequal" format="1">
  <advance width="505"/>
  <unicode hex="2248"/>
  <outline>
    <contour>
      <point x="58" y="188" type="line"/>
      <point x="77" y="228"/>
      <point x="112" y="260"/>
      <point x="151" y="260" type="curve" smooth="yes"/>
      <point x="181" y="260"/>
      <point x="213" y="244"/>
      <point x="256" y="225" type="curve" smooth="yes"/>
      <point x="294" y="207"/>
      <point x="325" y="194"/>
      <point x="357" y="194" type="curve" smooth="yes"/>
      <point x="414" y="194"/>
      <point x="448" y="229"/>
      <point x="469" y="286" type="curve"/>
      <point x="445" y="324" type="line"/>
      <point x="428" y="284"/>
      <point x="393" y="255"/>
      <point x="358" y="255" type="curve" smooth="yes"/>
      <point x="332" y="255"/>
      <point x="297" y="272"/>
      <point x="257" y="290" type="curve" smooth="yes"/>
      <point x="213" y="311"/>
      <point x="187" y="320"/>
      <point x="152" y="320" type="curve" smooth="yes"/>
      <point x="94" y="320"/>
      <point x="55" y="281"/>
      <point x="36" y="230" type="curve"/>
    </contour>
    <contour>
      <point x="58" y="338" type="line"/>
      <point x="77" y="378"/>
      <point x="112" y="409"/>
      <point x="151" y="409" type="curve" smooth="yes"/>
      <point x="181" y="409"/>
      <point x="213" y="393"/>
      <point x="256" y="374" type="curve" smooth="yes"/>
      <point x="294" y="356"/>
      <point x="325" y="343"/>
      <point x="357" y="343" type="curve" smooth="yes"/>
      <point x="414" y="343"/>
      <point x="448" y="379"/>
      <point x="469" y="435" type="curve"/>
      <point x="445" y="472" type="line"/>
      <point x="428" y="433"/>
      <point x="393" y="403"/>
      <point x="358" y="403" type="curve" smooth="yes"/>
      <point x="332" y="403"/>
      <point x="297" y="420"/>
      <point x="257" y="438" type="curve" smooth="yes"/>
      <point x="213" y="458"/>
      <point x="187" y="469"/>
      <point x="152" y="469" type="curve" smooth="yes"/>
      <point x="94" y="469"/>
      <point x="55" y="430"/>
      <point x="36" y="379" type="curve"/>
    </contour>
  </outline>
</glyph>
<glyph name="notequal" format="1">
  <advance width="477"/>
  <unicode hex="2260"/>
  <outline>
    <contour>
      <point x="139" y="21" type="line"/>
      <point x="201" y="154" type="line"/>
      <point x="440" y="154" type="line"/>
      <point x="437" y="208" type="line"/>
      <point x="225" y="208" type="line"/>
      <point x="293" y="343" type="line"/>
      <point x="440" y="343" type="line"/>
      <point x="436" y="399" type="line"/>
      <point x="318" y="399" type="line"/>
      <point x="367" y="521" type="line"/>
      <point x="321" y="527" type="line"/>
      <point x="262" y="399" type="line"/>
      <point x="29" y="399" type="line"/>
      <point x="32" y="344" type="line"/>
      <point x="237" y="344" type="line"/>
      <point x="170" y="209" type="line"/>
      <point x="30" y="209" type="line"/>
      <point x="32" y="154" type="line"/>
      <point x="144" y="154" type="line"/>
      <point x="94" y="29" type="line"/>
    </contour>
  </outline>
</glyph>
<glyph name="lessequal" format="1">
  <advance width="523"/>
  <unicode hex="2264"/>
  <outline>
    <contour>
      <point x="56" y="3" type="line"/>
      <point x="466" y="3" type="line"/>
      <point x="466" y="59" type="line"/>
      <point x="56" y="60" type="line"/>
    </contour>
    <contour>
      <point x="454" y="107" type="line"/>
      <point x="454" y="171" type="line"/>
      <point x="145" y="336" type="line"/>
      <point x="453" y="510" type="line"/>
      <point x="453" y="575" type="line"/>
      <point x="64" y="354" type="line"/>
      <point x="64" y="317" type="line"/>
    </contour>
  </outline>
</glyph>
<glyph name="greaterequal" format="1">
  <advance width="523"/>
  <unicode hex="2265"/>
  <outline>
    <contour>
      <point x="57" y="4" type="line"/>
      <point x="467" y="4" type="line"/>
      <point x="467" y="60" type="line"/>
      <point x="57" y="60" type="line"/>
    </contour>
    <contour>
      <point x="69" y="103" type="line"/>
      <point x="459" y="314" type="line"/>
      <point x="459" y="352" type="line"/>
      <point x="70" y="575" type="line"/>
      <point x="70" y="510" type="line"/>
      <point x="380" y="333" type="line"/>
      <point x="69" y="167" type="line"/>
    </contour>
  </outline>
</glyph>
<glyph name="lozenge" format="1">
  <advance width="513"/>
  <unicode hex="25CA"/>
  <outline>
    <contour>
      <point x="396" y="336" type="curve"/>
      <point x="388" y="321"/>
      <point x="265" y="75"/>
      <point x="257" y="59" type="curve"/>
      <point x="249" y="74"/>
      <point x="127" y="322"/>
      <point x="119" y="337" type="curve"/>
      <point x="127" y="352"/>
      <point x="252" y="596"/>
      <point x="260" y="611" type="curve"/>
      <point x="268" y="596"/>
      <point x="388" y="351"/>
    </contour>
    <contour>
      <point x="236" y="694" type="line"/>
      <point x="53" y="336" type="line"/>
      <point x="233" y="-21" type="line"/>
      <point x="279" y="-21" type="line"/>
      <point x="463" y="337" type="line"/>
      <point x="282" y="694" type="line"/>
    </contour>
  </outline>
</glyph>
<glyph name="uniE0FF" format="1">
  <advance width="1000"/>
  <unicode hex="E0FF"/>
  <outline>
    <contour>
      <point x="380" y="412" type="line"/>
      <point x="568" y="412" type="line"/>
      <point x="568" y="312" type="line"/>
      <point x="380" y="312" type="line"/>
    </contour>
  </outline>
</glyph>
<glyph name="uniEFFD" format="1">
  <advance width="1000"/>
  <unicode hex="EFFD"/>
  <outline>
    <contour>
      <point x="380" y="412" type="line"/>
      <point x="568" y="412" type="line"/>
      <point x="568" y="312" type="line"/>
      <point x="380" y="312" type="line"/>
    </contour>
  </outline>
</glyph>
<glyph name="caron.alt" format="1">
  <advance width="322"/>
  <outline>
    <contour>
      <point x="94" y="475" type="move" name="_caron.alt"/>
    </contour>
    <contour>
      <point x="203" y="509" type="line"/>
      <point x="262" y="509" type="line"/>
      <point x="297" y="678" type="line"/>
      <point x="219" y="678" type="line"/>
    </contour>
  </outline>
</glyph>
<glyph name="foundryicon" format="1">
  <advance width="591"/>
  <outline>
    <contour>
      <point x="123" y="1" type="line"/>
      <point x="294" y="122" type="line"/>
      <point x="469" y="1" type="line"/>
      <point x="405" y="202" type="line"/>
      <point x="577" y="332" type="line"/>
      <point x="364" y="332" type="line"/>
      <point x="294" y="534" type="line"/>
      <point x="228" y="332" type="line"/>
      <point x="15" y="332" type="line"/>
      <point x="186" y="202" type="line"/>
    </contour>
    <contour>
      <point x="213" y="178" type="line"/>
      <point x="213" y="295" type="line"/>
      <point x="260" y="295" type="line"/>
      <point x="335" y="230" type="line"/>
      <point x="335" y="295" type="line"/>
      <point x="381" y="295" type="line"/>
      <point x="381" y="178" type="line"/>
      <point x="335" y="178" type="line"/>
      <point x="260" y="243" type="line"/>
      <point x="260" y="178" type="line"/>
    </contour>
  </outline>
</glyph>
<glyph name="slashbar" format="1">
  <advance width="374"/>
  <outline>
    <contour>
      <point x="85" y="225" type="line"/>
      <point x="360" y="376" type="line"/>
      <point x="360" y="438" type="line"/>
      <point x="85" y="287" type="line"/>
    </contour>
  </outline>
</glyph>
